<?xml version="1.0" standalone="no"?>
<!DOCTYPE svg PUBLIC "-//W3C//DTD SVG 1.1//EN" "http://www.w3.org/Graphics/SVG/1.1/DTD/svg11.dtd" >
<svg xmlns="http://www.w3.org/2000/svg" xmlns:xlink="http://www.w3.org/1999/xlink" version="1.1">
<metadata>
Created by FontForge 20170910 at Sun Sep  2 12:39:59 2012
 By Jimmy Wärting
Copyright (c) 2008-2012 by Jos Buivenga/exljbris. All rights reserved.
</metadata>
<defs>
<font id="MuseoCyrl-900" horiz-adv-x="600" >
  <font-face 
    font-family="Museo Cyrl 900"
    font-weight="700"
    font-stretch="normal"
    units-per-em="1000"
    panose-1="2 0 0 0 0 0 0 0 0 0"
    ascent="750"
    descent="-250"
    x-height="515"
    cap-height="715"
    bbox="-119 -237 1231 918"
    underline-thickness="50"
    underline-position="-100"
    stemh="150"
    stemv="173"
    unicode-range="U+0020-FB04"
  />
<missing-glyph horiz-adv-x="510" 
d="M5 0v700h500v-700h-500zM255 395l170 255h-340zM285 350l170 -255v510zM55 95l170 255l-170 255v-510zM85 50h340l-170 255z" />
    <glyph glyph-name="f_f" unicode="ff" horiz-adv-x="727" 
d="M79 0v380h-63v135h63v12c0 169 153 192 236 192c31 0 52 -3 52 -3v-146s-12 2 -28 2c-34 0 -87 -7 -87 -54v-3h194v12c0 169 153 192 236 192c31 0 52 -3 52 -3v-146s-12 2 -28 2c-34 0 -87 -7 -87 -54v-3h95v-135h-95v-380h-173v380h-194v-380h-173z" />
    <glyph glyph-name="fi" unicode="fi" horiz-adv-x="699" 
d="M79 0v380h-63v135h63v12c0 169 153 192 236 192c31 0 52 -3 52 -3v-146s-14 2 -33 2c-34 0 -82 -8 -82 -53v-4h297c51 0 73 -22 73 -73v-275c0 -14 8 -22 22 -22h38v-145h-160c-51 0 -73 22 -73 73v285c0 14 -8 22 -22 22h-175v-380h-173zM462 575v140h145v-140h-145z
" />
    <glyph glyph-name="fl" unicode="fl" horiz-adv-x="693" 
d="M79 0v380h-63v135h63v12c0 168 152 188 235 188h228c51 0 73 -22 73 -73v-475c0 -14 8 -22 22 -22h38v-145h-160c-51 0 -73 22 -73 73v475c0 14 -8 22 -22 22h-81c-34 0 -87 -4 -87 -48v-7h95v-135h-95v-380h-173z" />
    <glyph glyph-name="f_f_i" unicode="ffi" horiz-adv-x="1066" 
d="M79 0v380h-63v135h63v12c0 169 153 192 236 192c31 0 52 -3 52 -3v-146s-14 2 -32 2c-34 0 -83 -8 -83 -54v-3h194v12c0 169 153 192 236 192c31 0 52 -3 52 -3v-146s-14 2 -32 2c-34 0 -83 -8 -83 -54v-3h297c51 0 73 -22 73 -73v-275c0 -14 8 -22 22 -22h38v-145h-160
c-51 0 -73 22 -73 73v285c0 14 -8 22 -22 22h-175v-380h-173v380h-194v-380h-173zM829 575v140h145v-140h-145z" />
    <glyph glyph-name="f_f_l" unicode="ffl" horiz-adv-x="1060" 
d="M79 0v380h-63v135h63v12c0 169 153 192 236 192c31 0 52 -3 52 -3v-146s-13 2 -29 2c-34 0 -86 -8 -86 -54v-3h194v12c0 168 152 188 235 188h228c51 0 73 -22 73 -73v-475c0 -14 8 -22 22 -22h38v-145h-160c-51 0 -73 22 -73 73v475c0 14 -8 22 -22 22h-81
c-34 0 -87 -4 -87 -48v-7h95v-135h-95v-380h-173v380h-194v-380h-173z" />
    <glyph glyph-name="f_j" unicode="fj" horiz-adv-x="685" 
d="M79 0v380h-63v135h63v12c0 169 153 192 236 192c31 0 52 -3 52 -3v-146s-14 2 -32 2c-34 0 -83 -8 -83 -54v-3h312c51 0 73 -22 73 -73v-455c0 -173 -162 -195 -242 -195c-28 0 -46 3 -46 3v144s9 -1 22 -1c34 0 93 8 93 66v354c0 14 -8 22 -22 22h-190v-380h-173z
M477 575v140h145v-140h-145z" />
    <glyph glyph-name=".notdef" horiz-adv-x="510" 
d="M5 0v700h500v-700h-500zM255 395l170 255h-340zM285 350l170 -255v510zM55 95l170 255l-170 255v-510zM85 50h340l-170 255z" />
    <glyph glyph-name="space" unicode=" " horiz-adv-x="260" 
 />
    <glyph glyph-name="exclam" unicode="!" horiz-adv-x="306" 
d="M79 221l-16 494h180l-16 -494h-148zM74 0v150h158v-150h-158z" />
    <glyph glyph-name="quotedbl" unicode="&#x22;" horiz-adv-x="427" 
d="M248 490v240h122v-240h-122zM57 490v240h122v-240h-122z" />
    <glyph glyph-name="numbersign" unicode="#" horiz-adv-x="708" 
d="M104 0l31 180h-101l20 120h101l17 95h-99l20 120h99l35 200h134l-35 -200h108l35 200h134l-35 -200h105l-20 -120h-105l-17 -95h103l-20 -120h-103l-31 -180h-134l31 180h-108l-31 -180h-134zM289 300h108l17 95h-108z" />
    <glyph glyph-name="dollar" unicode="$" 
d="M35 139l122 104s58 -96 151 -96c36 0 72 13 72 53c0 84 -324 86 -324 321c0 110 87 182 196 201v93h114v-93c83 -14 168 -61 168 -150v-78h-160v31c0 26 -32 42 -65 42c-36 0 -73 -15 -73 -44c0 -95 324 -73 324 -319c0 -103 -77 -189 -194 -210v-93h-114v91
c-151 24 -217 147 -217 147z" />
    <glyph glyph-name="percent" unicode="%" horiz-adv-x="860" 
d="M217 382c-101 0 -181 76 -181 172c0 94 80 173 181 173c100 0 181 -79 181 -173c0 -96 -81 -172 -181 -172zM76 0l552 715h152l-552 -715h-152zM217 502c30 0 55 23 55 53c0 28 -25 52 -55 52s-55 -24 -55 -52c0 -30 25 -53 55 -53zM463 160c0 94 80 173 181 173
c100 0 181 -79 181 -173c0 -96 -81 -172 -181 -172c-101 0 -181 76 -181 172zM589 161c0 -30 25 -53 55 -53s55 23 55 53c0 28 -25 52 -55 52s-55 -24 -55 -52z" />
    <glyph glyph-name="ampersand" unicode="&#x26;" horiz-adv-x="658" 
d="M33 217c0 61 38 138 109 160v2s-79 39 -79 155c0 121 102 193 223 193c70 0 111 -13 111 -13l-40 -136s-19 5 -40 5c-51 0 -77 -38 -77 -75c0 -35 24 -69 73 -69h77v76h172v-76h79v-150h-79v-69c0 -128 -94 -232 -263 -232c-158 0 -266 101 -266 229zM212 218
c0 -36 33 -71 87 -71c60 0 91 36 91 83v59h-78c-52 0 -100 -17 -100 -71z" />
    <glyph glyph-name="quotesingle" unicode="'" horiz-adv-x="239" 
d="M57 490v240h125v-240h-125z" />
    <glyph glyph-name="parenleft" unicode="(" horiz-adv-x="322" 
d="M158 -95c-85 114 -125 264 -125 416c0 155 41 310 125 429h143c-78 -130 -115 -273 -115 -417c0 -147 39 -295 115 -428h-143z" />
    <glyph glyph-name="parenright" unicode=")" horiz-adv-x="322" 
d="M21 -95c76 133 115 281 115 428c0 144 -37 287 -115 417h143c84 -119 125 -274 125 -429c0 -152 -40 -302 -125 -416h-143z" />
    <glyph glyph-name="asterisk" unicode="*" horiz-adv-x="499" 
d="M193 309l-122 88l75 83v2l-110 23l46 143l102 -45l-11 112h152l-12 -112l103 46l47 -143l-111 -23v-2l76 -83l-122 -89l-56 97h-2z" />
    <glyph glyph-name="plus" unicode="+" 
d="M27 222v130h205v223h136v-223h205v-130h-205v-222h-136v222h-205z" />
    <glyph glyph-name="comma" unicode="," horiz-adv-x="285" 
d="M5 -111l75 277h160l-113 -277h-122z" />
    <glyph glyph-name="hyphen" unicode="-" horiz-adv-x="418" 
d="M52 212v150h314v-150h-314z" />
    <glyph glyph-name="period" unicode="." horiz-adv-x="262" 
d="M52 0v164h158v-164h-158z" />
    <glyph glyph-name="slash" unicode="/" horiz-adv-x="456" 
d="M28 -42l256 792h144l-256 -792h-144z" />
    <glyph glyph-name="zero" unicode="0" horiz-adv-x="614" 
d="M307 -12c-203 0 -269 166 -269 371s66 368 269 368s269 -163 269 -368s-66 -371 -269 -371zM307 148c69 0 89 94 89 211c0 116 -20 208 -89 208s-89 -92 -89 -208c0 -117 20 -211 89 -211z" />
    <glyph glyph-name="one" unicode="1" horiz-adv-x="539" 
d="M47 0v150h150v298c0 27 1 55 1 55h-2s-9 -20 -28 -38l-43 -39l-101 108l193 181h159v-565h151v-150h-480z" />
    <glyph glyph-name="two" unicode="2" horiz-adv-x="604" 
d="M32 113c0 255 327 247 327 392c0 40 -31 60 -71 60c-45 0 -67 -23 -67 -41v-29h-160v84c0 99 128 148 234 148c117 0 244 -70 244 -219c0 -235 -320 -264 -320 -343c0 -12 8 -15 30 -15h139c14 0 22 8 22 22v39h160v-138c0 -51 -22 -73 -73 -73h-384
c-74 0 -81 33 -81 113z" />
    <glyph glyph-name="three" unicode="3" horiz-adv-x="588" 
d="M28 89l84 135s67 -71 167 -71c59 0 92 31 92 71c0 38 -40 69 -105 69h-51l-35 85l79 123c29 46 56 67 56 67v2s-23 -5 -68 -5h-15c-14 0 -22 -8 -22 -22v-39h-160v138c0 51 13 73 64 73h410v-109l-129 -173c102 -23 157 -111 157 -206c0 -117 -88 -239 -270 -239
c-166 0 -254 101 -254 101z" />
    <glyph glyph-name="four" unicode="4" horiz-adv-x="616" 
d="M15 168v111l256 436h217v-397h106v-150h-106v-168h-179v168h-294zM197 315c0 0 29 3 65 3h50v125c0 39 6 85 6 85h-2s-18 -44 -35 -74l-50 -89c-17 -30 -34 -48 -34 -48v-2z" />
    <glyph glyph-name="five" unicode="5" horiz-adv-x="582" 
d="M27 84l82 138s69 -69 167 -69c62 0 95 40 95 83c0 65 -64 87 -131 87c-76 0 -132 -27 -132 -27l-54 30l22 316c4 51 22 73 73 73h286c51 0 73 -22 73 -73v-138h-160v39c0 14 -8 22 -22 22h-70c-14 0 -21 -8 -22 -22l-3 -49c-1 -14 -3 -28 -3 -28h2s25 4 51 4
c179 0 271 -105 271 -237c0 -123 -91 -246 -276 -246c-158 0 -249 97 -249 97z" />
    <glyph glyph-name="six" unicode="6" horiz-adv-x="594" 
d="M324 -12c-144 0 -290 107 -290 337c0 196 119 402 341 402c100 0 158 -31 158 -31l-47 -150s-47 21 -98 21c-82 0 -130 -52 -152 -118h2c17 12 62 25 96 25c149 0 234 -122 234 -245c0 -121 -89 -241 -244 -241zM216 290c0 -85 58 -142 108 -142c44 0 72 38 72 80
c0 51 -31 105 -108 105c-38 0 -72 -10 -72 -43z" />
    <glyph glyph-name="seven" unicode="7" horiz-adv-x="569" 
d="M40 0l283 501c27 48 46 65 46 65v2s-10 -3 -46 -3h-107c-14 0 -22 -8 -22 -22v-39h-160v138c0 51 13 73 64 73h466v-122l-330 -593h-194z" />
    <glyph glyph-name="eight" unicode="8" horiz-adv-x="599" 
d="M33 211c0 101 95 169 95 169v2s-64 48 -64 139c0 105 84 206 239 206c143 0 239 -90 239 -205c0 -93 -64 -151 -64 -151v-2c59 -41 87 -102 87 -163c0 -109 -97 -218 -267 -218c-156 0 -265 99 -265 223zM300 451c8 -4 26 -12 35 -12c20 0 37 34 37 70s-28 58 -69 58
c-43 0 -68 -24 -68 -50c0 -29 27 -49 65 -66zM211 223c0 -44 34 -75 87 -75c52 0 87 28 87 67c0 32 -33 52 -77 72c-30 14 -41 20 -50 20c-21 0 -47 -42 -47 -84z" />
    <glyph glyph-name="nine" unicode="9" horiz-adv-x="594" 
d="M61 19l47 150s47 -21 98 -21c82 0 130 52 152 118h-2c-16 -12 -62 -25 -96 -25c-149 0 -234 122 -234 245c0 121 89 241 244 241c144 0 290 -107 290 -337c0 -196 -119 -402 -341 -402c-100 0 -158 31 -158 31zM306 382c38 0 72 10 72 43c0 85 -58 142 -108 142
c-44 0 -72 -38 -72 -80c0 -51 31 -105 108 -105z" />
    <glyph glyph-name="colon" unicode=":" horiz-adv-x="262" 
d="M52 351v164h158v-164h-158zM52 0v164h158v-164h-158z" />
    <glyph glyph-name="semicolon" unicode=";" horiz-adv-x="290" 
d="M81 351v164h158v-164h-158zM17 -111l59 277h160l-97 -277h-122z" />
    <glyph glyph-name="less" unicode="&#x3c;" 
d="M38 234v107l504 223v-145l-330 -131v-2l330 -130v-145z" />
    <glyph glyph-name="equal" unicode="=" 
d="M47 337v130h506v-130h-506zM47 107v130h506v-130h-506z" />
    <glyph glyph-name="greater" unicode="&#x3e;" 
d="M58 11v145l330 130v2l-330 131v145l504 -223v-107z" />
    <glyph glyph-name="question" unicode="?" horiz-adv-x="509" 
d="M136 221v50c0 135 157 159 157 243c0 34 -33 59 -71 59c-48 0 -95 -43 -95 -43l-96 117s75 83 209 83c112 0 233 -67 233 -196c0 -164 -171 -188 -171 -277v-36h-166zM140 0v150h158v-150h-158z" />
    <glyph glyph-name="at" unicode="@" horiz-adv-x="843" 
d="M43 239c0 211 168 376 393 376c221 0 298 -110 298 -240v-198h74v-119h-283c-150 0 -227 91 -227 182c0 88 74 176 227 176h49c0 43 -73 64 -135 64c-130 0 -227 -120 -227 -241c0 -127 88 -239 252 -239v-130c-262 0 -421 163 -421 369zM469 244c0 -37 22 -67 66 -67h39
v134h-37c-46 0 -68 -31 -68 -67z" />
    <glyph glyph-name="A" unicode="A" horiz-adv-x="690" 
d="M11 0v150h19c16 0 21 5 27 22l195 543h186l195 -543c6 -17 11 -22 27 -22h19v-150h-115c-50 0 -70 15 -84 58l-31 92h-208l-31 -92c-14 -43 -34 -58 -84 -58h-115zM279 295h132l-36 119c-14 45 -29 118 -29 118h-2s-15 -73 -29 -118z" />
    <glyph glyph-name="B" unicode="B" horiz-adv-x="636" 
d="M88 73v492h-65v150h313c143 0 243 -64 243 -187c0 -80 -46 -132 -83 -152v-2c82 -25 112 -98 112 -161c0 -156 -130 -213 -272 -213h-175c-51 0 -73 22 -73 73zM267 438h71c42 0 61 32 61 66c0 33 -19 61 -64 61h-68v-127zM267 172c0 -14 8 -22 22 -22h64
c48 0 71 35 71 75s-22 73 -70 73h-87v-126z" />
    <glyph glyph-name="C" unicode="C" horiz-adv-x="710" 
d="M25 365c0 205 157 362 370 362c85 0 274 -33 274 -167v-94h-160v39c0 41 -64 57 -110 57c-104 0 -188 -67 -188 -197c0 -117 87 -212 192 -212c125 0 204 91 204 91l91 -128s-108 -128 -298 -128c-226 0 -375 162 -375 377z" />
    <glyph glyph-name="D" unicode="D" horiz-adv-x="714" 
d="M88 73v492h-65v150h294c225 0 369 -131 369 -356s-144 -359 -369 -359h-156c-51 0 -73 22 -73 73zM267 172c0 -14 8 -22 22 -22h21c118 0 190 72 190 209c0 136 -75 206 -190 206h-43v-393z" />
    <glyph glyph-name="E" unicode="E" horiz-adv-x="601" 
d="M88 73v492h-65v150h450c51 0 73 -22 73 -73v-138h-160v39c0 14 -8 22 -22 22h-97v-130h204v-150h-204v-113c0 -14 8 -22 22 -22h99c14 0 22 8 22 22v39h160v-138c0 -51 -22 -73 -73 -73h-336c-51 0 -73 22 -73 73z" />
    <glyph glyph-name="F" unicode="F" horiz-adv-x="543" 
d="M88 0v565h-65v150h430c51 0 73 -22 73 -73v-138h-160v39c0 14 -8 22 -22 22h-77v-150h204v-150h-204v-265h-179z" />
    <glyph glyph-name="G" unicode="G" horiz-adv-x="749" 
d="M25 364c0 205 157 363 370 363c183 0 269 -93 269 -93l-100 -127s-71 57 -165 57c-95 0 -188 -74 -188 -199c0 -141 95 -212 197 -212c94 0 148 52 148 52v27c0 14 -8 22 -22 22h-43v150h151c51 0 73 -22 73 -73v-331h-150v20c0 15 1 30 1 30h-2s-71 -62 -193 -62
c-180 0 -346 132 -346 376z" />
    <glyph glyph-name="H" unicode="H" horiz-adv-x="778" 
d="M89 0v543c0 14 -8 22 -22 22h-43v150h171c51 0 73 -22 73 -73v-213h242v213c0 51 22 73 73 73h171v-150h-43c-14 0 -22 -8 -22 -22v-543h-179v280h-242v-280h-179z" />
    <glyph glyph-name="I" unicode="I" horiz-adv-x="399" 
d="M40 0v150h75v415h-75v150h319v-150h-75v-415h75v-150h-319z" />
    <glyph glyph-name="J" unicode="J" horiz-adv-x="552" 
d="M7 220v52h179v-33c0 -66 31 -86 66 -86c37 0 63 24 63 76v314c0 14 -8 22 -22 22h-170v150h298c51 0 73 -22 73 -73v-422c0 -157 -122 -232 -244 -232s-243 77 -243 232z" />
    <glyph glyph-name="K" unicode="K" horiz-adv-x="676" 
d="M89 0v543c0 14 -8 22 -22 22h-43v150h171c51 0 73 -22 73 -73v-203h24c25 0 43 0 55 22l121 254h195l-143 -289c-24 -49 -53 -62 -53 -62v-2s30 -7 55 -57l65 -132c10 -21 29 -23 49 -23h19v-150h-105c-50 0 -79 8 -101 53l-107 214c-12 23 -33 23 -60 23h-14v-290h-179z
" />
    <glyph glyph-name="L" unicode="L" horiz-adv-x="575" 
d="M88 73v470c0 14 -8 22 -22 22h-43v150h171c51 0 73 -22 73 -73v-470c0 -14 8 -22 22 -22h94c14 0 22 8 22 22v39h160v-138c0 -51 -22 -73 -73 -73h-331c-51 0 -73 22 -73 73z" />
    <glyph glyph-name="M" unicode="M" horiz-adv-x="902" 
d="M22 0v150h25c14 0 21 8 22 22l44 543h187l114 -282c18 -45 36 -103 36 -103h2s18 58 36 103l114 282h187l44 -543c1 -14 8 -22 22 -22h25v-150h-148c-51 0 -69 22 -73 73l-16 229c-4 54 0 120 0 120h-2s-21 -76 -40 -120l-80 -187h-140l-80 187c-19 44 -40 120 -40 120
h-2s4 -66 0 -120l-16 -229c-4 -51 -22 -73 -73 -73h-148z" />
    <glyph glyph-name="N" unicode="N" horiz-adv-x="770" 
d="M24 0v150h43c14 0 22 8 22 22v543h161l198 -307c30 -46 60 -107 60 -107h2s-8 62 -8 107v234c0 51 22 73 73 73h171v-150h-43c-14 0 -22 -8 -22 -22v-543h-160l-199 306c-30 45 -60 107 -60 107h-2s8 -62 8 -107v-233c0 -51 -22 -73 -73 -73h-171z" />
    <glyph glyph-name="O" unicode="O" horiz-adv-x="796" 
d="M24 362c0 205 158 365 374 365s374 -160 374 -365c0 -210 -158 -374 -374 -374s-374 164 -374 374zM210 362c0 -119 84 -209 188 -209s188 90 188 209c0 114 -84 200 -188 200s-188 -86 -188 -200z" />
    <glyph glyph-name="P" unicode="P" horiz-adv-x="617" 
d="M88 0v565h-65v150h347c139 0 233 -102 233 -246s-94 -248 -233 -248h-103v-221h-179zM267 371h67c58 0 86 41 86 98s-28 96 -83 96h-70v-194z" />
    <glyph glyph-name="Q" unicode="Q" horiz-adv-x="796" 
d="M24 362c0 205 158 364 374 364s374 -159 374 -364c0 -79 -28 -149 -70 -210l70 -58l-105 -117l-71 67c-58 -39 -127 -56 -198 -56c-216 0 -374 164 -374 374zM210 362c0 -119 84 -209 188 -209c46 0 67 11 67 11l-62 53l104 117l62 -61c11 27 17 57 17 89
c0 114 -84 199 -188 199s-188 -85 -188 -199z" />
    <glyph glyph-name="R" unicode="R" horiz-adv-x="655" 
d="M88 0v565h-65v150h334c139 0 236 -81 236 -225c0 -143 -105 -186 -105 -186v-2s28 -12 44 -43l45 -86c11 -21 29 -23 49 -23h12v-150h-98c-50 0 -78 9 -101 53l-84 161c-12 22 -27 27 -64 27h-24v-241h-179zM267 391h62c53 0 81 31 81 88s-28 86 -78 86h-65v-174z" />
    <glyph glyph-name="S" unicode="S" horiz-adv-x="564" 
d="M22 106l99 125s74 -84 164 -84c36 0 72 13 72 53c0 79 -324 88 -324 312c0 129 113 215 255 215c95 0 228 -46 228 -155v-78h-160v31c0 26 -37 42 -70 42c-36 0 -73 -15 -73 -48c0 -87 324 -75 324 -310c0 -119 -93 -221 -254 -221c-168 0 -261 118 -261 118z" />
    <glyph glyph-name="T" unicode="T" horiz-adv-x="673" 
d="M247 0v565h-58c-14 0 -22 -8 -22 -22v-39h-155v142c0 51 18 69 69 69h511c51 0 69 -18 69 -69v-142h-155v39c0 14 -8 22 -22 22h-58v-565h-179z" />
    <glyph glyph-name="U" unicode="U" horiz-adv-x="754" 
d="M83 263v280c0 14 -8 22 -22 22h-43v150h171c51 0 73 -22 73 -73v-374c0 -75 47 -115 115 -115s115 40 115 115v374c0 51 22 73 73 73h171v-150h-43c-14 0 -22 -8 -22 -22v-280c0 -161 -116 -275 -293 -275c-179 0 -295 114 -295 275z" />
    <glyph glyph-name="V" unicode="V" horiz-adv-x="708" 
d="M260 0l-198 543c-6 17 -11 22 -27 22h-25v150h125c50 0 70 -15 84 -58l107 -334c15 -45 27 -115 27 -115h2s12 70 27 115l107 334c14 43 34 58 84 58h125v-150h-25c-16 0 -21 -5 -27 -22l-198 -543h-188z" />
    <glyph glyph-name="W" unicode="W" horiz-adv-x="1028" 
d="M204 0l-136 543c-4 17 -12 22 -28 22h-25v150h128c49 0 80 -14 89 -58l79 -374c9 -44 9 -75 9 -75h2s1 31 12 75l109 431h143l108 -431c11 -44 12 -75 12 -75h2s0 31 9 75l79 374c9 44 39 58 89 58h128v-150h-25c-16 0 -24 -5 -28 -22l-136 -543h-205l-90 333
c-13 46 -14 76 -14 76h-2s-1 -30 -14 -76l-90 -333h-205z" />
    <glyph glyph-name="X" unicode="X" horiz-adv-x="655" 
d="M2 0l216 355l-117 188c-13 20 -14 22 -36 22h-37v150h116c47 0 67 -11 87 -48l51 -93c25 -45 44 -90 44 -90h2s19 45 44 90l52 93c21 37 40 48 87 48h116v-150h-37c-22 0 -23 -2 -36 -22l-118 -188l217 -355h-199l-82 144c-25 45 -44 87 -44 87h-2s-19 -42 -44 -87
l-82 -144h-198z" />
    <glyph glyph-name="Y" unicode="Y" horiz-adv-x="633" 
d="M227 0v313l-152 230c-13 20 -14 22 -36 22h-29v150h98c44 0 68 -7 92 -48l73 -123c27 -46 43 -80 43 -80h2s16 34 43 80l72 123c24 41 48 48 92 48h98v-150h-29c-22 0 -23 -2 -36 -22l-152 -230v-313h-179z" />
    <glyph glyph-name="Z" unicode="Z" horiz-adv-x="633" 
d="M36 0v110l273 391c31 44 55 65 55 65v2s-23 -3 -55 -3h-88c-14 0 -22 -8 -22 -22v-39h-160v138c0 51 22 73 73 73h475v-108l-274 -393c-31 -44 -55 -65 -55 -65v-2s23 3 55 3h108c14 0 22 8 22 22v39h160v-138c0 -51 -22 -73 -73 -73h-494z" />
    <glyph glyph-name="bracketleft" unicode="[" horiz-adv-x="340" 
d="M64 -22v699c0 51 22 73 73 73h173v-120h-80c-14 0 -22 -8 -22 -22v-561c0 -14 8 -22 22 -22h80v-120h-173c-51 0 -73 22 -73 73z" />
    <glyph glyph-name="backslash" unicode="\" horiz-adv-x="456" 
d="M284 -42l-256 792h144l256 -792h-144z" />
    <glyph glyph-name="bracketright" unicode="]" horiz-adv-x="340" 
d="M30 25h80c14 0 22 8 22 22v561c0 14 -8 22 -22 22h-80v120h173c51 0 73 -22 73 -73v-699c0 -51 -22 -73 -73 -73h-173v120z" />
    <glyph glyph-name="asciicircum" unicode="^" horiz-adv-x="630" 
d="M58 241l203 474h107l203 -474h-145l-112 300l-111 -300h-145z" />
    <glyph glyph-name="underscore" unicode="_" horiz-adv-x="606" 
d="M5 0h596v-130h-596v130z" />
    <glyph glyph-name="grave" unicode="`" horiz-adv-x="430" 
d="M174 761l-118 150h157l81 -150h-120z" />
    <glyph glyph-name="a" unicode="a" horiz-adv-x="569" 
d="M20 144c0 163 220 177 299 177h7v9c0 49 -23 67 -66 67c-22 0 -45 -5 -45 -25v-23h-160v57c0 114 146 121 199 121c186 0 245 -88 245 -210v-150c0 -14 8 -22 22 -22h38v-145h-150c-50 0 -68 31 -68 54v9h-2s-44 -75 -150 -75c-97 0 -169 63 -169 156zM191 162
c0 -23 17 -45 49 -45c49 0 88 49 88 91v14h-19c-55 0 -118 -17 -118 -60z" />
    <glyph glyph-name="b" unicode="b" horiz-adv-x="619" 
d="M51 0v548c0 14 -8 22 -22 22h-38v145h160c51 0 73 -22 73 -73v-121c0 -26 -2 -44 -2 -44h2s48 50 139 50c140 0 232 -110 232 -270c0 -163 -103 -269 -240 -269c-95 0 -141 53 -141 53h-2s1 -13 1 -29v-12h-162zM219 254c0 -62 33 -123 101 -123c54 0 101 44 101 123
c0 77 -41 127 -101 127c-52 0 -101 -38 -101 -127z" />
    <glyph glyph-name="c" unicode="c" horiz-adv-x="546" 
d="M23 258c0 136 96 269 291 269c72 0 190 -28 190 -121v-71h-150v27c0 16 -19 22 -40 22c-73 0 -117 -55 -117 -124c0 -88 66 -123 130 -123c74 0 142 67 142 67l69 -116s-81 -100 -228 -100c-184 0 -287 128 -287 270z" />
    <glyph glyph-name="d" unicode="d" horiz-adv-x="646" 
d="M25 258c0 163 98 269 235 269c104 0 135 -36 135 -36h2s-1 10 -1 23v34c0 14 -8 22 -22 22h-38v145h160c51 0 73 -22 73 -73v-475c0 -14 8 -22 22 -22h38v-145h-154c-49 0 -67 25 -67 49v9h-2s-43 -70 -149 -70c-140 0 -232 110 -232 270zM199 258
c0 -77 41 -127 101 -127c52 0 101 38 101 127c0 62 -33 123 -101 123c-54 0 -101 -44 -101 -123z" />
    <glyph glyph-name="e" unicode="e" horiz-adv-x="556" 
d="M23 258c0 151 102 269 268 269c152 0 238 -106 238 -249c0 -18 -2 -36 -4 -54h-325c13 -63 65 -92 120 -92c51 0 100 24 142 52l64 -121c-56 -48 -141 -75 -220 -75c-184 0 -283 133 -283 270zM204 323h154c0 42 -27 77 -71 77c-50 0 -74 -36 -83 -77z" />
    <glyph glyph-name="f" unicode="f" horiz-adv-x="360" 
d="M79 0v380h-63v135h63v12c0 169 153 192 236 192c31 0 52 -3 52 -3v-146s-12 2 -28 2c-34 0 -87 -6 -87 -50v-7h95v-135h-95v-380h-173z" />
    <glyph glyph-name="g" unicode="g" horiz-adv-x="637" 
d="M124 -29c0 0 63 -33 144 -33c62 0 119 23 119 99v8c0 6 1 19 1 19h-2c-30 -33 -69 -49 -129 -49c-155 0 -232 127 -232 259c0 131 75 253 231 253c105 0 149 -60 149 -60h2v7c0 14 16 41 55 41h156v-145h-36c-13 0 -22 -7 -22 -19v-304c0 -188 -150 -257 -291 -257
c-69 0 -145 20 -195 46zM298 159c45 0 93 23 93 113c0 91 -48 111 -100 111c-61 0 -92 -44 -92 -103c0 -64 30 -121 99 -121z" />
    <glyph glyph-name="h" unicode="h" horiz-adv-x="639" 
d="M51 0v548c0 14 -8 22 -22 22h-38v145h160c51 0 73 -22 73 -73v-153c0 -26 -2 -44 -2 -44h2c29 51 89 82 157 82c104 0 185 -48 185 -193v-167c0 -14 8 -22 22 -22h38v-145h-160c-51 0 -73 22 -73 73v229c0 48 -19 68 -57 68c-53 0 -88 -31 -103 -76c-7 -20 -9 -42 -9 -66
v-228h-173z" />
    <glyph glyph-name="i" unicode="i" horiz-adv-x="329" 
d="M91 575v140h145v-140h-145zM78 73v275c0 14 -8 22 -22 22h-38v145h160c51 0 73 -22 73 -73v-275c0 -14 8 -22 22 -22h38v-145h-160c-51 0 -73 22 -73 73z" />
    <glyph glyph-name="j" unicode="j" horiz-adv-x="298" 
d="M88 575v140h145v-140h-145zM77 4v344c0 14 -8 22 -22 22h-38v145h160c51 0 73 -22 73 -73v-455c0 -173 -162 -195 -242 -195c-28 0 -46 3 -46 3v144s9 -1 22 -1c34 0 93 8 93 66z" />
    <glyph glyph-name="k" unicode="k" horiz-adv-x="580" 
d="M51 0v548c0 14 -8 22 -22 22h-38v145h160c51 0 73 -7 73 -58v-312h27c15 0 32 0 41 16l84 154h188l-117 -198c-19 -33 -38 -43 -38 -43v-2s21 -8 39 -43l33 -67c7 -14 18 -17 38 -17h40v-145h-131c-37 0 -57 6 -74 39l-74 144c-9 17 -28 17 -41 17h-15v-200h-173z" />
    <glyph glyph-name="l" unicode="l" horiz-adv-x="301" 
d="M50 73v475c0 14 -8 22 -22 22h-38v145h160c51 0 73 -22 73 -73v-475c0 -14 8 -22 22 -22h38v-145h-160c-51 0 -73 22 -73 73z" />
    <glyph glyph-name="m" unicode="m" horiz-adv-x="948" 
d="M78 0v348c0 14 -8 22 -22 22h-38v145h155c47 0 72 -23 72 -58v-7c0 -5 -1 -12 -1 -12h2c24 36 70 89 151 89c65 0 117 -29 144 -87h2c27 43 88 87 165 87c94 0 167 -51 167 -193v-167c0 -14 8 -22 22 -22h38v-145h-160c-51 0 -73 22 -73 73v232c0 38 -7 65 -40 65
c-52 0 -82 -42 -93 -99c-4 -18 -6 -37 -6 -58v-213h-173v305c0 38 -7 65 -40 65c-51 0 -80 -40 -92 -95c-4 -19 -7 -40 -7 -62v-213h-173z" />
    <glyph glyph-name="n" unicode="n" horiz-adv-x="666" 
d="M78 0v348c0 14 -8 22 -22 22h-38v145h154c47 0 72 -23 72 -58v-7c0 -5 -1 -12 -1 -12h2c24 40 72 89 163 89c104 0 185 -48 185 -193v-167c0 -14 8 -22 22 -22h38v-145h-160c-51 0 -73 22 -73 73v229c0 48 -19 68 -57 68c-54 0 -87 -30 -102 -74c-7 -20 -10 -43 -10 -68
v-228h-173z" />
    <glyph glyph-name="o" unicode="o" horiz-adv-x="628" 
d="M23 256c0 162 129 271 290 271c163 0 292 -109 292 -271c0 -161 -129 -268 -291 -268s-291 107 -291 268zM197 256c0 -77 54 -124 117 -124s117 47 117 124c0 78 -54 127 -117 127s-117 -49 -117 -127z" />
    <glyph glyph-name="p" unicode="p" horiz-adv-x="646" 
d="M78 -200v548c0 14 -8 22 -22 22h-38v145h149c50 0 67 -23 67 -45v-9h2s45 66 154 66c140 0 232 -110 232 -270c0 -163 -103 -269 -240 -269c-84 0 -131 44 -131 44h-2s2 -18 2 -44v-188h-173zM246 254c0 -62 33 -123 101 -123c54 0 101 44 101 123c0 77 -41 127 -101 127
c-52 0 -101 -38 -101 -127z" />
    <glyph glyph-name="q" unicode="q" horiz-adv-x="647" 
d="M25 258c0 163 98 269 235 269c111 0 152 -57 152 -57h2v6c0 20 20 39 69 39h146v-145h-38c-14 0 -22 -8 -22 -22v-548h-173v197c0 26 2 44 2 44h-2s-45 -53 -139 -53c-140 0 -232 110 -232 270zM199 258c0 -77 41 -127 101 -127c52 0 101 38 101 127
c0 62 -33 123 -101 123c-54 0 -101 -44 -101 -123z" />
    <glyph glyph-name="r" unicode="r" horiz-adv-x="444" 
d="M78 0v348c0 14 -8 22 -22 22h-38v145h153c47 0 73 -19 73 -66v-27c0 -16 -2 -26 -2 -26h2c22 70 87 128 164 128c10 0 20 -2 20 -2v-170s-14 3 -35 3c-41 0 -108 -13 -133 -90c-6 -19 -9 -42 -9 -70v-195h-173z" />
    <glyph glyph-name="s" unicode="s" horiz-adv-x="488" 
d="M23 82l77 111s72 -74 151 -74c25 0 39 7 39 25c0 43 -258 57 -258 224c0 111 103 159 212 159c84 0 200 -24 200 -117v-61h-150v25c0 14 -22 24 -47 24c-24 0 -46 -8 -46 -24c0 -53 261 -46 261 -219c0 -104 -91 -167 -211 -167c-148 0 -228 94 -228 94z" />
    <glyph glyph-name="t" unicode="t" horiz-adv-x="399" 
d="M81 190v190h-66v135h71v139h168v-139h108v-135h-108v-167c0 -58 59 -66 92 -66c14 0 23 1 23 1v-150s-19 -3 -47 -3c-82 0 -241 22 -241 195z" />
    <glyph glyph-name="u" unicode="u" horiz-adv-x="659" 
d="M72 181v167c0 14 -8 22 -22 22h-38v145h160c51 0 73 -22 73 -73v-229c0 -48 19 -68 55 -68c74 0 109 65 109 142v228h173v-348c0 -14 8 -22 22 -22h38v-145h-153c-47 0 -73 23 -73 58v7c0 5 1 12 1 12h-2c-28 -55 -91 -89 -160 -89c-102 0 -183 48 -183 193z" />
    <glyph glyph-name="v" unicode="v" horiz-adv-x="575" 
d="M182 0l-133 354c-4 11 -10 16 -22 16h-13v145h110c37 0 61 -15 70 -42l78 -232c11 -33 19 -83 19 -83h2s8 50 19 83l77 232c9 27 35 42 71 42h101v-145h-13c-12 0 -20 -5 -24 -16l-131 -354h-211z" />
    <glyph glyph-name="w" unicode="w" horiz-adv-x="848" 
d="M157 0l-104 354c-4 13 -10 16 -22 16h-15v145h128c38 0 60 -15 67 -49l52 -255c6 -28 6 -54 6 -54h2s2 26 9 54l71 302h148l71 -302c7 -28 8 -54 8 -54h2s0 26 6 54l52 255c7 34 28 49 66 49h128v-145h-15c-12 0 -17 -3 -22 -16l-104 -354h-197l-58 238
c-7 28 -10 55 -10 55h-2s-3 -27 -10 -55l-58 -238h-199z" />
    <glyph glyph-name="x" unicode="x" horiz-adv-x="559" 
d="M15 0l159 255l-65 100c-9 13 -12 15 -33 15h-49v145h129c36 0 57 -9 74 -42l33 -63c7 -13 15 -34 15 -34h2s9 21 16 34l33 63c17 33 38 42 74 42h129v-145h-49c-21 0 -24 -2 -33 -15l-65 -100l159 -255h-190l-62 106c-5 9 -12 26 -12 26h-2s-7 -17 -12 -26l-61 -106h-190
z" />
    <glyph glyph-name="y" unicode="y" horiz-adv-x="571" 
d="M58 -33c0 0 30 -33 71 -33c28 0 60 8 77 51l6 15l-163 354c-6 13 -10 16 -22 16h-19v145h126c29 0 50 -15 60 -42l76 -208c10 -28 19 -80 19 -80h2s9 52 17 80l57 208c7 27 34 42 61 42h129v-145h-19c-12 0 -19 -3 -24 -16l-156 -409c-44 -114 -133 -155 -215 -155
c-89 0 -145 55 -145 55z" />
    <glyph glyph-name="z" unicode="z" horiz-adv-x="549" 
d="M34 0v86l198 237c26 32 45 47 45 47v2s-13 -2 -45 -2h-19c-14 0 -22 -8 -22 -22v-21h-155v115c0 51 22 73 73 73h394v-87l-197 -237c-25 -31 -46 -47 -46 -47v-2s13 3 46 3h38c14 0 22 8 22 22v21h155v-115c0 -51 -22 -73 -73 -73h-414z" />
    <glyph glyph-name="braceleft" unicode="{" horiz-adv-x="380" 
d="M108 62v98c0 96 -85 96 -85 96v150s85 0 85 99v88c0 143 129 162 199 162c25 0 43 -2 43 -2v-124s-11 2 -25 2c-29 0 -73 -8 -73 -54v-117c0 -102 -84 -127 -84 -127v-2s84 -21 84 -126v-127c0 -46 44 -54 73 -54c14 0 25 2 25 2v-124s-18 -2 -43 -2
c-70 0 -199 19 -199 162z" />
    <glyph glyph-name="bar" unicode="|" horiz-adv-x="270" 
d="M63 -165v967h144v-967h-144z" />
    <glyph glyph-name="braceright" unicode="}" horiz-adv-x="380" 
d="M30 26c0 0 11 -2 25 -2c29 0 73 8 73 54v127c0 105 84 126 84 126v2s-84 25 -84 127v117c0 46 -44 54 -73 54c-14 0 -25 -2 -25 -2v124s18 2 43 2c70 0 199 -19 199 -162v-88c0 -99 85 -99 85 -99v-150s-85 0 -85 -96v-98c0 -143 -129 -162 -199 -162c-25 0 -43 2 -43 2
v124z" />
    <glyph glyph-name="asciitilde" unicode="~" horiz-adv-x="628" 
d="M49 191c0 134 58 203 174 203c93 0 120 -80 172 -80c32 0 55 25 55 76h133c0 -134 -58 -203 -173 -203c-93 0 -120 80 -173 80c-31 0 -54 -25 -54 -76h-134z" />
    <glyph glyph-name="exclamdown" unicode="&#xa1;" horiz-adv-x="282" 
d="M62 364v150h158v-150h-158zM51 -200l16 493h148l16 -493h-180z" />
    <glyph glyph-name="cent" unicode="&#xa2;" 
d="M252 -35v110c-118 27 -211 140 -211 283c0 142 93 256 211 283v109h114v-109c90 -20 162 -84 191 -172l-154 -60c-13 39 -44 75 -90 75c-47 0 -98 -50 -98 -126c0 -83 46 -126 98 -126c45 0 77 35 90 75l154 -60c-24 -68 -88 -157 -191 -172v-110h-114z" />
    <glyph glyph-name="sterling" unicode="&#xa3;" 
d="M47 0v150h55v149h-43v112h43v100c0 128 103 216 244 216c118 0 196 -83 196 -83l-97 -118s-46 44 -94 44c-38 0 -70 -25 -70 -64v-95h165v-112h-165v-149h93c14 0 22 8 22 22v39h160v-138c0 -51 -22 -73 -73 -73h-436z" />
    <glyph glyph-name="yen" unicode="&#xa5;" horiz-adv-x="640" 
d="M71 179v96h159v38l-26 39h-133v96h69v2l-62 93c-13 20 -14 22 -36 22h-29v150h98c44 0 68 -7 92 -48l73 -123c27 -46 43 -78 43 -78h2s16 32 43 78l72 123c24 41 48 48 92 48h98v-150h-29c-22 0 -23 -2 -36 -22l-62 -93v-2h68v-96h-132l-26 -39v-38h158v-96h-158v-179
h-179v179h-159z" />
    <glyph glyph-name="section" unicode="&#xa7;" horiz-adv-x="531" 
d="M144 179l-76 273c-7 26 -10 51 -10 75c0 114 77 200 231 200c133 0 207 -77 207 -77l-74 -108s-54 47 -131 47c-55 0 -98 -17 -98 -83c0 -19 3 -41 10 -67l72 -260h-131zM35 15l69 115s59 -55 137 -55c53 0 98 23 98 94c0 21 -4 46 -13 77l-68 240h131l74 -273
c7 -26 10 -51 10 -75c0 -114 -77 -200 -231 -200c-133 0 -207 77 -207 77z" />
    <glyph glyph-name="dieresis" unicode="&#xa8;" horiz-adv-x="522" 
d="M306 771v140h112v-140h-112zM103 771v140h112v-140h-112z" />
    <glyph glyph-name="copyright" unicode="&#xa9;" horiz-adv-x="798" 
d="M38 358c0 204 161 368 359 368c202 0 363 -164 363 -368s-161 -370 -363 -370c-198 0 -359 166 -359 370zM151 358c0 -149 107 -267 246 -267c142 0 251 118 251 267c0 148 -109 265 -251 265c-139 0 -246 -117 -246 -265zM227 355c0 106 80 187 172 187
c130 0 162 -115 162 -115l-100 -39s-14 49 -58 49c-30 0 -59 -33 -59 -82c0 -54 25 -82 59 -82c44 0 58 49 58 49l100 -39s-32 -115 -162 -115c-92 0 -172 81 -172 187z" />
    <glyph glyph-name="ordfeminine" unicode="&#xaa;" horiz-adv-x="448" 
d="M162 384c-54 0 -107 38 -107 107c0 85 108 103 170 103h14c-2 29 -10 37 -32 37c-9 0 -19 -3 -19 -11v-9h-112v46c0 60 94 68 131 68c114 0 151 -62 151 -136v-82c0 -10 4 -14 14 -14h23v-103h-85c-25 0 -50 5 -57 31l-2 7h-2s-29 -44 -87 -44zM196 475c24 0 38 21 44 47
h-7c-26 0 -58 -7 -58 -27c0 -12 5 -20 21 -20zM57 268v85h338v-85h-338z" />
    <glyph glyph-name="guillemotleft" unicode="&#xab;" horiz-adv-x="647" 
d="M290 282l164 206h158l-164 -206l164 -205h-158zM194 77l-164 205l164 206h158l-164 -206l164 -205h-158z" />
    <glyph glyph-name="logicalnot" unicode="&#xac;" horiz-adv-x="604" 
d="M40 337v130h506v-335h-135v205h-371z" />
    <glyph glyph-name="registered" unicode="&#xae;" horiz-adv-x="798" 
d="M38 358c0 204 161 368 359 368c202 0 363 -164 363 -368s-161 -370 -363 -370c-198 0 -359 166 -359 370zM151 358c0 -149 107 -267 246 -267c142 0 251 118 251 267c0 148 -109 265 -251 265c-139 0 -246 -117 -246 -265zM267 187v273h-29v74h192c75 0 122 -45 122 -115
c0 -56 -41 -84 -58 -89v-2s15 -3 25 -19l22 -37c7 -11 13 -12 18 -12h12v-73h-63c-25 0 -39 6 -50 26l-44 80c-6 12 -20 12 -31 12h-8v-118h-108zM375 377h27c26 0 40 15 40 42c0 28 -14 41 -38 41h-29v-83z" />
    <glyph glyph-name="macron" unicode="&#xaf;" horiz-adv-x="471" 
d="M97 782v107h275v-107h-275z" />
    <glyph glyph-name="degree" unicode="&#xb0;" horiz-adv-x="424" 
d="M212 385c-101 0 -181 76 -181 172c0 94 80 173 181 173c100 0 181 -79 181 -173c0 -96 -81 -172 -181 -172zM212 505c30 0 55 23 55 53c0 28 -25 52 -55 52s-55 -24 -55 -52c0 -30 25 -53 55 -53z" />
    <glyph glyph-name="plusminus" unicode="&#xb1;" 
d="M27 222v130h205v223h136v-223h205v-130h-205v-222h-136v222h-205zM37 -70h526v-130h-526v130z" />
    <glyph glyph-name="twosuperior" unicode="&#xb2;" horiz-adv-x="376" 
d="M72 268c-42 0 -55 10 -55 83c0 85 65 126 120 158c40 22 75 44 75 75c0 18 -14 26 -32 26c-22 0 -31 -11 -31 -21v-20h-115v59c0 66 92 96 149 96c75 0 156 -43 156 -138s-79 -135 -136 -165c-31 -16 -55 -30 -55 -40c0 -5 6 -5 13 -5h76c4 0 6 2 6 6v31h115v-92
c0 -37 -17 -53 -53 -53h-233z" />
    <glyph glyph-name="threesuperior" unicode="&#xb3;" horiz-adv-x="376" 
d="M188 260c-109 0 -177 102 -177 102l85 76s40 -61 90 -61c29 0 45 16 45 34s-15 31 -47 31h-35l-16 68l54 81c7 11 17 20 17 20v2s-14 -2 -27 -2h-26c-5 0 -7 -3 -7 -8v-21h-115v84c0 35 10 49 48 49h266v-86l-71 -93c69 -21 86 -87 86 -127c0 -96 -84 -149 -170 -149z
" />
    <glyph glyph-name="acute" unicode="&#xb4;" horiz-adv-x="430" 
d="M130 761l81 150h157l-118 -150h-120z" />
    <glyph glyph-name="mu" unicode="&#xb5;" horiz-adv-x="700" 
d="M97 -200v548c0 14 -8 22 -22 22h-38v145h160c51 0 73 -22 73 -73v-229c0 -48 19 -68 55 -68c74 0 109 65 109 142v228h173v-348c0 -14 8 -22 22 -22h38v-145h-154c-47 0 -72 23 -72 58v7c0 5 1 12 1 12h-3s-40 -89 -159 -89c-25 0 -42 4 -42 4h-2s8 -48 8 -88v-104h-147z
" />
    <glyph glyph-name="mu" unicode="&#x3bc;" horiz-adv-x="700" 
d="M97 -200v548c0 14 -8 22 -22 22h-38v145h160c51 0 73 -22 73 -73v-229c0 -48 19 -68 55 -68c74 0 109 65 109 142v228h173v-348c0 -14 8 -22 22 -22h38v-145h-154c-47 0 -72 23 -72 58v7c0 5 1 12 1 12h-3s-40 -89 -159 -89c-25 0 -42 4 -42 4h-2s8 -48 8 -88v-104h-147z
" />
    <glyph glyph-name="paragraph" unicode="&#xb6;" horiz-adv-x="670" 
d="M266 -50v291c-129 0 -233 104 -233 238s104 236 233 236h357v-150h-237v-615h-120zM448 -50v565h120v-565h-120z" />
    <glyph glyph-name="periodcentered" unicode="&#xb7;" horiz-adv-x="262" 
d="M52 213v164h158v-164h-158z" />
    <glyph glyph-name="cedilla" unicode="&#xb8;" horiz-adv-x="425" 
d="M131 -82l35 111l72 -17v-7l-10 -41c40 -4 75 -27 75 -80c0 -72 -60 -94 -117 -94c-38 0 -71 9 -71 9v87s23 -10 45 -10s38 7 38 23c0 17 -21 21 -41 21c-13 0 -26 -2 -26 -2z" />
    <glyph glyph-name="onesuperior" unicode="&#xb9;" horiz-adv-x="376" 
d="M48 268v108h90v149c0 19 1 30 1 30h-2s-3 -8 -9 -13l-25 -22l-72 79l124 116h109v-339h89v-108h-305z" />
    <glyph glyph-name="ordmasculine" unicode="&#xba;" horiz-adv-x="467" 
d="M233 385c-100 0 -182 68 -182 170s82 170 181 170c102 0 184 -68 184 -170s-82 -170 -183 -170zM233 488c34 0 63 25 63 67c0 41 -29 68 -63 68s-63 -27 -63 -68c0 -42 29 -67 63 -67zM64 268v85h338v-85h-338z" />
    <glyph glyph-name="guillemotright" unicode="&#xbb;" horiz-adv-x="647" 
d="M295 77l164 205l-164 206h158l164 -206l-164 -205h-158zM35 77l164 205l-164 206h158l164 -206l-164 -205h-158z" />
    <glyph glyph-name="onequarter" unicode="&#xbc;" horiz-adv-x="957" 
d="M305 0l261 715h127l-261 -715h-127zM56 268v108h90v149c0 19 1 30 1 30h-2s-3 -8 -9 -13l-25 -22l-72 79l124 116h109v-339h82v-108h-298zM550 101v71l150 276h159v-238h63v-109h-63v-101h-127v101h-182zM671 209c0 0 10 1 17 1h46v93c0 14 1 29 1 29h-2s-5 -16 -12 -29
l-37 -73c-6 -11 -13 -19 -13 -19v-2z" />
    <glyph glyph-name="onehalf" unicode="&#xbd;" horiz-adv-x="960" 
d="M289 0l261 715h127l-261 -715h-127zM54 268v108h90v149c0 19 1 30 1 30h-2s-3 -8 -9 -13l-25 -22l-72 79l124 116h109v-339h82v-108h-298zM583 83c0 85 65 126 120 158c40 22 75 44 75 75c0 18 -14 26 -32 26c-22 0 -31 -11 -31 -21v-20h-115v59c0 66 92 96 149 96
c75 0 156 -43 156 -138s-79 -135 -136 -165c-31 -16 -55 -30 -55 -40c0 -5 6 -5 13 -5h76c4 0 6 2 6 6v31h115v-92c0 -37 -17 -53 -53 -53h-233c-42 0 -55 10 -55 83z" />
    <glyph glyph-name="threequarters" unicode="&#xbe;" horiz-adv-x="958" 
d="M301 0l261 715h127l-261 -715h-127zM212 260c-109 0 -177 102 -177 102l85 76s40 -61 90 -61c29 0 45 16 45 34s-15 31 -47 31h-35l-16 68l54 81c7 11 17 20 17 20v2s-14 -2 -27 -2h-26c-5 0 -7 -3 -7 -8v-21h-115v84c0 35 10 49 48 49h266v-86l-71 -93
c69 -21 86 -87 86 -127c0 -96 -84 -149 -170 -149zM551 101v71l150 276h159v-238h63v-109h-63v-101h-127v101h-182zM672 209c0 0 10 1 17 1h46v93c0 14 1 29 1 29h-2s-5 -16 -12 -29l-37 -73c-6 -11 -13 -19 -13 -19v-2z" />
    <glyph glyph-name="questiondown" unicode="&#xbf;" horiz-adv-x="502" 
d="M208 365v150h158v-150h-158zM33 -14c0 164 171 188 171 277v31h166v-45c0 -135 -157 -159 -157 -243c0 -34 33 -59 71 -59c48 0 95 43 95 43l96 -117s-75 -83 -209 -83c-112 0 -233 67 -233 196z" />
    <glyph glyph-name="Agrave" unicode="&#xc0;" horiz-adv-x="690" 
d="M11 0v150h19c16 0 21 5 27 22l195 543h186l195 -543c6 -17 11 -22 27 -22h19v-150h-115c-50 0 -70 15 -84 58l-31 92h-208l-31 -92c-14 -43 -34 -58 -84 -58h-115zM279 295h132l-36 119c-14 45 -29 118 -29 118h-2s-15 -73 -29 -118zM282 761l-118 150h157l81 -150h-120z
" />
    <glyph glyph-name="Aacute" unicode="&#xc1;" horiz-adv-x="690" 
d="M11 0v150h19c16 0 21 5 27 22l195 543h186l195 -543c6 -17 11 -22 27 -22h19v-150h-115c-50 0 -70 15 -84 58l-31 92h-208l-31 -92c-14 -43 -34 -58 -84 -58h-115zM279 295h132l-36 119c-14 45 -29 118 -29 118h-2s-15 -73 -29 -118zM282 761l81 150h157l-118 -150h-120z
" />
    <glyph glyph-name="Acircumflex" unicode="&#xc2;" horiz-adv-x="690" 
d="M11 0v150h19c16 0 21 5 27 22l195 543h186l195 -543c6 -17 11 -22 27 -22h19v-150h-115c-50 0 -70 15 -84 58l-31 92h-208l-31 -92c-14 -43 -34 -58 -84 -58h-115zM279 295h132l-36 119c-14 45 -29 118 -29 118h-2s-15 -73 -29 -118zM177 761l98 150h140l99 -150h-121
l-47 82h-2l-47 -82h-120z" />
    <glyph glyph-name="Atilde" unicode="&#xc3;" horiz-adv-x="690" 
d="M11 0v150h19c16 0 21 5 27 22l195 543h186l195 -543c6 -17 11 -22 27 -22h19v-150h-115c-50 0 -70 15 -84 58l-31 92h-208l-31 -92c-14 -43 -34 -58 -84 -58h-115zM279 295h132l-36 119c-14 45 -29 118 -29 118h-2s-15 -73 -29 -118zM144 761c0 101 44 153 131 153
c70 0 90 -60 130 -60c24 0 41 19 41 57h101c0 -101 -44 -153 -131 -153c-70 0 -90 60 -130 60c-24 0 -41 -19 -41 -57h-101z" />
    <glyph glyph-name="Adieresis" unicode="&#xc4;" horiz-adv-x="690" 
d="M11 0v150h19c16 0 21 5 27 22l195 543h186l195 -543c6 -17 11 -22 27 -22h19v-150h-115c-50 0 -70 15 -84 58l-31 92h-208l-31 -92c-14 -43 -34 -58 -84 -58h-115zM279 295h132l-36 119c-14 45 -29 118 -29 118h-2s-15 -73 -29 -118zM391 771v140h112v-140h-112zM188 771
v140h112v-140h-112z" />
    <glyph glyph-name="Aring" unicode="&#xc5;" horiz-adv-x="690" 
d="M11 0v150h19c16 0 21 5 27 22l195 543h186l195 -543c6 -17 11 -22 27 -22h19v-150h-115c-50 0 -70 15 -84 58l-31 92h-208l-31 -92c-14 -43 -34 -58 -84 -58h-115zM279 295h132l-36 119c-14 45 -29 118 -29 118h-2s-15 -73 -29 -118zM345 747c-49 0 -101 26 -101 85
s52 86 101 86s102 -27 102 -86s-53 -85 -102 -85zM345 797c21 0 37 14 37 35c0 22 -16 36 -37 36c-20 0 -36 -14 -36 -36c0 -21 15 -35 36 -35z" />
    <glyph glyph-name="AE" unicode="&#xc6;" horiz-adv-x="957" 
d="M10 0v150h19c16 0 20 5 27 22l235 543h538c51 0 73 -22 73 -73v-138h-160v39c0 14 -8 22 -22 22h-97v-130h204v-150h-204v-113c0 -14 8 -22 22 -22h99c14 0 22 8 22 22v39h160v-138c0 -51 -22 -73 -73 -73h-337c-51 0 -73 22 -73 73v212h-159l-85 -227
c-16 -42 -34 -58 -84 -58h-105zM341 435h102v130h-53z" />
    <glyph glyph-name="Ccedilla" unicode="&#xc7;" horiz-adv-x="710" 
d="M314 -82l23 74c-192 25 -312 177 -312 373c0 205 157 362 370 362c85 0 274 -33 274 -167v-94h-160v39c0 41 -64 57 -110 57c-104 0 -188 -67 -188 -197c0 -117 84 -212 189 -212c127 0 207 90 207 90l91 -127s-98 -118 -281 -127l-6 -25c40 -4 75 -27 75 -80
c0 -72 -60 -94 -117 -94c-38 0 -71 9 -71 9v87s23 -10 45 -10s38 7 38 23c0 17 -21 21 -41 21c-13 0 -26 -2 -26 -2z" />
    <glyph glyph-name="Egrave" unicode="&#xc8;" horiz-adv-x="601" 
d="M88 73v492h-65v150h450c51 0 73 -22 73 -73v-138h-160v39c0 14 -8 22 -22 22h-97v-130h204v-150h-204v-113c0 -14 8 -22 22 -22h99c14 0 22 8 22 22v39h160v-138c0 -51 -22 -73 -73 -73h-336c-51 0 -73 22 -73 73zM231 761l-118 150h157l81 -150h-120z" />
    <glyph glyph-name="Eacute" unicode="&#xc9;" horiz-adv-x="601" 
d="M88 73v492h-65v150h450c51 0 73 -22 73 -73v-138h-160v39c0 14 -8 22 -22 22h-97v-130h204v-150h-204v-113c0 -14 8 -22 22 -22h99c14 0 22 8 22 22v39h160v-138c0 -51 -22 -73 -73 -73h-336c-51 0 -73 22 -73 73zM231 761l81 150h157l-118 -150h-120z" />
    <glyph glyph-name="Ecircumflex" unicode="&#xca;" horiz-adv-x="601" 
d="M88 73v492h-65v150h450c51 0 73 -22 73 -73v-138h-160v39c0 14 -8 22 -22 22h-97v-130h204v-150h-204v-113c0 -14 8 -22 22 -22h99c14 0 22 8 22 22v39h160v-138c0 -51 -22 -73 -73 -73h-336c-51 0 -73 22 -73 73zM126 761l98 150h140l99 -150h-121l-47 82h-2l-47 -82
h-120z" />
    <glyph glyph-name="Edieresis" unicode="&#xcb;" horiz-adv-x="601" 
d="M88 73v492h-65v150h450c51 0 73 -22 73 -73v-138h-160v39c0 14 -8 22 -22 22h-97v-130h204v-150h-204v-113c0 -14 8 -22 22 -22h99c14 0 22 8 22 22v39h160v-138c0 -51 -22 -73 -73 -73h-336c-51 0 -73 22 -73 73zM340 771v140h112v-140h-112zM137 771v140h112v-140h-112
z" />
    <glyph glyph-name="Igrave" unicode="&#xcc;" horiz-adv-x="399" 
d="M40 0v150h75v415h-75v150h319v-150h-75v-415h75v-150h-319zM136 761l-118 150h157l81 -150h-120z" />
    <glyph glyph-name="Iacute" unicode="&#xcd;" horiz-adv-x="399" 
d="M40 0v150h75v415h-75v150h319v-150h-75v-415h75v-150h-319zM136 761l81 150h157l-118 -150h-120z" />
    <glyph glyph-name="Icircumflex" unicode="&#xce;" horiz-adv-x="399" 
d="M40 0v150h75v415h-75v150h319v-150h-75v-415h75v-150h-319zM31 761l98 150h140l99 -150h-121l-47 82h-2l-47 -82h-120z" />
    <glyph glyph-name="Idieresis" unicode="&#xcf;" horiz-adv-x="399" 
d="M40 0v150h75v415h-75v150h319v-150h-75v-415h75v-150h-319zM245 771v140h112v-140h-112zM42 771v140h112v-140h-112z" />
    <glyph glyph-name="Eth" unicode="&#xd0;" horiz-adv-x="716" 
d="M90 73v211h-47v140h47v141h-65v150h294c225 0 369 -131 369 -356s-144 -359 -369 -359h-156c-51 0 -73 22 -73 73zM269 172c0 -14 8 -22 22 -22h21c118 0 190 72 190 209c0 136 -75 206 -190 206h-43v-141h90v-140h-90v-112z" />
    <glyph glyph-name="Ntilde" unicode="&#xd1;" horiz-adv-x="770" 
d="M24 0v150h43c14 0 22 8 22 22v543h161l198 -307c30 -46 60 -107 60 -107h2s-8 62 -8 107v234c0 51 22 73 73 73h171v-150h-43c-14 0 -22 -8 -22 -22v-543h-160l-199 306c-30 45 -60 107 -60 107h-2s8 -62 8 -107v-233c0 -51 -22 -73 -73 -73h-171zM191 761
c0 101 44 153 131 153c70 0 90 -60 130 -60c24 0 41 19 41 57h101c0 -101 -44 -153 -131 -153c-70 0 -90 60 -130 60c-24 0 -41 -19 -41 -57h-101z" />
    <glyph glyph-name="Ograve" unicode="&#xd2;" horiz-adv-x="796" 
d="M24 362c0 205 158 365 374 365s374 -160 374 -365c0 -210 -158 -374 -374 -374s-374 164 -374 374zM210 362c0 -119 84 -209 188 -209s188 90 188 209c0 114 -84 200 -188 200s-188 -86 -188 -200zM333 761l-118 150h157l81 -150h-120z" />
    <glyph glyph-name="Oacute" unicode="&#xd3;" horiz-adv-x="796" 
d="M24 362c0 205 158 365 374 365s374 -160 374 -365c0 -210 -158 -374 -374 -374s-374 164 -374 374zM210 362c0 -119 84 -209 188 -209s188 90 188 209c0 114 -84 200 -188 200s-188 -86 -188 -200zM333 761l81 150h157l-118 -150h-120z" />
    <glyph glyph-name="Ocircumflex" unicode="&#xd4;" horiz-adv-x="796" 
d="M24 362c0 205 158 365 374 365s374 -160 374 -365c0 -210 -158 -374 -374 -374s-374 164 -374 374zM210 362c0 -119 84 -209 188 -209s188 90 188 209c0 114 -84 200 -188 200s-188 -86 -188 -200zM228 761l98 150h140l99 -150h-121l-47 82h-2l-47 -82h-120z" />
    <glyph glyph-name="Otilde" unicode="&#xd5;" horiz-adv-x="796" 
d="M24 362c0 205 158 365 374 365s374 -160 374 -365c0 -210 -158 -374 -374 -374s-374 164 -374 374zM210 362c0 -119 84 -209 188 -209s188 90 188 209c0 114 -84 200 -188 200s-188 -86 -188 -200zM195 761c0 101 44 153 131 153c70 0 90 -60 130 -60c24 0 41 19 41 57
h101c0 -101 -44 -153 -131 -153c-70 0 -90 60 -130 60c-24 0 -41 -19 -41 -57h-101z" />
    <glyph glyph-name="Odieresis" unicode="&#xd6;" horiz-adv-x="796" 
d="M24 362c0 205 158 365 374 365s374 -160 374 -365c0 -210 -158 -374 -374 -374s-374 164 -374 374zM210 362c0 -119 84 -209 188 -209s188 90 188 209c0 114 -84 200 -188 200s-188 -86 -188 -200zM442 771v140h112v-140h-112zM239 771v140h112v-140h-112z" />
    <glyph glyph-name="multiply" unicode="&#xd7;" 
d="M28 92l182 195l-182 196l92 92l179 -192l180 192l92 -92l-183 -196l183 -195l-92 -92l-180 192l-179 -192z" />
    <glyph glyph-name="Oslash" unicode="&#xd8;" horiz-adv-x="796" 
d="M103 20l43 60c-76 68 -122 168 -122 282c0 205 158 365 374 365c68 0 131 -16 184 -45l44 61l70 -47l-44 -61c75 -67 120 -164 120 -273c0 -210 -158 -374 -374 -374c-67 0 -129 16 -182 44l-43 -60zM253 227l228 315c-25 13 -53 20 -83 20c-104 0 -188 -86 -188 -200
c0 -52 16 -99 43 -135zM317 172c25 -13 52 -19 81 -19c104 0 188 90 188 209c0 48 -15 91 -41 125z" />
    <glyph glyph-name="Ugrave" unicode="&#xd9;" horiz-adv-x="754" 
d="M83 263v280c0 14 -8 22 -22 22h-43v150h171c51 0 73 -22 73 -73v-374c0 -75 47 -115 115 -115s115 40 115 115v374c0 51 22 73 73 73h171v-150h-43c-14 0 -22 -8 -22 -22v-280c0 -161 -116 -275 -293 -275c-179 0 -295 114 -295 275zM314 761l-118 150h157l81 -150h-120z
" />
    <glyph glyph-name="Uacute" unicode="&#xda;" horiz-adv-x="754" 
d="M83 263v280c0 14 -8 22 -22 22h-43v150h171c51 0 73 -22 73 -73v-374c0 -75 47 -115 115 -115s115 40 115 115v374c0 51 22 73 73 73h171v-150h-43c-14 0 -22 -8 -22 -22v-280c0 -161 -116 -275 -293 -275c-179 0 -295 114 -295 275zM314 761l81 150h157l-118 -150h-120z
" />
    <glyph glyph-name="Ucircumflex" unicode="&#xdb;" horiz-adv-x="754" 
d="M83 263v280c0 14 -8 22 -22 22h-43v150h171c51 0 73 -22 73 -73v-374c0 -75 47 -115 115 -115s115 40 115 115v374c0 51 22 73 73 73h171v-150h-43c-14 0 -22 -8 -22 -22v-280c0 -161 -116 -275 -293 -275c-179 0 -295 114 -295 275zM209 761l98 150h140l99 -150h-121
l-47 82h-2l-47 -82h-120z" />
    <glyph glyph-name="Udieresis" unicode="&#xdc;" horiz-adv-x="754" 
d="M83 263v280c0 14 -8 22 -22 22h-43v150h171c51 0 73 -22 73 -73v-374c0 -75 47 -115 115 -115s115 40 115 115v374c0 51 22 73 73 73h171v-150h-43c-14 0 -22 -8 -22 -22v-280c0 -161 -116 -275 -293 -275c-179 0 -295 114 -295 275zM423 771v140h112v-140h-112zM220 771
v140h112v-140h-112z" />
    <glyph glyph-name="Yacute" unicode="&#xdd;" horiz-adv-x="633" 
d="M227 0v313l-152 230c-13 20 -14 22 -36 22h-29v150h98c44 0 68 -7 92 -48l73 -123c27 -46 43 -80 43 -80h2s16 34 43 80l72 123c24 41 48 48 92 48h98v-150h-29c-22 0 -23 -2 -36 -22l-152 -230v-313h-179zM254 761l81 150h157l-118 -150h-120z" />
    <glyph glyph-name="Thorn" unicode="&#xde;" horiz-adv-x="613" 
d="M89 0v543c0 14 -8 22 -22 22h-43v150h171c51 0 73 -22 73 -73v-33h103c139 0 233 -102 233 -246s-94 -248 -233 -248h-103v-115h-179zM268 265h67c58 0 86 41 86 98s-28 96 -83 96h-70v-194z" />
    <glyph glyph-name="germandbls" unicode="&#xdf;" horiz-adv-x="642" 
d="M24 0v145h30c14 0 22 8 22 22v360c0 132 125 200 255 200c121 0 231 -77 231 -193c0 -81 -72 -105 -72 -160c0 -50 134 -81 134 -211c0 -117 -92 -175 -194 -175c-96 0 -141 29 -141 29l31 134s39 -19 81 -19c26 0 50 9 50 42c0 47 -135 82 -135 196c0 74 72 108 72 160
c0 31 -23 53 -62 53c-41 0 -77 -16 -77 -68v-442c0 -51 -22 -73 -73 -73h-152z" />
    <glyph glyph-name="agrave" unicode="&#xe0;" horiz-adv-x="569" 
d="M20 144c0 163 220 177 299 177h7v9c0 49 -23 67 -66 67c-22 0 -45 -5 -45 -25v-23h-160v57c0 114 146 121 199 121c186 0 245 -88 245 -210v-150c0 -14 8 -22 22 -22h38v-145h-150c-50 0 -68 31 -68 54v9h-2s-44 -75 -150 -75c-97 0 -169 63 -169 156zM209 565l-118 150
h157l81 -150h-120zM191 162c0 -23 17 -45 49 -45c49 0 88 49 88 91v14h-19c-55 0 -118 -17 -118 -60z" />
    <glyph glyph-name="aacute" unicode="&#xe1;" horiz-adv-x="569" 
d="M20 144c0 163 220 177 299 177h7v9c0 49 -23 67 -66 67c-22 0 -45 -5 -45 -25v-23h-160v57c0 114 146 121 199 121c186 0 245 -88 245 -210v-150c0 -14 8 -22 22 -22h38v-145h-150c-50 0 -68 31 -68 54v9h-2s-44 -75 -150 -75c-97 0 -169 63 -169 156zM209 565l81 150
h157l-118 -150h-120zM191 162c0 -23 17 -45 49 -45c49 0 88 49 88 91v14h-19c-55 0 -118 -17 -118 -60z" />
    <glyph glyph-name="acircumflex" unicode="&#xe2;" horiz-adv-x="569" 
d="M20 144c0 163 220 177 299 177h7v9c0 49 -23 67 -66 67c-22 0 -45 -5 -45 -25v-23h-160v57c0 114 146 121 199 121c186 0 245 -88 245 -210v-150c0 -14 8 -22 22 -22h38v-145h-150c-50 0 -68 31 -68 54v9h-2s-44 -75 -150 -75c-97 0 -169 63 -169 156zM104 565l98 150
h140l99 -150h-121l-47 82h-2l-47 -82h-120zM191 162c0 -23 17 -45 49 -45c49 0 88 49 88 91v14h-19c-55 0 -118 -17 -118 -60z" />
    <glyph glyph-name="atilde" unicode="&#xe3;" horiz-adv-x="569" 
d="M20 144c0 163 220 177 299 177h7v9c0 49 -23 67 -66 67c-22 0 -45 -5 -45 -25v-23h-160v57c0 114 146 121 199 121c186 0 245 -88 245 -210v-150c0 -14 8 -22 22 -22h38v-145h-150c-50 0 -68 31 -68 54v9h-2s-44 -75 -150 -75c-97 0 -169 63 -169 156zM71 565
c0 101 44 153 131 153c70 0 90 -60 130 -60c24 0 41 19 41 57h101c0 -101 -44 -153 -131 -153c-70 0 -90 60 -130 60c-24 0 -41 -19 -41 -57h-101zM191 162c0 -23 17 -45 49 -45c49 0 88 49 88 91v14h-19c-55 0 -118 -17 -118 -60z" />
    <glyph glyph-name="adieresis" unicode="&#xe4;" horiz-adv-x="569" 
d="M20 144c0 163 220 177 299 177h7v9c0 49 -23 67 -66 67c-22 0 -45 -5 -45 -25v-23h-160v57c0 114 146 121 199 121c186 0 245 -88 245 -210v-150c0 -14 8 -22 22 -22h38v-145h-150c-50 0 -68 31 -68 54v9h-2s-44 -75 -150 -75c-97 0 -169 63 -169 156zM115 575v140h112
v-140h-112zM318 575v140h112v-140h-112zM191 162c0 -23 17 -45 49 -45c49 0 88 49 88 91v14h-19c-55 0 -118 -17 -118 -60z" />
    <glyph glyph-name="aring" unicode="&#xe5;" horiz-adv-x="569" 
d="M20 144c0 163 220 177 299 177h7v9c0 49 -23 67 -66 67c-22 0 -45 -5 -45 -25v-23h-160v57c0 114 146 121 199 121c186 0 245 -88 245 -210v-150c0 -14 8 -22 22 -22h38v-145h-150c-50 0 -68 31 -68 54v9h-2s-44 -75 -150 -75c-97 0 -169 63 -169 156zM272 551
c-49 0 -101 26 -101 85s52 86 101 86s102 -27 102 -86s-53 -85 -102 -85zM191 162c0 -23 17 -45 49 -45c49 0 88 49 88 91v14h-19c-55 0 -118 -17 -118 -60zM272 601c21 0 37 14 37 35c0 22 -16 36 -37 36c-20 0 -36 -14 -36 -36c0 -21 15 -35 36 -35z" />
    <glyph glyph-name="ae" unicode="&#xe6;" horiz-adv-x="846" 
d="M19 153c0 149 210 170 293 170h14v11c0 49 -29 63 -67 63c-22 0 -45 -5 -45 -25v-23h-160v57c0 103 118 121 205 121c80 0 131 -19 167 -51h2c39 32 88 51 154 51c143 0 238 -108 238 -254c0 -15 -4 -49 -4 -49h-325c13 -69 65 -92 120 -92c74 0 137 54 137 54l69 -116
s-83 -82 -220 -82c-99 0 -162 35 -207 90h-2c-13 -23 -71 -89 -193 -89c-96 0 -176 63 -176 164zM496 323h147c0 34 -23 74 -61 74c-50 0 -75 -33 -86 -74zM193 163c0 -24 16 -43 52 -43c47 0 84 50 84 92v12h-17c-55 0 -119 -16 -119 -61z" />
    <glyph glyph-name="ccedilla" unicode="&#xe7;" horiz-adv-x="548" 
d="M23 258c0 136 96 269 291 269c72 0 190 -28 190 -121v-71h-150v27c0 16 -19 22 -40 22c-73 0 -117 -55 -117 -124c0 -88 66 -123 130 -123c74 0 142 67 142 67l69 -116s-79 -97 -221 -100l-6 -24c40 -4 75 -27 75 -80c0 -72 -60 -94 -117 -94c-38 0 -71 9 -71 9v87
s23 -10 45 -10s38 7 38 23c0 17 -21 21 -41 21c-13 0 -26 -2 -26 -2l24 78c-139 28 -215 139 -215 262z" />
    <glyph glyph-name="egrave" unicode="&#xe8;" horiz-adv-x="556" 
d="M23 258c0 151 102 269 268 269c152 0 238 -106 238 -249c0 -18 -2 -36 -4 -54h-325c13 -63 65 -92 120 -92c51 0 100 24 142 52l64 -121c-56 -48 -141 -75 -220 -75c-184 0 -283 133 -283 270zM204 323h154c0 42 -27 77 -71 77c-50 0 -74 -36 -83 -77zM220 565l-118 150
h157l81 -150h-120z" />
    <glyph glyph-name="eacute" unicode="&#xe9;" horiz-adv-x="556" 
d="M23 258c0 151 102 269 268 269c152 0 238 -106 238 -249c0 -18 -2 -36 -4 -54h-325c13 -63 65 -92 120 -92c51 0 100 24 142 52l64 -121c-56 -48 -141 -75 -220 -75c-184 0 -283 133 -283 270zM204 323h154c0 42 -27 77 -71 77c-50 0 -74 -36 -83 -77zM220 565l81 150
h157l-118 -150h-120z" />
    <glyph glyph-name="ecircumflex" unicode="&#xea;" horiz-adv-x="556" 
d="M23 258c0 151 102 269 268 269c152 0 238 -106 238 -249c0 -18 -2 -36 -4 -54h-325c13 -63 65 -92 120 -92c51 0 100 24 142 52l64 -121c-56 -48 -141 -75 -220 -75c-184 0 -283 133 -283 270zM204 323h154c0 42 -27 77 -71 77c-50 0 -74 -36 -83 -77zM115 565l98 150
h140l99 -150h-121l-47 82h-2l-47 -82h-120z" />
    <glyph glyph-name="edieresis" unicode="&#xeb;" horiz-adv-x="556" 
d="M23 258c0 151 102 269 268 269c152 0 238 -106 238 -249c0 -18 -2 -36 -4 -54h-325c13 -63 65 -92 120 -92c51 0 100 24 142 52l64 -121c-56 -48 -141 -75 -220 -75c-184 0 -283 133 -283 270zM204 323h154c0 42 -27 77 -71 77c-50 0 -74 -36 -83 -77zM329 575v140h112
v-140h-112zM126 575v140h112v-140h-112z" />
    <glyph glyph-name="igrave" unicode="&#xec;" horiz-adv-x="329" 
d="M93 565l-118 150h157l81 -150h-120zM78 73v275c0 14 -8 22 -22 22h-38v145h160c51 0 73 -22 73 -73v-275c0 -14 8 -22 22 -22h38v-145h-160c-51 0 -73 22 -73 73z" />
    <glyph glyph-name="iacute" unicode="&#xed;" horiz-adv-x="329" 
d="M93 565l81 150h157l-118 -150h-120zM78 73v275c0 14 -8 22 -22 22h-38v145h160c51 0 73 -22 73 -73v-275c0 -14 8 -22 22 -22h38v-145h-160c-51 0 -73 22 -73 73z" />
    <glyph glyph-name="icircumflex" unicode="&#xee;" horiz-adv-x="329" 
d="M-12 565l98 150h140l99 -150h-121l-47 82h-2l-47 -82h-120zM78 73v275c0 14 -8 22 -22 22h-38v145h160c51 0 73 -22 73 -73v-275c0 -14 8 -22 22 -22h38v-145h-160c-51 0 -73 22 -73 73z" />
    <glyph glyph-name="idieresis" unicode="&#xef;" horiz-adv-x="329" 
d="M187 575v140h112v-140h-112zM9 575v140h112v-140h-112zM78 73v275c0 14 -8 22 -22 22h-38v145h160c51 0 73 -22 73 -73v-275c0 -14 8 -22 22 -22h38v-145h-160c-51 0 -73 22 -73 73z" />
    <glyph glyph-name="eth" unicode="&#xf0;" horiz-adv-x="574" 
d="M23 241c0 116 87 223 231 223c39 0 69 -9 69 -9h2c-14 21 -40 46 -70 63l-192 -79v95l92 39c-33 14 -68 25 -95 30l48 135c86 -18 165 -48 232 -89l161 67v-95l-81 -34c79 -76 127 -177 127 -304c0 -138 -69 -295 -270 -295c-162 0 -254 123 -254 253zM197 236
c0 -53 22 -104 83 -104c69 0 93 61 93 118c0 48 -30 82 -83 82c-63 0 -93 -45 -93 -96z" />
    <glyph glyph-name="ntilde" unicode="&#xf1;" horiz-adv-x="666" 
d="M78 0v348c0 14 -8 22 -22 22h-38v145h154c47 0 72 -23 72 -58v-7c0 -5 -1 -12 -1 -12h2c24 40 72 89 163 89c104 0 185 -48 185 -193v-167c0 -14 8 -22 22 -22h38v-145h-160c-51 0 -73 22 -73 73v229c0 48 -19 68 -57 68c-54 0 -87 -30 -102 -74c-7 -20 -10 -43 -10 -68
v-228h-173zM137 565c0 101 44 153 131 153c70 0 90 -60 130 -60c24 0 41 19 41 57h101c0 -101 -44 -153 -131 -153c-70 0 -90 60 -130 60c-24 0 -41 -19 -41 -57h-101z" />
    <glyph glyph-name="ograve" unicode="&#xf2;" horiz-adv-x="628" 
d="M23 256c0 162 129 271 290 271c163 0 292 -109 292 -271c0 -161 -129 -268 -291 -268s-291 107 -291 268zM197 256c0 -77 54 -124 117 -124s117 47 117 124c0 78 -54 127 -117 127s-117 -49 -117 -127zM251 565l-118 150h157l81 -150h-120z" />
    <glyph glyph-name="oacute" unicode="&#xf3;" horiz-adv-x="628" 
d="M23 256c0 162 129 271 290 271c163 0 292 -109 292 -271c0 -161 -129 -268 -291 -268s-291 107 -291 268zM197 256c0 -77 54 -124 117 -124s117 47 117 124c0 78 -54 127 -117 127s-117 -49 -117 -127zM251 565l81 150h157l-118 -150h-120z" />
    <glyph glyph-name="ocircumflex" unicode="&#xf4;" horiz-adv-x="628" 
d="M23 256c0 162 129 271 290 271c163 0 292 -109 292 -271c0 -161 -129 -268 -291 -268s-291 107 -291 268zM197 256c0 -77 54 -124 117 -124s117 47 117 124c0 78 -54 127 -117 127s-117 -49 -117 -127zM146 565l98 150h140l99 -150h-121l-47 82h-2l-47 -82h-120z" />
    <glyph glyph-name="otilde" unicode="&#xf5;" horiz-adv-x="628" 
d="M23 256c0 162 129 271 290 271c163 0 292 -109 292 -271c0 -161 -129 -268 -291 -268s-291 107 -291 268zM197 256c0 -77 54 -124 117 -124s117 47 117 124c0 78 -54 127 -117 127s-117 -49 -117 -127zM113 565c0 101 44 153 131 153c70 0 90 -60 130 -60
c24 0 41 19 41 57h101c0 -101 -44 -153 -131 -153c-70 0 -90 60 -130 60c-24 0 -41 -19 -41 -57h-101z" />
    <glyph glyph-name="odieresis" unicode="&#xf6;" horiz-adv-x="628" 
d="M23 256c0 162 129 271 290 271c163 0 292 -109 292 -271c0 -161 -129 -268 -291 -268s-291 107 -291 268zM197 256c0 -77 54 -124 117 -124s117 47 117 124c0 78 -54 127 -117 127s-117 -49 -117 -127zM360 575v140h112v-140h-112zM157 575v140h112v-140h-112z" />
    <glyph glyph-name="divide" unicode="&#xf7;" 
d="M227 440v135h146v-135h-146zM27 222v130h546v-130h-546zM227 0v135h146v-135h-146z" />
    <glyph glyph-name="oslash" unicode="&#xf8;" horiz-adv-x="628" 
d="M82 -4l39 54c-60 47 -98 119 -98 206c0 162 129 271 290 271c48 0 93 -10 132 -27l43 59l66 -45l-41 -56c57 -48 92 -118 92 -202c0 -161 -129 -268 -291 -268c-44 0 -86 8 -123 22l-43 -60zM217 183l138 192c-13 5 -27 8 -41 8c-63 0 -117 -49 -117 -127
c0 -29 7 -53 20 -73zM282 136c10 -3 21 -4 32 -4c63 0 117 47 117 124c0 25 -6 47 -16 65z" />
    <glyph glyph-name="ugrave" unicode="&#xf9;" horiz-adv-x="660" 
d="M73 181v167c0 14 -8 22 -22 22h-38v145h160c51 0 73 -22 73 -73v-229c0 -48 19 -68 55 -68c74 0 109 65 109 142v228h173v-348c0 -14 8 -22 22 -22h38v-145h-153c-47 0 -73 23 -73 58v7c0 5 1 12 1 12h-2c-28 -55 -91 -89 -160 -89c-102 0 -183 48 -183 193zM260 565
l-118 150h157l81 -150h-120z" />
    <glyph glyph-name="uacute" unicode="&#xfa;" horiz-adv-x="660" 
d="M73 181v167c0 14 -8 22 -22 22h-38v145h160c51 0 73 -22 73 -73v-229c0 -48 19 -68 55 -68c74 0 109 65 109 142v228h173v-348c0 -14 8 -22 22 -22h38v-145h-153c-47 0 -73 23 -73 58v7c0 5 1 12 1 12h-2c-28 -55 -91 -89 -160 -89c-102 0 -183 48 -183 193zM260 565
l81 150h157l-118 -150h-120z" />
    <glyph glyph-name="ucircumflex" unicode="&#xfb;" horiz-adv-x="660" 
d="M73 181v167c0 14 -8 22 -22 22h-38v145h160c51 0 73 -22 73 -73v-229c0 -48 19 -68 55 -68c74 0 109 65 109 142v228h173v-348c0 -14 8 -22 22 -22h38v-145h-153c-47 0 -73 23 -73 58v7c0 5 1 12 1 12h-2c-28 -55 -91 -89 -160 -89c-102 0 -183 48 -183 193zM155 565
l98 150h140l99 -150h-121l-47 82h-2l-47 -82h-120z" />
    <glyph glyph-name="udieresis" unicode="&#xfc;" horiz-adv-x="660" 
d="M73 181v167c0 14 -8 22 -22 22h-38v145h160c51 0 73 -22 73 -73v-229c0 -48 19 -68 55 -68c74 0 109 65 109 142v228h173v-348c0 -14 8 -22 22 -22h38v-145h-153c-47 0 -73 23 -73 58v7c0 5 1 12 1 12h-2c-28 -55 -91 -89 -160 -89c-102 0 -183 48 -183 193zM369 575v140
h112v-140h-112zM166 575v140h112v-140h-112z" />
    <glyph glyph-name="yacute" unicode="&#xfd;" horiz-adv-x="571" 
d="M58 -33c0 0 30 -33 71 -33c28 0 60 8 77 51l6 15l-163 354c-6 13 -10 16 -22 16h-19v145h126c29 0 50 -15 60 -42l76 -208c10 -28 19 -80 19 -80h2s9 52 17 80l57 208c7 27 34 42 61 42h129v-145h-19c-12 0 -19 -3 -24 -16l-156 -409c-44 -114 -133 -155 -215 -155
c-89 0 -145 55 -145 55zM224 565l81 150h157l-118 -150h-120z" />
    <glyph glyph-name="thorn" unicode="&#xfe;" horiz-adv-x="618" 
d="M51 -200v748c0 14 -8 22 -22 22h-38v145h160c51 0 73 -22 73 -73v-119c0 -26 -2 -44 -2 -44h2c31 31 72 48 134 48c142 0 236 -117 236 -269s-94 -270 -236 -270c-97 0 -134 48 -134 48h-2s2 -18 2 -44v-192h-173zM219 257c0 -95 46 -125 104 -125c60 0 97 58 97 126
s-37 125 -97 125c-58 0 -104 -31 -104 -126z" />
    <glyph glyph-name="ydieresis" unicode="&#xff;" horiz-adv-x="571" 
d="M58 -33c0 0 30 -33 71 -33c28 0 60 8 77 51l6 15l-163 354c-6 13 -10 16 -22 16h-19v145h126c29 0 50 -15 60 -42l76 -208c10 -28 19 -80 19 -80h2s9 52 17 80l57 208c7 27 34 42 61 42h129v-145h-19c-12 0 -19 -3 -24 -16l-156 -409c-44 -114 -133 -155 -215 -155
c-89 0 -145 55 -145 55zM333 575v140h112v-140h-112zM130 575v140h112v-140h-112z" />
    <glyph glyph-name="Amacron" unicode="&#x100;" horiz-adv-x="690" 
d="M11 0v150h19c16 0 21 5 27 22l195 543h186l195 -543c6 -17 11 -22 27 -22h19v-150h-115c-50 0 -70 15 -84 58l-31 92h-208l-31 -92c-14 -43 -34 -58 -84 -58h-115zM279 295h132l-36 119c-14 45 -29 118 -29 118h-2s-15 -73 -29 -118zM208 782v107h275v-107h-275z" />
    <glyph glyph-name="amacron" unicode="&#x101;" horiz-adv-x="569" 
d="M20 144c0 163 220 177 299 177h7v9c0 49 -23 67 -66 67c-22 0 -45 -5 -45 -25v-23h-160v57c0 114 146 121 199 121c186 0 245 -88 245 -210v-150c0 -14 8 -22 22 -22h38v-145h-150c-50 0 -68 31 -68 54v9h-2s-44 -75 -150 -75c-97 0 -169 63 -169 156zM135 586v107h275
v-107h-275zM191 162c0 -23 17 -45 49 -45c49 0 88 49 88 91v14h-19c-55 0 -118 -17 -118 -60z" />
    <glyph glyph-name="Abreve" unicode="&#x102;" horiz-adv-x="690" 
d="M11 0v150h19c16 0 21 5 27 22l195 543h186l195 -543c6 -17 11 -22 27 -22h19v-150h-115c-50 0 -70 15 -84 58l-31 92h-208l-31 -92c-14 -43 -34 -58 -84 -58h-115zM279 295h132l-36 119c-14 45 -29 118 -29 118h-2s-15 -73 -29 -118zM345 756c-81 0 -166 52 -166 145v10
h104v-11c0 -40 33 -58 62 -58s62 18 62 58v11h104v-10c0 -93 -85 -145 -166 -145z" />
    <glyph glyph-name="abreve" unicode="&#x103;" horiz-adv-x="569" 
d="M20 144c0 163 220 177 299 177h7v9c0 49 -23 67 -66 67c-22 0 -45 -5 -45 -25v-23h-160v57c0 114 146 121 199 121c186 0 245 -88 245 -210v-150c0 -14 8 -22 22 -22h38v-145h-150c-50 0 -68 31 -68 54v9h-2s-44 -75 -150 -75c-97 0 -169 63 -169 156zM272 560
c-81 0 -166 52 -166 145v10h104v-11c0 -40 33 -58 62 -58s62 18 62 58v11h104v-10c0 -93 -85 -145 -166 -145zM191 162c0 -23 17 -45 49 -45c49 0 88 49 88 91v14h-19c-55 0 -118 -17 -118 -60z" />
    <glyph glyph-name="Aogonek" unicode="&#x104;" horiz-adv-x="690" 
d="M11 0v150h19c16 0 21 5 27 22l195 543h186l195 -543c6 -17 11 -22 27 -22h19v-150c-17 -16 -42 -42 -42 -61c0 -22 38 -25 38 -25l-42 -124s-133 13 -133 99c0 50 35 86 65 110v2c-52 0 -71 14 -85 57l-31 92h-208l-31 -92c-14 -43 -34 -58 -84 -58h-115zM279 295h132
l-36 119c-14 45 -29 118 -29 118h-2s-15 -73 -29 -118z" />
    <glyph glyph-name="aogonek" unicode="&#x105;" horiz-adv-x="569" 
d="M20 154c0 153 219 170 302 170h4v6c0 49 -23 67 -66 67c-22 0 -45 -5 -45 -25v-23h-160v57c0 114 145 121 205 121c180 0 239 -92 239 -210v-150c0 -14 8 -22 22 -22h38v-145c-17 -16 -42 -42 -42 -61c0 -22 38 -25 38 -25l-42 -124s-133 13 -133 99c0 50 36 85 66 109v2
h-37c-48 0 -69 31 -69 50v4c0 4 1 9 1 9h-2c-19 -34 -64 -75 -144 -75c-96 0 -175 64 -175 166zM194 163c0 -24 15 -43 49 -43c45 0 85 49 85 91v8h-16c-55 0 -118 -15 -118 -56z" />
    <glyph glyph-name="Cacute" unicode="&#x106;" horiz-adv-x="710" 
d="M25 365c0 205 157 362 370 362c85 0 274 -33 274 -167v-94h-160v39c0 41 -64 57 -110 57c-104 0 -188 -67 -188 -197c0 -117 87 -212 192 -212c125 0 204 91 204 91l91 -128s-108 -128 -298 -128c-226 0 -375 162 -375 377zM327 761l81 150h157l-118 -150h-120z" />
    <glyph glyph-name="cacute" unicode="&#x107;" horiz-adv-x="546" 
d="M23 258c0 136 96 269 291 269c72 0 190 -28 190 -121v-71h-150v27c0 16 -19 22 -40 22c-73 0 -117 -55 -117 -124c0 -88 66 -123 130 -123c74 0 142 67 142 67l69 -116s-81 -100 -228 -100c-184 0 -287 128 -287 270zM227 565l81 150h157l-118 -150h-120z" />
    <glyph glyph-name="Ccircumflex" unicode="&#x108;" horiz-adv-x="710" 
d="M25 365c0 205 157 362 370 362c85 0 274 -33 274 -167v-94h-160v39c0 41 -64 57 -110 57c-104 0 -188 -67 -188 -197c0 -117 87 -212 192 -212c125 0 204 91 204 91l91 -128s-108 -128 -298 -128c-226 0 -375 162 -375 377zM222 761l98 150h140l99 -150h-121l-47 82h-2
l-47 -82h-120z" />
    <glyph glyph-name="ccircumflex" unicode="&#x109;" horiz-adv-x="546" 
d="M23 258c0 136 96 269 291 269c72 0 190 -28 190 -121v-71h-150v27c0 16 -19 22 -40 22c-73 0 -117 -55 -117 -124c0 -88 66 -123 130 -123c74 0 142 67 142 67l69 -116s-81 -100 -228 -100c-184 0 -287 128 -287 270zM122 565l98 150h140l99 -150h-121l-47 82h-2l-47 -82
h-120z" />
    <glyph glyph-name="Cdotaccent" unicode="&#x10a;" horiz-adv-x="710" 
d="M25 365c0 205 157 362 370 362c85 0 274 -33 274 -167v-94h-160v39c0 41 -64 57 -110 57c-104 0 -188 -67 -188 -197c0 -117 87 -212 192 -212c125 0 204 91 204 91l91 -128s-108 -128 -298 -128c-226 0 -375 162 -375 377zM318 771v140h145v-140h-145z" />
    <glyph glyph-name="cdotaccent" unicode="&#x10b;" horiz-adv-x="546" 
d="M23 258c0 136 96 269 291 269c72 0 190 -28 190 -121v-71h-150v27c0 16 -19 22 -40 22c-73 0 -117 -55 -117 -124c0 -88 66 -123 130 -123c74 0 142 67 142 67l69 -116s-81 -100 -228 -100c-184 0 -287 128 -287 270zM218 575v140h145v-140h-145z" />
    <glyph glyph-name="Ccaron" unicode="&#x10c;" horiz-adv-x="710" 
d="M25 365c0 205 157 362 370 362c85 0 274 -33 274 -167v-94h-160v39c0 41 -64 57 -110 57c-104 0 -188 -67 -188 -197c0 -117 87 -212 192 -212c125 0 204 91 204 91l91 -128s-108 -128 -298 -128c-226 0 -375 162 -375 377zM320 761l-98 150h120l47 -82h2l47 82h121
l-99 -150h-140z" />
    <glyph glyph-name="ccaron" unicode="&#x10d;" horiz-adv-x="546" 
d="M23 258c0 136 96 269 291 269c72 0 190 -28 190 -121v-71h-150v27c0 16 -19 22 -40 22c-73 0 -117 -55 -117 -124c0 -88 66 -123 130 -123c74 0 142 67 142 67l69 -116s-81 -100 -228 -100c-184 0 -287 128 -287 270zM220 565l-98 150h120l47 -82h2l47 82h121l-99 -150
h-140z" />
    <glyph glyph-name="Dcaron" unicode="&#x10e;" horiz-adv-x="714" 
d="M88 73v492h-65v150h294c225 0 369 -131 369 -356s-144 -359 -369 -359h-156c-51 0 -73 22 -73 73zM267 172c0 -14 8 -22 22 -22h21c118 0 190 72 190 209c0 136 -75 206 -190 206h-43v-393zM249 761l-98 150h120l47 -82h2l47 82h121l-99 -150h-140z" />
    <glyph glyph-name="dcaron" unicode="&#x10f;" horiz-adv-x="646" 
d="M25 258c0 163 98 269 235 269c104 0 135 -36 135 -36h2s-1 10 -1 23v34c0 14 -8 22 -22 22h-38v145h160c51 0 73 -22 73 -73v-475c0 -14 8 -22 22 -22h38v-145h-154c-49 0 -67 25 -67 49v9h-2s-43 -70 -149 -70c-140 0 -232 110 -232 270zM199 258
c0 -77 41 -127 101 -127c52 0 101 38 101 127c0 62 -33 123 -101 123c-54 0 -101 -44 -101 -123zM604 715h122c5 -19 7 -36 7 -53c0 -33 -9 -62 -28 -98h-109c12 33 20 60 20 88c0 19 -3 39 -12 63z" />
    <glyph glyph-name="Dcroat" unicode="&#x110;" horiz-adv-x="716" 
d="M90 73v211h-47v140h47v141h-65v150h294c225 0 369 -131 369 -356s-144 -359 -369 -359h-156c-51 0 -73 22 -73 73zM269 172c0 -14 8 -22 22 -22h21c118 0 190 72 190 209c0 136 -75 206 -190 206h-43v-141h90v-140h-90v-112z" />
    <glyph glyph-name="dcroat" unicode="&#x111;" horiz-adv-x="646" 
d="M25 258c0 163 98 269 235 269c104 0 135 -36 135 -36h2s-1 10 -1 23v40h-123v95h123v66h173v-66h69v-95h-69v-387c0 -14 8 -22 22 -22h38v-145h-154c-49 0 -67 25 -67 49v9h-2s-43 -70 -149 -70c-140 0 -232 110 -232 270zM199 258c0 -77 41 -127 101 -127
c52 0 101 38 101 127c0 62 -33 123 -101 123c-54 0 -101 -44 -101 -123z" />
    <glyph glyph-name="Emacron" unicode="&#x112;" horiz-adv-x="601" 
d="M88 73v492h-65v150h450c51 0 73 -22 73 -73v-138h-160v39c0 14 -8 22 -22 22h-97v-130h204v-150h-204v-113c0 -14 8 -22 22 -22h99c14 0 22 8 22 22v39h160v-138c0 -51 -22 -73 -73 -73h-336c-51 0 -73 22 -73 73zM157 782v107h275v-107h-275z" />
    <glyph glyph-name="emacron" unicode="&#x113;" horiz-adv-x="556" 
d="M23 258c0 151 102 269 268 269c152 0 238 -106 238 -249c0 -18 -2 -36 -4 -54h-325c13 -63 65 -92 120 -92c51 0 100 24 142 52l64 -121c-56 -48 -141 -75 -220 -75c-184 0 -283 133 -283 270zM204 323h154c0 42 -27 77 -71 77c-50 0 -74 -36 -83 -77zM146 586v107h275
v-107h-275z" />
    <glyph glyph-name="Ebreve" unicode="&#x114;" horiz-adv-x="601" 
d="M88 73v492h-65v150h450c51 0 73 -22 73 -73v-138h-160v39c0 14 -8 22 -22 22h-97v-130h204v-150h-204v-113c0 -14 8 -22 22 -22h99c14 0 22 8 22 22v39h160v-138c0 -51 -22 -73 -73 -73h-336c-51 0 -73 22 -73 73zM294 756c-81 0 -166 52 -166 145v10h104v-11
c0 -40 33 -58 62 -58s62 18 62 58v11h104v-10c0 -93 -85 -145 -166 -145z" />
    <glyph glyph-name="ebreve" unicode="&#x115;" horiz-adv-x="556" 
d="M23 258c0 151 102 269 268 269c152 0 238 -106 238 -249c0 -18 -2 -36 -4 -54h-325c13 -63 65 -92 120 -92c51 0 100 24 142 52l64 -121c-56 -48 -141 -75 -220 -75c-184 0 -283 133 -283 270zM204 323h154c0 42 -27 77 -71 77c-50 0 -74 -36 -83 -77zM283 560
c-81 0 -166 52 -166 145v10h104v-11c0 -40 33 -58 62 -58s62 18 62 58v11h104v-10c0 -93 -85 -145 -166 -145z" />
    <glyph glyph-name="Edotaccent" unicode="&#x116;" horiz-adv-x="601" 
d="M88 73v492h-65v150h450c51 0 73 -22 73 -73v-138h-160v39c0 14 -8 22 -22 22h-97v-130h204v-150h-204v-113c0 -14 8 -22 22 -22h99c14 0 22 8 22 22v39h160v-138c0 -51 -22 -73 -73 -73h-336c-51 0 -73 22 -73 73zM222 771v140h145v-140h-145z" />
    <glyph glyph-name="edotaccent" unicode="&#x117;" horiz-adv-x="556" 
d="M23 258c0 151 102 269 268 269c152 0 238 -106 238 -249c0 -18 -2 -36 -4 -54h-325c13 -63 65 -92 120 -92c51 0 100 24 142 52l64 -121c-56 -48 -141 -75 -220 -75c-184 0 -283 133 -283 270zM204 323h154c0 42 -27 77 -71 77c-50 0 -74 -36 -83 -77zM211 575v140h145
v-140h-145z" />
    <glyph glyph-name="Eogonek" unicode="&#x118;" horiz-adv-x="601" 
d="M88 73v492h-65v150h450c51 0 73 -22 73 -73v-138h-160v39c0 14 -8 22 -22 22h-97v-130h204v-150h-204v-113c0 -14 8 -22 22 -22h99c14 0 22 8 22 22v39h160v-138c0 -29 -7 -47 -29 -67c-24 -21 -49 -48 -49 -67c0 -22 38 -25 38 -25l-42 -124s-133 13 -133 99
c0 50 34 85 64 109v2h-258c-51 0 -73 22 -73 73z" />
    <glyph glyph-name="eogonek" unicode="&#x119;" horiz-adv-x="556" 
d="M23 258c0 151 102 269 268 269c152 0 238 -106 238 -249c0 -18 -2 -36 -4 -54h-325c13 -63 65 -92 120 -92c51 0 100 24 142 52l64 -121c-31 -31 -106 -70 -106 -124c0 -22 38 -25 38 -25l-42 -124s-133 13 -133 99c0 44 31 76 61 100v2c-13 -2 -24 -3 -38 -3
c-184 0 -283 133 -283 270zM204 323h154c0 42 -27 77 -71 77c-50 0 -74 -36 -83 -77z" />
    <glyph glyph-name="Ecaron" unicode="&#x11a;" horiz-adv-x="601" 
d="M88 73v492h-65v150h450c51 0 73 -22 73 -73v-138h-160v39c0 14 -8 22 -22 22h-97v-130h204v-150h-204v-113c0 -14 8 -22 22 -22h99c14 0 22 8 22 22v39h160v-138c0 -51 -22 -73 -73 -73h-336c-51 0 -73 22 -73 73zM224 761l-98 150h120l47 -82h2l47 82h121l-99 -150h-140
z" />
    <glyph glyph-name="ecaron" unicode="&#x11b;" horiz-adv-x="556" 
d="M23 258c0 151 102 269 268 269c152 0 238 -106 238 -249c0 -18 -2 -36 -4 -54h-325c13 -63 65 -92 120 -92c51 0 100 24 142 52l64 -121c-56 -48 -141 -75 -220 -75c-184 0 -283 133 -283 270zM204 323h154c0 42 -27 77 -71 77c-50 0 -74 -36 -83 -77zM213 565l-98 150
h120l47 -82h2l47 82h121l-99 -150h-140z" />
    <glyph glyph-name="Gcircumflex" unicode="&#x11c;" horiz-adv-x="749" 
d="M25 364c0 205 157 363 370 363c183 0 269 -93 269 -93l-100 -127s-71 57 -165 57c-95 0 -188 -74 -188 -199c0 -141 95 -212 197 -212c94 0 148 52 148 52v27c0 14 -8 22 -22 22h-43v150h151c51 0 73 -22 73 -73v-331h-150v20c0 15 1 30 1 30h-2s-71 -62 -193 -62
c-180 0 -346 132 -346 376zM222 761l98 150h140l99 -150h-121l-47 82h-2l-47 -82h-120z" />
    <glyph glyph-name="gcircumflex" unicode="&#x11d;" horiz-adv-x="637" 
d="M124 -29c0 0 63 -33 144 -33c62 0 119 23 119 99v8c0 6 1 19 1 19h-2c-30 -33 -69 -49 -129 -49c-155 0 -232 127 -232 259c0 131 75 253 231 253c105 0 149 -60 149 -60h2v7c0 14 16 41 55 41h156v-145h-36c-13 0 -22 -7 -22 -19v-304c0 -188 -150 -257 -291 -257
c-69 0 -145 20 -195 46zM298 159c45 0 93 23 93 113c0 91 -48 111 -100 111c-61 0 -92 -44 -92 -103c0 -64 30 -121 99 -121zM162 565l98 150h140l99 -150h-121l-47 82h-2l-47 -82h-120z" />
    <glyph glyph-name="Gbreve" unicode="&#x11e;" horiz-adv-x="749" 
d="M25 364c0 205 157 363 370 363c183 0 269 -93 269 -93l-100 -127s-71 57 -165 57c-95 0 -188 -74 -188 -199c0 -141 95 -212 197 -212c94 0 148 52 148 52v27c0 14 -8 22 -22 22h-43v150h151c51 0 73 -22 73 -73v-331h-150v20c0 15 1 30 1 30h-2s-71 -62 -193 -62
c-180 0 -346 132 -346 376zM390 756c-81 0 -166 52 -166 145v10h104v-11c0 -40 33 -58 62 -58s62 18 62 58v11h104v-10c0 -93 -85 -145 -166 -145z" />
    <glyph glyph-name="gbreve" unicode="&#x11f;" horiz-adv-x="637" 
d="M124 -29c0 0 63 -33 144 -33c62 0 119 23 119 99v8c0 6 1 19 1 19h-2c-30 -33 -69 -49 -129 -49c-155 0 -232 127 -232 259c0 131 75 253 231 253c105 0 149 -60 149 -60h2v7c0 14 16 41 55 41h156v-145h-36c-13 0 -22 -7 -22 -19v-304c0 -188 -150 -257 -291 -257
c-69 0 -145 20 -195 46zM298 159c45 0 93 23 93 113c0 91 -48 111 -100 111c-61 0 -92 -44 -92 -103c0 -64 30 -121 99 -121zM330 560c-81 0 -166 52 -166 145v10h104v-11c0 -40 33 -58 62 -58s62 18 62 58v11h104v-10c0 -93 -85 -145 -166 -145z" />
    <glyph glyph-name="Gdotaccent" unicode="&#x120;" horiz-adv-x="749" 
d="M25 364c0 205 157 363 370 363c183 0 269 -93 269 -93l-100 -127s-71 57 -165 57c-95 0 -188 -74 -188 -199c0 -141 95 -212 197 -212c94 0 148 52 148 52v27c0 14 -8 22 -22 22h-43v150h151c51 0 73 -22 73 -73v-331h-150v20c0 15 1 30 1 30h-2s-71 -62 -193 -62
c-180 0 -346 132 -346 376zM318 771v140h145v-140h-145z" />
    <glyph glyph-name="gdotaccent" unicode="&#x121;" horiz-adv-x="637" 
d="M124 -29c0 0 63 -33 144 -33c62 0 119 23 119 99v8c0 6 1 19 1 19h-2c-30 -33 -69 -49 -129 -49c-155 0 -232 127 -232 259c0 131 75 253 231 253c105 0 149 -60 149 -60h2v7c0 14 16 41 55 41h156v-145h-36c-13 0 -22 -7 -22 -19v-304c0 -188 -150 -257 -291 -257
c-69 0 -145 20 -195 46zM298 159c45 0 93 23 93 113c0 91 -48 111 -100 111c-61 0 -92 -44 -92 -103c0 -64 30 -121 99 -121zM258 575v140h145v-140h-145z" />
    <glyph glyph-name="Gcommaaccent" unicode="&#x122;" horiz-adv-x="749" 
d="M25 364c0 205 157 363 370 363c183 0 269 -93 269 -93l-100 -127s-71 57 -165 57c-95 0 -188 -74 -188 -199c0 -141 95 -212 197 -212c94 0 148 52 148 52v27c0 14 -8 22 -22 22h-43v150h151c51 0 73 -22 73 -73v-331h-150v20c0 15 1 30 1 30h-2s-71 -62 -193 -62
c-180 0 -346 132 -346 376zM326 -49h122c5 -19 7 -36 7 -53c0 -33 -9 -62 -28 -98h-109c12 33 20 60 20 88c0 19 -3 39 -12 63z" />
    <glyph glyph-name="gcommaaccent" unicode="&#x123;" horiz-adv-x="637" 
d="M124 -29c0 0 63 -33 144 -33c62 0 119 23 119 99v8c0 6 1 19 1 19h-2c-30 -33 -69 -49 -129 -49c-155 0 -232 127 -232 259c0 131 75 253 231 253c105 0 149 -60 149 -60h2v7c0 14 16 41 55 41h156v-145h-36c-13 0 -22 -7 -22 -19v-304c0 -188 -150 -257 -291 -257
c-69 0 -145 20 -195 46zM298 159c45 0 93 23 93 113c0 91 -48 111 -100 111c-61 0 -92 -44 -92 -103c0 -64 30 -121 99 -121zM371 564h-122c-5 19 -7 36 -7 53c0 33 9 62 28 98h109c-12 -33 -20 -60 -20 -88c0 -19 3 -39 12 -63z" />
    <glyph glyph-name="Hcircumflex" unicode="&#x124;" horiz-adv-x="778" 
d="M89 0v543c0 14 -8 22 -22 22h-43v150h171c51 0 73 -22 73 -73v-213h242v213c0 51 22 73 73 73h171v-150h-43c-14 0 -22 -8 -22 -22v-543h-179v280h-242v-280h-179zM222 761l98 150h140l99 -150h-121l-47 82h-2l-47 -82h-120z" />
    <glyph glyph-name="hcircumflex" unicode="&#x125;" horiz-adv-x="639" 
d="M51 0v548c0 14 -8 22 -22 22h-38v145h160c51 0 73 -22 73 -73v-153c0 -26 -2 -44 -2 -44h2c29 51 89 82 157 82c104 0 185 -48 185 -193v-167c0 -14 8 -22 22 -22h38v-145h-160c-51 0 -73 22 -73 73v229c0 48 -19 68 -57 68c-53 0 -88 -31 -103 -76c-7 -20 -9 -42 -9 -66
v-228h-173zM-25 761l98 150h140l99 -150h-121l-47 82h-2l-47 -82h-120z" />
    <glyph glyph-name="Hbar" unicode="&#x126;" horiz-adv-x="780" 
d="M90 0v517h-66v107h66v91h179v-91h242v91h179v-91h65v-107h-65v-517h-179v280h-242v-280h-179zM269 429h242v88h-242v-88z" />
    <glyph glyph-name="hbar" unicode="&#x127;" horiz-adv-x="639" 
d="M51 0v554h-69v95h69v66h173v-66h123v-95h-123v-65c0 -26 -2 -44 -2 -44h2s41 82 157 82c104 0 185 -48 185 -193v-167c0 -14 8 -22 22 -22h38v-145h-160c-51 0 -73 22 -73 73v229c0 48 -19 68 -57 68c-78 0 -112 -64 -112 -142v-228h-173z" />
    <glyph glyph-name="Itilde" unicode="&#x128;" horiz-adv-x="399" 
d="M40 0v150h75v415h-75v150h319v-150h-75v-415h75v-150h-319zM-2 761c0 101 44 153 131 153c70 0 90 -60 130 -60c24 0 41 19 41 57h101c0 -101 -44 -153 -131 -153c-70 0 -90 60 -130 60c-24 0 -41 -19 -41 -57h-101z" />
    <glyph glyph-name="itilde" unicode="&#x129;" horiz-adv-x="329" 
d="M-25 565c0 101 34 153 117 153c60 0 84 -54 112 -54c21 0 33 13 33 51h101c0 -101 -34 -153 -117 -153c-60 0 -84 54 -112 54c-21 0 -33 -13 -33 -51h-101zM78 73v275c0 14 -8 22 -22 22h-38v145h160c51 0 73 -22 73 -73v-275c0 -14 8 -22 22 -22h38v-145h-160
c-51 0 -73 22 -73 73z" />
    <glyph glyph-name="Imacron" unicode="&#x12a;" horiz-adv-x="399" 
d="M40 0v150h75v415h-75v150h319v-150h-75v-415h75v-150h-319zM62 782v107h275v-107h-275z" />
    <glyph glyph-name="imacron" unicode="&#x12b;" horiz-adv-x="329" 
d="M19 586v107h275v-107h-275zM78 73v275c0 14 -8 22 -22 22h-38v145h160c51 0 73 -22 73 -73v-275c0 -14 8 -22 22 -22h38v-145h-160c-51 0 -73 22 -73 73z" />
    <glyph glyph-name="Ibreve" unicode="&#x12c;" horiz-adv-x="399" 
d="M40 0v150h75v415h-75v150h319v-150h-75v-415h75v-150h-319zM199 756c-81 0 -166 52 -166 145v10h104v-11c0 -40 33 -58 62 -58s62 18 62 58v11h104v-10c0 -93 -85 -145 -166 -145z" />
    <glyph glyph-name="ibreve" unicode="&#x12d;" horiz-adv-x="329" 
d="M156 560c-81 0 -166 52 -166 145v10h104v-11c0 -40 33 -58 62 -58s62 18 62 58v11h104v-10c0 -93 -85 -145 -166 -145zM78 73v275c0 14 -8 22 -22 22h-38v145h160c51 0 73 -22 73 -73v-275c0 -14 8 -22 22 -22h38v-145h-160c-51 0 -73 22 -73 73z" />
    <glyph glyph-name="Iogonek" unicode="&#x12e;" horiz-adv-x="399" 
d="M40 0v150h75v415h-75v150h319v-150h-75v-415h75v-150c-17 -16 -42 -42 -42 -61c0 -22 38 -25 38 -25l-42 -124s-133 13 -133 99c0 50 34 85 64 109v2h-204z" />
    <glyph glyph-name="iogonek" unicode="&#x12f;" horiz-adv-x="329" 
d="M91 575v140h145v-140h-145zM78 73v275c0 14 -8 22 -22 22h-38v145h160c51 0 73 -22 73 -73v-275c0 -14 8 -22 22 -22h38v-145c-17 -16 -42 -42 -42 -61c0 -22 38 -25 38 -25l-42 -124s-133 13 -133 99c0 50 34 85 64 109v2h-45c-45 0 -73 22 -73 73z" />
    <glyph glyph-name="Idotaccent" unicode="&#x130;" horiz-adv-x="399" 
d="M40 0v150h75v415h-75v150h319v-150h-75v-415h75v-150h-319zM126 771v140h145v-140h-145z" />
    <glyph glyph-name="dotlessi" unicode="&#x131;" horiz-adv-x="329" 
d="M78 73v275c0 14 -8 22 -22 22h-38v145h160c51 0 73 -22 73 -73v-275c0 -14 8 -22 22 -22h38v-145h-160c-51 0 -73 22 -73 73z" />
    <glyph glyph-name="IJ" unicode="&#x132;" horiz-adv-x="784" 
d="M432 -4v158c42 0 116 24 116 116v273c0 14 -8 22 -22 22h-94v150h222c51 0 73 -22 73 -73v-374c0 -227 -163 -272 -295 -272zM40 0v150h75v415h-75v150h319v-150h-75v-415h75v-150h-319z" />
    <glyph glyph-name="ij" unicode="&#x133;" horiz-adv-x="627" 
d="M91 575v140h145v-140h-145zM78 73v275c0 14 -8 22 -22 22h-38v145h160c51 0 73 -22 73 -73v-275c0 -14 8 -22 22 -22h38v-145h-160c-51 0 -73 22 -73 73zM417 575v140h145v-140h-145zM406 4v344c0 14 -8 22 -22 22h-38v145h160c51 0 73 -22 73 -73v-455
c0 -173 -162 -195 -242 -195c-28 0 -46 3 -46 3v144s9 -1 22 -1c34 0 93 8 93 66z" />
    <glyph glyph-name="Jcircumflex" unicode="&#x134;" horiz-adv-x="552" 
d="M7 220v52h179v-33c0 -66 31 -86 66 -86c37 0 63 24 63 76v314c0 14 -8 22 -22 22h-170v150h298c51 0 73 -22 73 -73v-422c0 -157 -122 -232 -244 -232s-243 77 -243 232zM134 761l98 150h140l99 -150h-121l-47 82h-2l-47 -82h-120z" />
    <glyph glyph-name="jcircumflex" unicode="&#x135;" horiz-adv-x="292" 
d="M-39 565l99 150h140l98 -150h-120l-48 83l-48 -83h-121zM77 0v353c0 20 -10 22 -30 22h-30v140h155c50 0 73 -8 73 -58v-470c0 -173 -157 -195 -237 -195c-28 0 -46 3 -46 3v140s9 -1 22 -1c34 0 93 8 93 66z" />
    <glyph glyph-name="Kcommaaccent" unicode="&#x136;" horiz-adv-x="676" 
d="M89 0v543c0 14 -8 22 -22 22h-43v150h171c51 0 73 -22 73 -73v-203h24c25 0 43 0 55 22l121 254h195l-143 -289c-24 -49 -53 -62 -53 -62v-2s30 -7 55 -57l65 -132c10 -21 29 -23 49 -23h19v-150h-105c-50 0 -79 8 -101 53l-107 214c-12 23 -33 23 -60 23h-14v-290h-179z
M294 -49h122c5 -19 7 -36 7 -53c0 -33 -9 -62 -28 -98h-109c12 33 20 60 20 88c0 19 -3 39 -12 63z" />
    <glyph glyph-name="kcommaaccent" unicode="&#x137;" horiz-adv-x="580" 
d="M51 0v548c0 14 -8 22 -22 22h-38v145h160c51 0 73 -7 73 -58v-312h27c15 0 32 0 41 16l84 154h188l-117 -198c-19 -33 -38 -43 -38 -43v-2s21 -8 39 -43l33 -67c7 -14 18 -17 38 -17h40v-145h-131c-37 0 -57 6 -74 39l-74 144c-9 17 -28 17 -41 17h-15v-200h-173z
M237 -49h122c5 -19 7 -36 7 -53c0 -33 -9 -62 -28 -98h-109c12 33 20 60 20 88c0 19 -3 39 -12 63z" />
    <glyph glyph-name="kgreenlandic" unicode="&#x138;" horiz-adv-x="603" 
d="M78 0v348c0 14 -8 22 -22 22h-38v145h160c51 0 73 -7 73 -58v-126h27c14 0 33 0 41 16l84 168h185l-117 -208c-19 -33 -38 -43 -38 -43v-2s21 -7 39 -43l28 -57c7 -14 18 -17 38 -17h44v-145h-135c-37 0 -57 6 -74 39l-66 130c-9 17 -28 17 -41 17h-15v-186h-173z" />
    <glyph glyph-name="Lacute" unicode="&#x139;" horiz-adv-x="575" 
d="M88 73v470c0 14 -8 22 -22 22h-43v150h171c51 0 73 -22 73 -73v-470c0 -14 8 -22 22 -22h94c14 0 22 8 22 22v39h160v-138c0 -51 -22 -73 -73 -73h-331c-51 0 -73 22 -73 73zM135 761l81 150h157l-118 -150h-120z" />
    <glyph glyph-name="lacute" unicode="&#x13a;" horiz-adv-x="301" 
d="M50 73v475c0 14 -8 22 -22 22h-38v145h160c51 0 73 -22 73 -73v-475c0 -14 8 -22 22 -22h38v-145h-160c-51 0 -73 22 -73 73zM53 761l81 150h157l-118 -150h-120z" />
    <glyph glyph-name="Lcommaaccent" unicode="&#x13b;" horiz-adv-x="575" 
d="M88 73v470c0 14 -8 22 -22 22h-43v150h171c51 0 73 -22 73 -73v-470c0 -14 8 -22 22 -22h94c14 0 22 8 22 22v39h160v-138c0 -51 -22 -73 -73 -73h-331c-51 0 -73 22 -73 73zM259 -49h122c5 -19 7 -36 7 -53c0 -33 -9 -62 -28 -98h-109c12 33 20 60 20 88
c0 19 -3 39 -12 63z" />
    <glyph glyph-name="lcommaaccent" unicode="&#x13c;" horiz-adv-x="301" 
d="M50 73v475c0 14 -8 22 -22 22h-38v145h160c51 0 73 -22 73 -73v-475c0 -14 8 -22 22 -22h38v-145h-160c-51 0 -73 22 -73 73zM83 -49h122c5 -19 7 -36 7 -53c0 -33 -9 -62 -28 -98h-109c12 33 20 60 20 88c0 19 -3 39 -12 63z" />
    <glyph glyph-name="Lcaron" unicode="&#x13d;" horiz-adv-x="576" 
d="M88 73v470c0 14 -8 22 -22 22h-43v150h171c51 0 73 -22 73 -73v-470c0 -14 8 -22 22 -22h94c14 0 22 8 22 22v39h160v-138c0 -51 -22 -73 -73 -73h-331c-51 0 -73 22 -73 73zM334 715h122c5 -19 7 -36 7 -53c0 -33 -9 -62 -28 -98h-109c12 33 20 60 20 88
c0 19 -3 39 -12 63z" />
    <glyph glyph-name="lcaron" unicode="&#x13e;" horiz-adv-x="301" 
d="M50 73v475c0 14 -8 22 -22 22h-38v145h160c51 0 73 -22 73 -73v-475c0 -14 8 -22 22 -22h38v-145h-160c-51 0 -73 22 -73 73zM265 715h122c5 -19 7 -36 7 -53c0 -33 -9 -62 -28 -98h-109c12 33 20 60 20 88c0 19 -3 39 -12 63z" />
    <glyph glyph-name="Ldot" unicode="&#x13f;" horiz-adv-x="576" 
d="M88 73v470c0 14 -8 22 -22 22h-43v150h171c51 0 73 -22 73 -73v-470c0 -14 8 -22 22 -22h94c14 0 22 8 22 22v39h160v-138c0 -51 -22 -73 -73 -73h-331c-51 0 -73 22 -73 73zM347 315v164h158v-164h-158z" />
    <glyph glyph-name="ldot" unicode="&#x140;" horiz-adv-x="489" 
d="M50 73v475c0 14 -8 22 -22 22h-38v145h160c51 0 73 -22 73 -73v-475c0 -14 8 -22 22 -22h38v-145h-160c-51 0 -73 22 -73 73zM300 315v164h158v-164h-158z" />
    <glyph glyph-name="Lslash" unicode="&#x141;" horiz-adv-x="576" 
d="M89 73v137l-61 -35v166l61 35v167c0 14 -8 22 -22 22h-43v150h171c51 0 73 -22 73 -73v-164l88 51v-166l-88 -51v-140c0 -14 8 -22 22 -22h94c14 0 22 8 22 22v39h160v-138c0 -51 -22 -73 -73 -73h-331c-51 0 -73 22 -73 73z" />
    <glyph glyph-name="lslash" unicode="&#x142;" horiz-adv-x="316" 
d="M61 73v157l-51 -29v168l51 29v150c0 14 -8 22 -22 22h-38v145h160c51 0 73 -22 73 -73v-146l64 36v-165l-64 -37v-163c0 -14 8 -22 22 -22h38v-145h-160c-51 0 -73 22 -73 73z" />
    <glyph glyph-name="Nacute" unicode="&#x143;" horiz-adv-x="770" 
d="M24 0v150h43c14 0 22 8 22 22v543h161l198 -307c30 -46 60 -107 60 -107h2s-8 62 -8 107v234c0 51 22 73 73 73h171v-150h-43c-14 0 -22 -8 -22 -22v-543h-160l-199 306c-30 45 -60 107 -60 107h-2s8 -62 8 -107v-233c0 -51 -22 -73 -73 -73h-171zM329 761l81 150h157
l-118 -150h-120z" />
    <glyph glyph-name="nacute" unicode="&#x144;" horiz-adv-x="666" 
d="M78 0v348c0 14 -8 22 -22 22h-38v145h154c47 0 72 -23 72 -58v-7c0 -5 -1 -12 -1 -12h2c24 40 72 89 163 89c104 0 185 -48 185 -193v-167c0 -14 8 -22 22 -22h38v-145h-160c-51 0 -73 22 -73 73v229c0 48 -19 68 -57 68c-54 0 -87 -30 -102 -74c-7 -20 -10 -43 -10 -68
v-228h-173zM275 565l81 150h157l-118 -150h-120z" />
    <glyph glyph-name="Ncommaaccent" unicode="&#x145;" horiz-adv-x="770" 
d="M24 0v150h43c14 0 22 8 22 22v543h161l198 -307c30 -46 60 -107 60 -107h2s-8 62 -8 107v234c0 51 22 73 73 73h171v-150h-43c-14 0 -22 -8 -22 -22v-543h-160l-199 306c-30 45 -60 107 -60 107h-2s8 -62 8 -107v-233c0 -51 -22 -73 -73 -73h-171zM324 -49h122
c5 -19 7 -36 7 -53c0 -33 -9 -62 -28 -98h-109c12 33 20 60 20 88c0 19 -3 39 -12 63z" />
    <glyph glyph-name="ncommaaccent" unicode="&#x146;" horiz-adv-x="666" 
d="M78 0v348c0 14 -8 22 -22 22h-38v145h154c47 0 72 -23 72 -58v-7c0 -5 -1 -12 -1 -12h2c24 40 72 89 163 89c104 0 185 -48 185 -193v-167c0 -14 8 -22 22 -22h38v-145h-160c-51 0 -73 22 -73 73v229c0 48 -19 68 -57 68c-54 0 -87 -30 -102 -74c-7 -20 -10 -43 -10 -68
v-228h-173zM274 -49h122c5 -19 7 -36 7 -53c0 -33 -9 -62 -28 -98h-109c12 33 20 60 20 88c0 19 -3 39 -12 63z" />
    <glyph glyph-name="Ncaron" unicode="&#x147;" horiz-adv-x="770" 
d="M24 0v150h43c14 0 22 8 22 22v543h161l198 -307c30 -46 60 -107 60 -107h2s-8 62 -8 107v234c0 51 22 73 73 73h171v-150h-43c-14 0 -22 -8 -22 -22v-543h-160l-199 306c-30 45 -60 107 -60 107h-2s8 -62 8 -107v-233c0 -51 -22 -73 -73 -73h-171zM322 761l-98 150h120
l47 -82h2l47 82h121l-99 -150h-140z" />
    <glyph glyph-name="ncaron" unicode="&#x148;" horiz-adv-x="666" 
d="M78 0v348c0 14 -8 22 -22 22h-38v145h154c47 0 72 -23 72 -58v-7c0 -5 -1 -12 -1 -12h2c24 40 72 89 163 89c104 0 185 -48 185 -193v-167c0 -14 8 -22 22 -22h38v-145h-160c-51 0 -73 22 -73 73v229c0 48 -19 68 -57 68c-54 0 -87 -30 -102 -74c-7 -20 -10 -43 -10 -68
v-228h-173zM268 565l-98 150h120l47 -82h2l47 82h121l-99 -150h-140z" />
    <glyph glyph-name="napostrophe" unicode="&#x149;" horiz-adv-x="666" 
d="M78 0v348c0 14 -8 22 -22 22h-38v145h154c47 0 72 -23 72 -58v-7c0 -5 -1 -12 -1 -12h2c24 40 72 89 163 89c104 0 185 -48 185 -193v-167c0 -14 8 -22 22 -22h38v-145h-160c-51 0 -73 22 -73 73v229c0 48 -19 68 -57 68c-54 0 -87 -30 -102 -74c-7 -20 -10 -43 -10 -68
v-228h-173zM-57 715h122c5 -19 7 -36 7 -53c0 -33 -9 -62 -28 -98h-109c12 33 20 60 20 88c0 19 -3 39 -12 63z" />
    <glyph glyph-name="Eng" unicode="&#x14a;" horiz-adv-x="770" 
d="M24 0v150h43c14 0 22 8 22 22v543h161l198 -307c30 -46 60 -107 60 -107h2s-8 62 -8 107v234c0 51 22 73 73 73h171v-150h-43c-14 0 -22 -8 -22 -22v-476c0 -227 -163 -272 -295 -272v158c32 0 116 23 116 72v8l-180 273c-30 45 -60 107 -60 107h-2s8 -62 8 -107v-233
c0 -51 -22 -73 -73 -73h-171z" />
    <glyph glyph-name="eng" unicode="&#x14b;" horiz-adv-x="633" 
d="M78 0v348c0 14 -8 22 -22 22h-38v145h154c47 0 72 -23 72 -58v-7c0 -5 -1 -12 -1 -12h2c24 40 72 89 163 89c104 0 185 -48 185 -193v-347c0 -173 -162 -195 -242 -195c-28 0 -46 3 -46 3v144s9 -1 22 -1c34 0 93 8 93 66v298c0 48 -19 68 -57 68c-53 0 -88 -31 -103 -76
c-7 -20 -9 -42 -9 -66v-228h-173z" />
    <glyph glyph-name="Omacron" unicode="&#x14c;" horiz-adv-x="796" 
d="M24 362c0 205 158 365 374 365s374 -160 374 -365c0 -210 -158 -374 -374 -374s-374 164 -374 374zM210 362c0 -119 84 -209 188 -209s188 90 188 209c0 114 -84 200 -188 200s-188 -86 -188 -200zM259 782v107h275v-107h-275z" />
    <glyph glyph-name="omacron" unicode="&#x14d;" horiz-adv-x="628" 
d="M23 256c0 162 129 271 290 271c163 0 292 -109 292 -271c0 -161 -129 -268 -291 -268s-291 107 -291 268zM197 256c0 -77 54 -124 117 -124s117 47 117 124c0 78 -54 127 -117 127s-117 -49 -117 -127zM177 586v107h275v-107h-275z" />
    <glyph glyph-name="Obreve" unicode="&#x14e;" horiz-adv-x="796" 
d="M24 362c0 205 158 365 374 365s374 -160 374 -365c0 -210 -158 -374 -374 -374s-374 164 -374 374zM210 362c0 -119 84 -209 188 -209s188 90 188 209c0 114 -84 200 -188 200s-188 -86 -188 -200zM396 756c-81 0 -166 52 -166 145v10h104v-11c0 -40 33 -58 62 -58
s62 18 62 58v11h104v-10c0 -93 -85 -145 -166 -145z" />
    <glyph glyph-name="obreve" unicode="&#x14f;" horiz-adv-x="628" 
d="M23 256c0 162 129 271 290 271c163 0 292 -109 292 -271c0 -161 -129 -268 -291 -268s-291 107 -291 268zM197 256c0 -77 54 -124 117 -124s117 47 117 124c0 78 -54 127 -117 127s-117 -49 -117 -127zM314 560c-81 0 -166 52 -166 145v10h104v-11c0 -40 33 -58 62 -58
s62 18 62 58v11h104v-10c0 -93 -85 -145 -166 -145z" />
    <glyph glyph-name="Ohungarumlaut" unicode="&#x150;" horiz-adv-x="796" 
d="M24 362c0 205 158 365 374 365s374 -160 374 -365c0 -210 -158 -374 -374 -374s-374 164 -374 374zM210 362c0 -119 84 -209 188 -209s188 90 188 209c0 114 -84 200 -188 200s-188 -86 -188 -200zM428 761l81 150h157l-118 -150h-120zM225 761l77 150h133l-79 -150h-131
z" />
    <glyph glyph-name="ohungarumlaut" unicode="&#x151;" horiz-adv-x="628" 
d="M23 256c0 162 129 271 290 271c163 0 292 -109 292 -271c0 -161 -129 -268 -291 -268s-291 107 -291 268zM197 256c0 -77 54 -124 117 -124s117 47 117 124c0 78 -54 127 -117 127s-117 -49 -117 -127zM346 565l81 150h157l-118 -150h-120zM143 565l77 150h133l-79 -150
h-131z" />
    <glyph glyph-name="OE" unicode="&#x152;" horiz-adv-x="993" 
d="M24 359c0 205 167 364 369 364c77 0 97 -8 147 -8h325c51 0 73 -22 73 -73v-138h-160v39c0 14 -8 22 -22 22h-97v-130h204v-150h-204v-135h121c14 0 22 8 22 22v39h160v-138c0 -51 -22 -73 -73 -73h-349c-50 0 -70 -8 -147 -8c-202 0 -369 162 -369 367zM210 359
c0 -117 78 -202 183 -202c51 0 68 1 87 6v387c-21 6 -37 8 -87 8c-105 0 -183 -83 -183 -199z" />
    <glyph glyph-name="oe" unicode="&#x153;" horiz-adv-x="973" 
d="M23 256c0 162 129 271 290 271c100 0 156 -34 204 -80h2c41 45 90 80 190 80c152 0 238 -106 238 -249c0 -17 -4 -52 -4 -52h-325c13 -65 65 -94 120 -94c74 0 137 54 137 54l69 -116s-83 -82 -220 -82c-107 0 -159 39 -201 85h-2c-48 -48 -105 -85 -207 -85
c-162 0 -291 107 -291 268zM623 331h147c-3 32 -21 66 -61 66c-50 0 -75 -28 -86 -66zM197 256c0 -77 54 -124 117 -124s117 47 117 124c0 78 -54 127 -117 127s-117 -49 -117 -127z" />
    <glyph glyph-name="Racute" unicode="&#x154;" horiz-adv-x="655" 
d="M88 0v565h-65v150h334c139 0 236 -81 236 -225c0 -143 -105 -186 -105 -186v-2s28 -12 44 -43l45 -86c11 -21 29 -23 49 -23h12v-150h-98c-50 0 -78 9 -101 53l-84 161c-12 22 -27 27 -64 27h-24v-241h-179zM267 391h62c53 0 81 31 81 88s-28 86 -78 86h-65v-174z
M230 761l81 150h157l-118 -150h-120z" />
    <glyph glyph-name="racute" unicode="&#x155;" horiz-adv-x="444" 
d="M78 0v348c0 14 -8 22 -22 22h-38v145h153c47 0 73 -19 73 -66v-27c0 -16 -2 -26 -2 -26h2c22 70 87 128 164 128c10 0 20 -2 20 -2v-170s-14 3 -35 3c-41 0 -108 -13 -133 -90c-6 -19 -9 -42 -9 -70v-195h-173zM171 565l81 150h157l-118 -150h-120z" />
    <glyph glyph-name="Rcommaaccent" unicode="&#x156;" horiz-adv-x="655" 
d="M88 0v565h-65v150h334c139 0 236 -81 236 -225c0 -143 -105 -186 -105 -186v-2s28 -12 44 -43l45 -86c11 -21 29 -23 49 -23h12v-150h-98c-50 0 -78 9 -101 53l-84 161c-12 22 -27 27 -64 27h-24v-241h-179zM267 391h62c53 0 81 31 81 88s-28 86 -78 86h-65v-174z
M301 -49h122c5 -19 7 -36 7 -53c0 -33 -9 -62 -28 -98h-109c12 33 20 60 20 88c0 19 -3 39 -12 63z" />
    <glyph glyph-name="rcommaaccent" unicode="&#x157;" horiz-adv-x="444" 
d="M78 0v348c0 14 -8 22 -22 22h-38v145h153c47 0 73 -19 73 -66v-27c0 -16 -2 -26 -2 -26h2c22 70 87 128 164 128c10 0 20 -2 20 -2v-170s-14 3 -35 3c-41 0 -108 -13 -133 -90c-6 -19 -9 -42 -9 -70v-195h-173zM109 -49h122c5 -19 7 -36 7 -53c0 -33 -9 -62 -28 -98h-109
c12 33 20 60 20 88c0 19 -3 39 -12 63z" />
    <glyph glyph-name="Rcaron" unicode="&#x158;" horiz-adv-x="655" 
d="M88 0v565h-65v150h334c139 0 236 -81 236 -225c0 -143 -105 -186 -105 -186v-2s28 -12 44 -43l45 -86c11 -21 29 -23 49 -23h12v-150h-98c-50 0 -78 9 -101 53l-84 161c-12 22 -27 27 -64 27h-24v-241h-179zM267 391h62c53 0 81 31 81 88s-28 86 -78 86h-65v-174z
M223 761l-98 150h120l47 -82h2l47 82h121l-99 -150h-140z" />
    <glyph glyph-name="rcaron" unicode="&#x159;" horiz-adv-x="444" 
d="M78 0v348c0 14 -8 22 -22 22h-38v145h153c47 0 73 -19 73 -66v-27c0 -16 -2 -26 -2 -26h2c22 70 87 128 164 128c10 0 20 -2 20 -2v-170s-14 3 -35 3c-41 0 -108 -13 -133 -90c-6 -19 -9 -42 -9 -70v-195h-173zM164 565l-98 150h120l47 -82h2l47 82h121l-99 -150h-140z
" />
    <glyph glyph-name="Sacute" unicode="&#x15a;" horiz-adv-x="564" 
d="M22 106l99 125s74 -84 164 -84c36 0 72 13 72 53c0 79 -324 88 -324 312c0 129 113 215 255 215c95 0 228 -46 228 -155v-78h-160v31c0 26 -37 42 -70 42c-36 0 -73 -15 -73 -48c0 -87 324 -75 324 -310c0 -119 -93 -221 -254 -221c-168 0 -261 118 -261 118zM226 761
l81 150h157l-118 -150h-120z" />
    <glyph glyph-name="sacute" unicode="&#x15b;" horiz-adv-x="488" 
d="M23 82l77 111s72 -74 151 -74c25 0 39 7 39 25c0 43 -258 57 -258 224c0 111 103 159 212 159c84 0 200 -24 200 -117v-61h-150v25c0 14 -22 24 -47 24c-24 0 -46 -8 -46 -24c0 -53 261 -46 261 -219c0 -104 -91 -167 -211 -167c-148 0 -228 94 -228 94zM180 565l81 150
h157l-118 -150h-120z" />
    <glyph glyph-name="Scircumflex" unicode="&#x15c;" horiz-adv-x="564" 
d="M22 106l99 125s74 -84 164 -84c36 0 72 13 72 53c0 79 -324 88 -324 312c0 129 113 215 255 215c95 0 228 -46 228 -155v-78h-160v31c0 26 -37 42 -70 42c-36 0 -73 -15 -73 -48c0 -87 324 -75 324 -310c0 -119 -93 -221 -254 -221c-168 0 -261 118 -261 118zM121 761
l98 150h140l99 -150h-121l-47 82h-2l-47 -82h-120z" />
    <glyph glyph-name="scircumflex" unicode="&#x15d;" horiz-adv-x="488" 
d="M23 82l77 111s72 -74 151 -74c25 0 39 7 39 25c0 43 -258 57 -258 224c0 111 103 159 212 159c84 0 200 -24 200 -117v-61h-150v25c0 14 -22 24 -47 24c-24 0 -46 -8 -46 -24c0 -53 261 -46 261 -219c0 -104 -91 -167 -211 -167c-148 0 -228 94 -228 94zM75 565l98 150
h140l99 -150h-121l-47 82h-2l-47 -82h-120z" />
    <glyph glyph-name="Scedilla" unicode="&#x15e;" horiz-adv-x="565" 
d="M22 106l99 125s74 -84 164 -84c36 0 72 13 72 53c0 79 -324 88 -324 312c0 129 113 215 255 215c95 0 228 -46 228 -155v-78h-160v31c0 26 -37 42 -70 42c-36 0 -73 -15 -73 -48c0 -87 324 -75 324 -310c0 -111 -81 -207 -221 -219l-6 -26c40 -4 75 -27 75 -80
c0 -72 -60 -94 -117 -94c-38 0 -71 9 -71 9v87s23 -10 45 -10s38 7 38 23c0 17 -21 21 -41 21c-13 0 -26 -2 -26 -2l23 74c-138 18 -214 114 -214 114z" />
    <glyph glyph-name="scedilla" unicode="&#x15f;" horiz-adv-x="489" 
d="M23 82l77 111s72 -74 151 -74c25 0 39 7 39 25c0 43 -258 57 -258 224c0 111 103 159 212 159c84 0 200 -24 200 -117v-61h-150v25c0 14 -22 24 -47 24c-24 0 -46 -8 -46 -24c0 -53 261 -46 261 -219c0 -99 -82 -160 -192 -166l-6 -25c40 -4 75 -27 75 -80
c0 -72 -60 -94 -117 -94c-38 0 -71 9 -71 9v87s23 -10 45 -10s38 7 38 23c0 17 -21 21 -41 21c-13 0 -26 -2 -26 -2l23 75c-109 20 -167 89 -167 89z" />
    <glyph glyph-name="Scaron" unicode="&#x160;" horiz-adv-x="564" 
d="M22 106l99 125s74 -84 164 -84c36 0 72 13 72 53c0 79 -324 88 -324 312c0 129 113 215 255 215c95 0 228 -46 228 -155v-78h-160v31c0 26 -37 42 -70 42c-36 0 -73 -15 -73 -48c0 -87 324 -75 324 -310c0 -119 -93 -221 -254 -221c-168 0 -261 118 -261 118zM219 761
l-98 150h120l47 -82h2l47 82h121l-99 -150h-140z" />
    <glyph glyph-name="scaron" unicode="&#x161;" horiz-adv-x="488" 
d="M23 82l77 111s72 -74 151 -74c25 0 39 7 39 25c0 43 -258 57 -258 224c0 111 103 159 212 159c84 0 200 -24 200 -117v-61h-150v25c0 14 -22 24 -47 24c-24 0 -46 -8 -46 -24c0 -53 261 -46 261 -219c0 -104 -91 -167 -211 -167c-148 0 -228 94 -228 94zM173 565l-98 150
h120l47 -82h2l47 82h121l-99 -150h-140z" />
    <glyph glyph-name="Tcommaaccent" unicode="&#x162;" horiz-adv-x="673" 
d="M247 0v565h-58c-14 0 -22 -8 -22 -22v-39h-155v142c0 51 18 69 69 69h511c51 0 69 -18 69 -69v-142h-155v39c0 14 -8 22 -22 22h-58v-565h-52l-9 -36c40 -4 75 -27 75 -80c0 -70 -59 -94 -117 -94c-38 0 -71 9 -71 9v87s23 -10 45 -10s38 7 38 23c0 17 -21 21 -41 21
c-13 0 -26 -2 -26 -2l26 82h-47z" />
    <glyph glyph-name="tcommaaccent" unicode="&#x163;" horiz-adv-x="399" 
d="M81 190v190h-66v135h71v139h168v-139h108v-135h-108v-167c0 -58 59 -66 92 -66c14 0 23 1 23 1v-150s-19 -3 -47 -3c-18 0 -40 1 -63 5l-8 -36c40 -4 75 -27 75 -80c0 -72 -60 -94 -117 -94c-38 0 -71 9 -71 9v87s23 -10 45 -10s38 7 38 23c0 17 -21 21 -41 21
c-13 0 -26 -2 -26 -2l32 102c-57 25 -105 75 -105 170z" />
    <glyph glyph-name="Tcaron" unicode="&#x164;" horiz-adv-x="673" 
d="M247 0v565h-58c-14 0 -22 -8 -22 -22v-39h-155v142c0 51 18 69 69 69h511c51 0 69 -18 69 -69v-142h-155v39c0 14 -8 22 -22 22h-58v-565h-179zM266 761l-98 150h120l47 -82h2l47 82h121l-99 -150h-140z" />
    <glyph glyph-name="tcaron" unicode="&#x165;" horiz-adv-x="399" 
d="M81 190v190h-66v135h71v139h168v-139h108v-135h-108v-167c0 -58 59 -66 92 -66c14 0 23 1 23 1v-150s-19 -3 -47 -3c-82 0 -241 22 -241 195zM302 715h122c5 -19 7 -36 7 -53c0 -33 -9 -62 -28 -98h-109c12 33 20 60 20 88c0 19 -3 39 -12 63z" />
    <glyph glyph-name="Tbar" unicode="&#x166;" horiz-adv-x="684" 
d="M252 0v272h-138v127h138v166h-58c-14 0 -22 -8 -22 -22v-39h-155v142c0 51 18 69 69 69h511c51 0 69 -18 69 -69v-142h-155v39c0 14 -8 22 -22 22h-58v-166h148v-127h-148v-272h-179z" />
    <glyph glyph-name="tbar" unicode="&#x167;" horiz-adv-x="401" 
d="M82 190v19h-66v107h66v64h-66v135h71v139h168v-139h108v-135h-108v-64h108v-107h-108v-3c0 -50 59 -59 92 -59c14 0 23 1 23 1v-150s-19 -3 -47 -3c-82 0 -241 22 -241 195z" />
    <glyph glyph-name="Utilde" unicode="&#x168;" horiz-adv-x="754" 
d="M83 263v280c0 14 -8 22 -22 22h-43v150h171c51 0 73 -22 73 -73v-374c0 -75 47 -115 115 -115s115 40 115 115v374c0 51 22 73 73 73h171v-150h-43c-14 0 -22 -8 -22 -22v-280c0 -161 -116 -275 -293 -275c-179 0 -295 114 -295 275zM176 761c0 101 44 153 131 153
c70 0 90 -60 130 -60c24 0 41 19 41 57h101c0 -101 -44 -153 -131 -153c-70 0 -90 60 -130 60c-24 0 -41 -19 -41 -57h-101z" />
    <glyph glyph-name="utilde" unicode="&#x169;" horiz-adv-x="660" 
d="M73 181v167c0 14 -8 22 -22 22h-38v145h160c51 0 73 -22 73 -73v-229c0 -48 19 -68 55 -68c74 0 109 65 109 142v228h173v-348c0 -14 8 -22 22 -22h38v-145h-153c-47 0 -73 23 -73 58v7c0 5 1 12 1 12h-2c-28 -55 -91 -89 -160 -89c-102 0 -183 48 -183 193zM122 565
c0 101 44 153 131 153c70 0 90 -60 130 -60c24 0 41 19 41 57h101c0 -101 -44 -153 -131 -153c-70 0 -90 60 -130 60c-24 0 -41 -19 -41 -57h-101z" />
    <glyph glyph-name="Umacron" unicode="&#x16a;" horiz-adv-x="754" 
d="M83 263v280c0 14 -8 22 -22 22h-43v150h171c51 0 73 -22 73 -73v-374c0 -75 47 -115 115 -115s115 40 115 115v374c0 51 22 73 73 73h171v-150h-43c-14 0 -22 -8 -22 -22v-280c0 -161 -116 -275 -293 -275c-179 0 -295 114 -295 275zM240 782v107h275v-107h-275z" />
    <glyph glyph-name="umacron" unicode="&#x16b;" horiz-adv-x="660" 
d="M73 181v167c0 14 -8 22 -22 22h-38v145h160c51 0 73 -22 73 -73v-229c0 -48 19 -68 55 -68c74 0 109 65 109 142v228h173v-348c0 -14 8 -22 22 -22h38v-145h-153c-47 0 -73 23 -73 58v7c0 5 1 12 1 12h-2c-28 -55 -91 -89 -160 -89c-102 0 -183 48 -183 193zM186 586v107
h275v-107h-275z" />
    <glyph glyph-name="Ubreve" unicode="&#x16c;" horiz-adv-x="754" 
d="M83 263v280c0 14 -8 22 -22 22h-43v150h171c51 0 73 -22 73 -73v-374c0 -75 47 -115 115 -115s115 40 115 115v374c0 51 22 73 73 73h171v-150h-43c-14 0 -22 -8 -22 -22v-280c0 -161 -116 -275 -293 -275c-179 0 -295 114 -295 275zM377 756c-81 0 -166 52 -166 145v10
h104v-11c0 -40 33 -58 62 -58s62 18 62 58v11h104v-10c0 -93 -85 -145 -166 -145z" />
    <glyph glyph-name="ubreve" unicode="&#x16d;" horiz-adv-x="660" 
d="M73 181v167c0 14 -8 22 -22 22h-38v145h160c51 0 73 -22 73 -73v-229c0 -48 19 -68 55 -68c74 0 109 65 109 142v228h173v-348c0 -14 8 -22 22 -22h38v-145h-153c-47 0 -73 23 -73 58v7c0 5 1 12 1 12h-2c-28 -55 -91 -89 -160 -89c-102 0 -183 48 -183 193zM323 560
c-81 0 -166 52 -166 145v10h104v-11c0 -40 33 -58 62 -58s62 18 62 58v11h104v-10c0 -93 -85 -145 -166 -145z" />
    <glyph glyph-name="Uring" unicode="&#x16e;" horiz-adv-x="754" 
d="M83 263v280c0 14 -8 22 -22 22h-43v150h171c51 0 73 -22 73 -73v-374c0 -75 47 -115 115 -115s115 40 115 115v374c0 51 22 73 73 73h171v-150h-43c-14 0 -22 -8 -22 -22v-280c0 -161 -116 -275 -293 -275c-179 0 -295 114 -295 275zM377 747c-49 0 -101 26 -101 85
s52 86 101 86s102 -27 102 -86s-53 -85 -102 -85zM377 797c21 0 37 14 37 35c0 22 -16 36 -37 36c-20 0 -36 -14 -36 -36c0 -21 15 -35 36 -35z" />
    <glyph glyph-name="uring" unicode="&#x16f;" horiz-adv-x="660" 
d="M73 181v167c0 14 -8 22 -22 22h-38v145h160c51 0 73 -22 73 -73v-229c0 -48 19 -68 55 -68c74 0 109 65 109 142v228h173v-348c0 -14 8 -22 22 -22h38v-145h-153c-47 0 -73 23 -73 58v7c0 5 1 12 1 12h-2c-28 -55 -91 -89 -160 -89c-102 0 -183 48 -183 193zM323 551
c-49 0 -101 26 -101 85s52 86 101 86s102 -27 102 -86s-53 -85 -102 -85zM323 601c21 0 37 14 37 35c0 22 -16 36 -37 36c-20 0 -36 -14 -36 -36c0 -21 15 -35 36 -35z" />
    <glyph glyph-name="Uhungarumlaut" unicode="&#x170;" horiz-adv-x="754" 
d="M83 263v280c0 14 -8 22 -22 22h-43v150h171c51 0 73 -22 73 -73v-374c0 -75 47 -115 115 -115s115 40 115 115v374c0 51 22 73 73 73h171v-150h-43c-14 0 -22 -8 -22 -22v-280c0 -161 -116 -275 -293 -275c-179 0 -295 114 -295 275zM409 761l81 150h157l-118 -150h-120z
M206 761l77 150h133l-79 -150h-131z" />
    <glyph glyph-name="uhungarumlaut" unicode="&#x171;" horiz-adv-x="660" 
d="M73 181v167c0 14 -8 22 -22 22h-38v145h160c51 0 73 -22 73 -73v-229c0 -48 19 -68 55 -68c74 0 109 65 109 142v228h173v-348c0 -14 8 -22 22 -22h38v-145h-153c-47 0 -73 23 -73 58v7c0 5 1 12 1 12h-2c-28 -55 -91 -89 -160 -89c-102 0 -183 48 -183 193zM355 565
l81 150h157l-118 -150h-120zM152 565l77 150h133l-79 -150h-131z" />
    <glyph glyph-name="Uogonek" unicode="&#x172;" horiz-adv-x="756" 
d="M83 263v280c0 14 -8 22 -22 22h-43v150h171c51 0 73 -22 73 -73v-374c0 -75 47 -115 115 -115s115 40 115 115v374c0 51 22 73 73 73h171v-150h-43c-14 0 -22 -8 -22 -22v-280c0 -112 -51 -190 -150 -248c-29 -17 -61 -54 -61 -76s38 -25 38 -25l-42 -124
s-133 13 -133 99c0 42 27 80 56 101v2s-13 -1 -23 -1c-162 0 -273 119 -273 272z" />
    <glyph glyph-name="uogonek" unicode="&#x173;" horiz-adv-x="660" 
d="M73 181v167c0 14 -8 22 -22 22h-38v145h160c51 0 73 -22 73 -73v-229c0 -48 19 -68 55 -68c74 0 109 65 109 142v228h173v-348c0 -14 8 -22 22 -22h38v-145c-17 -16 -42 -42 -42 -61c0 -22 38 -25 38 -25l-42 -124s-133 13 -133 99c0 50 34 85 66 109v2h-41
c-47 0 -72 23 -72 58v7c0 5 1 12 1 12h-3s-40 -89 -159 -89c-102 0 -183 48 -183 193z" />
    <glyph glyph-name="Wcircumflex" unicode="&#x174;" horiz-adv-x="1028" 
d="M204 0l-136 543c-4 17 -12 22 -28 22h-25v150h128c49 0 80 -14 89 -58l79 -374c9 -44 9 -75 9 -75h2s1 31 12 75l109 431h143l108 -431c11 -44 12 -75 12 -75h2s0 31 9 75l79 374c9 44 39 58 89 58h128v-150h-25c-16 0 -24 -5 -28 -22l-136 -543h-205l-90 333
c-13 46 -14 76 -14 76h-2s-1 -30 -14 -76l-90 -333h-205zM346 761l98 150h140l99 -150h-121l-47 82h-2l-47 -82h-120z" />
    <glyph glyph-name="wcircumflex" unicode="&#x175;" horiz-adv-x="848" 
d="M157 0l-104 354c-4 13 -10 16 -22 16h-15v145h128c38 0 60 -15 67 -49l52 -255c6 -28 6 -54 6 -54h2s2 26 9 54l71 302h148l71 -302c7 -28 8 -54 8 -54h2s0 26 6 54l52 255c7 34 28 49 66 49h128v-145h-15c-12 0 -17 -3 -22 -16l-104 -354h-197l-58 238
c-7 28 -10 55 -10 55h-2s-3 -27 -10 -55l-58 -238h-199zM257 565l98 150h140l99 -150h-121l-47 82h-2l-47 -82h-120z" />
    <glyph glyph-name="Ycircumflex" unicode="&#x176;" horiz-adv-x="633" 
d="M227 0v313l-152 230c-13 20 -14 22 -36 22h-29v150h98c44 0 68 -7 92 -48l73 -123c27 -46 43 -80 43 -80h2s16 34 43 80l72 123c24 41 48 48 92 48h98v-150h-29c-22 0 -23 -2 -36 -22l-152 -230v-313h-179zM149 761l98 150h140l99 -150h-121l-47 82h-2l-47 -82h-120z" />
    <glyph glyph-name="ycircumflex" unicode="&#x177;" horiz-adv-x="571" 
d="M58 -33c0 0 30 -33 71 -33c28 0 60 8 77 51l6 15l-163 354c-6 13 -10 16 -22 16h-19v145h126c29 0 50 -15 60 -42l76 -208c10 -28 19 -80 19 -80h2s9 52 17 80l57 208c7 27 34 42 61 42h129v-145h-19c-12 0 -19 -3 -24 -16l-156 -409c-44 -114 -133 -155 -215 -155
c-89 0 -145 55 -145 55zM119 565l98 150h140l99 -150h-121l-47 82h-2l-47 -82h-120z" />
    <glyph glyph-name="Ydieresis" unicode="&#x178;" horiz-adv-x="633" 
d="M227 0v313l-152 230c-13 20 -14 22 -36 22h-29v150h98c44 0 68 -7 92 -48l73 -123c27 -46 43 -80 43 -80h2s16 34 43 80l72 123c24 41 48 48 92 48h98v-150h-29c-22 0 -23 -2 -36 -22l-152 -230v-313h-179zM363 771v140h112v-140h-112zM160 771v140h112v-140h-112z" />
    <glyph glyph-name="Zacute" unicode="&#x179;" horiz-adv-x="633" 
d="M36 0v110l273 391c31 44 55 65 55 65v2s-23 -3 -55 -3h-88c-14 0 -22 -8 -22 -22v-39h-160v138c0 51 22 73 73 73h475v-108l-274 -393c-31 -44 -55 -65 -55 -65v-2s23 3 55 3h108c14 0 22 8 22 22v39h160v-138c0 -51 -22 -73 -73 -73h-494zM263 761l81 150h157l-118 -150
h-120z" />
    <glyph glyph-name="zacute" unicode="&#x17a;" horiz-adv-x="549" 
d="M34 0v86l198 237c26 32 45 47 45 47v2s-13 -2 -45 -2h-19c-14 0 -22 -8 -22 -22v-21h-155v115c0 51 22 73 73 73h394v-87l-197 -237c-25 -31 -46 -47 -46 -47v-2s13 3 46 3h38c14 0 22 8 22 22v21h155v-115c0 -51 -22 -73 -73 -73h-414zM220 565l81 150h157l-118 -150
h-120z" />
    <glyph glyph-name="Zdotaccent" unicode="&#x17b;" horiz-adv-x="633" 
d="M36 0v110l273 391c31 44 55 65 55 65v2s-23 -3 -55 -3h-88c-14 0 -22 -8 -22 -22v-39h-160v138c0 51 22 73 73 73h475v-108l-274 -393c-31 -44 -55 -65 -55 -65v-2s23 3 55 3h108c14 0 22 8 22 22v39h160v-138c0 -51 -22 -73 -73 -73h-494zM254 771v140h145v-140h-145z
" />
    <glyph glyph-name="zdotaccent" unicode="&#x17c;" horiz-adv-x="549" 
d="M34 0v86l198 237c26 32 45 47 45 47v2s-13 -2 -45 -2h-19c-14 0 -22 -8 -22 -22v-21h-155v115c0 51 22 73 73 73h394v-87l-197 -237c-25 -31 -46 -47 -46 -47v-2s13 3 46 3h38c14 0 22 8 22 22v21h155v-115c0 -51 -22 -73 -73 -73h-414zM211 575v140h145v-140h-145z" />
    <glyph glyph-name="Zcaron" unicode="&#x17d;" horiz-adv-x="633" 
d="M36 0v110l273 391c31 44 55 65 55 65v2s-23 -3 -55 -3h-88c-14 0 -22 -8 -22 -22v-39h-160v138c0 51 22 73 73 73h475v-108l-274 -393c-31 -44 -55 -65 -55 -65v-2s23 3 55 3h108c14 0 22 8 22 22v39h160v-138c0 -51 -22 -73 -73 -73h-494zM256 761l-98 150h120l47 -82h2
l47 82h121l-99 -150h-140z" />
    <glyph glyph-name="zcaron" unicode="&#x17e;" horiz-adv-x="549" 
d="M34 0v86l198 237c26 32 45 47 45 47v2s-13 -2 -45 -2h-19c-14 0 -22 -8 -22 -22v-21h-155v115c0 51 22 73 73 73h394v-87l-197 -237c-25 -31 -46 -47 -46 -47v-2s13 3 46 3h38c14 0 22 8 22 22v21h155v-115c0 -51 -22 -73 -73 -73h-414zM213 565l-98 150h120l47 -82h2
l47 82h121l-99 -150h-140z" />
    <glyph glyph-name="longs" unicode="&#x17f;" horiz-adv-x="315" 
d="M79 0v380h-63v135h63v12c0 169 153 192 236 192c31 0 52 -3 52 -3v-146s-12 2 -28 2c-34 0 -87 -9 -87 -53v-519h-173z" />
    <glyph glyph-name="florin" unicode="&#x192;" 
d="M77 93c0 0 11 -2 27 -2c33 0 87 9 92 64l13 155h-62v135h74l8 82c16 169 167 192 252 192c31 0 52 -3 52 -3l-13 -146s-11 2 -27 2c-34 0 -88 -9 -93 -64l-6 -63h95v-135h-107l-15 -174c-15 -169 -168 -192 -251 -192c-31 0 -52 3 -52 3z" />
    <glyph glyph-name="Scommaaccent" unicode="&#x218;" horiz-adv-x="564" 
d="M22 106l99 125s74 -84 164 -84c36 0 72 13 72 53c0 79 -324 88 -324 312c0 129 113 215 255 215c95 0 228 -46 228 -155v-78h-160v31c0 26 -37 42 -70 42c-36 0 -73 -15 -73 -48c0 -87 324 -75 324 -310c0 -119 -93 -221 -254 -221c-168 0 -261 118 -261 118zM219 -49
h122c5 -19 7 -36 7 -53c0 -33 -9 -62 -28 -98h-109c12 33 20 60 20 88c0 19 -3 39 -12 63z" />
    <glyph glyph-name="scommaaccent" unicode="&#x219;" horiz-adv-x="488" 
d="M23 82l77 111s72 -74 151 -74c25 0 39 7 39 25c0 43 -258 57 -258 224c0 111 103 159 212 159c84 0 200 -24 200 -117v-61h-150v25c0 14 -22 24 -47 24c-24 0 -46 -8 -46 -24c0 -53 261 -46 261 -219c0 -104 -91 -167 -211 -167c-148 0 -228 94 -228 94zM180 -49h122
c5 -19 7 -36 7 -53c0 -33 -9 -62 -28 -98h-109c12 33 20 60 20 88c0 19 -3 39 -12 63z" />
    <glyph glyph-name="uni021A" unicode="&#x21a;" horiz-adv-x="673" 
d="M247 0v565h-58c-14 0 -22 -8 -22 -22v-39h-155v142c0 51 18 69 69 69h511c51 0 69 -18 69 -69v-142h-155v39c0 14 -8 22 -22 22h-58v-565h-179zM266 -49h122c5 -19 7 -36 7 -53c0 -33 -9 -62 -28 -98h-109c12 33 20 60 20 88c0 19 -3 39 -12 63z" />
    <glyph glyph-name="uni021B" unicode="&#x21b;" horiz-adv-x="399" 
d="M81 190v190h-66v135h71v139h168v-139h108v-135h-108v-167c0 -58 59 -66 92 -66c14 0 23 1 23 1v-150s-19 -3 -47 -3c-82 0 -241 22 -241 195zM154 -49h122c5 -19 7 -36 7 -53c0 -33 -9 -62 -28 -98h-109c12 33 20 60 20 88c0 19 -3 39 -12 63z" />
    <glyph glyph-name="circumflex" unicode="&#x2c6;" horiz-adv-x="525" 
d="M95 761l98 150h140l99 -150h-121l-47 82h-2l-47 -82h-120z" />
    <glyph glyph-name="caron" unicode="&#x2c7;" horiz-adv-x="525" 
d="M192 761l-98 150h120l47 -82h2l47 82h121l-99 -150h-140z" />
    <glyph glyph-name="breve" unicode="&#x2d8;" horiz-adv-x="543" 
d="M271 756c-81 0 -166 52 -166 145v10h104v-11c0 -40 33 -58 62 -58s62 18 62 58v11h104v-10c0 -93 -85 -145 -166 -145z" />
    <glyph glyph-name="dotaccent" unicode="&#x2d9;" horiz-adv-x="343" 
d="M99 771v140h145v-140h-145z" />
    <glyph glyph-name="ring" unicode="&#x2da;" horiz-adv-x="391" 
d="M195 747c-49 0 -101 26 -101 85s52 86 101 86s102 -27 102 -86s-53 -85 -102 -85zM195 797c21 0 37 14 37 35c0 22 -16 36 -37 36c-20 0 -36 -14 -36 -36c0 -21 15 -35 36 -35z" />
    <glyph glyph-name="ogonek" unicode="&#x2db;" horiz-adv-x="407" 
d="M116 -111c0 71 84 125 84 125h110s-57 -49 -57 -75c0 -22 38 -25 38 -25l-42 -124s-133 13 -133 99z" />
    <glyph glyph-name="tilde" unicode="&#x2dc;" horiz-adv-x="592" 
d="M101 761c0 101 44 153 131 153c70 0 90 -60 130 -60c24 0 41 19 41 57h101c0 -101 -44 -153 -131 -153c-70 0 -90 60 -130 60c-24 0 -41 -19 -41 -57h-101z" />
    <glyph glyph-name="hungarumlaut" unicode="&#x2dd;" horiz-adv-x="587" 
d="M287 761l81 150h157l-118 -150h-120zM84 761l77 150h133l-79 -150h-131z" />
    <glyph glyph-name="uni1E9E" unicode="&#x1e9e;" horiz-adv-x="685" 
d="M25 0v150h43c14 0 22 8 22 22v308c0 141 96 235 241 235h296v-120l-92 -148c-9 -15 -20 -29 -20 -29v-2l9 -2c89 -20 133 -115 133 -196c0 -124 -104 -218 -231 -218h-93v150h80c44 0 64 34 64 68c0 33 -19 66 -64 66h-80v120l53 97c26 48 45 65 45 65v2s-9 -3 -45 -3
h-54c-37 0 -63 -35 -63 -81v-411c0 -51 -22 -73 -73 -73h-171z" />
    <glyph glyph-name="endash" unicode="&#x2013;" horiz-adv-x="706" 
d="M55 222v130h596v-130h-596z" />
    <glyph glyph-name="emdash" unicode="&#x2014;" horiz-adv-x="906" 
d="M55 222v130h796v-130h-796z" />
    <glyph glyph-name="quoteleft" unicode="&#x2018;" horiz-adv-x="263" 
d="M35 475l89 255h112l-54 -255h-147z" />
    <glyph glyph-name="quoteright" unicode="&#x2019;" horiz-adv-x="255" 
d="M42 475l54 255h147l-89 -255h-112z" />
    <glyph glyph-name="quotesinglbase" unicode="&#x201a;" horiz-adv-x="268" 
d="M21 -89l54 255h147l-89 -255h-112z" />
    <glyph glyph-name="quotedblleft" unicode="&#x201c;" horiz-adv-x="455" 
d="M227 475l89 255h112l-54 -255h-147zM35 475l89 255h112l-54 -255h-147z" />
    <glyph glyph-name="quotedblright" unicode="&#x201d;" horiz-adv-x="447" 
d="M234 475l54 255h147l-89 -255h-112zM42 475l54 255h147l-89 -255h-112z" />
    <glyph glyph-name="quotedblbase" unicode="&#x201e;" horiz-adv-x="460" 
d="M213 -89l54 255h147l-89 -255h-112zM21 -89l54 255h147l-89 -255h-112z" />
    <glyph glyph-name="dagger" unicode="&#x2020;" horiz-adv-x="494" 
d="M164 -50v435h-130v130h130v200h165v-200h131v-130h-131v-435h-165z" />
    <glyph glyph-name="daggerdbl" unicode="&#x2021;" horiz-adv-x="506" 
d="M40 150v130h130v105h-130v130h130v200h165v-200h131v-130h-131v-105h131v-130h-131v-200h-165v200h-130z" />
    <glyph glyph-name="bullet" unicode="&#x2022;" horiz-adv-x="502" 
d="M251 105c-103 0 -186 83 -186 186s83 186 186 186s186 -83 186 -186s-83 -186 -186 -186z" />
    <glyph glyph-name="ellipsis" unicode="&#x2026;" horiz-adv-x="910" 
d="M700 0v164h158v-164h-158zM376 0v164h158v-164h-158zM52 0v164h158v-164h-158z" />
    <glyph glyph-name="perthousand" unicode="&#x2030;" horiz-adv-x="1263" 
d="M221 382c-101 0 -181 76 -181 172c0 94 80 173 181 173c100 0 181 -79 181 -173c0 -96 -81 -172 -181 -172zM80 0l552 715h152l-552 -715h-152zM221 502c30 0 55 23 55 53c0 28 -25 52 -55 52s-55 -24 -55 -52c0 -30 25 -53 55 -53zM869 160c0 94 80 173 181 173
c100 0 181 -79 181 -173c0 -96 -81 -172 -181 -172c-101 0 -181 76 -181 172zM467 160c0 94 80 173 181 173c100 0 181 -79 181 -173c0 -96 -81 -172 -181 -172c-101 0 -181 76 -181 172zM995 161c0 -30 25 -53 55 -53s55 23 55 53c0 28 -25 52 -55 52s-55 -24 -55 -52z
M593 161c0 -30 25 -53 55 -53s55 23 55 53c0 28 -25 52 -55 52s-55 -24 -55 -52z" />
    <glyph glyph-name="guilsinglleft" unicode="&#x2039;" horiz-adv-x="387" 
d="M194 77l-164 205l164 206h158l-164 -206l164 -205h-158z" />
    <glyph glyph-name="guilsinglright" unicode="&#x203a;" horiz-adv-x="387" 
d="M35 77l164 205l-164 206h158l164 -206l-164 -205h-158z" />
    <glyph glyph-name="fraction" unicode="&#x2044;" horiz-adv-x="150" 
d="M8 0h-127l261 715h127z" />
    <glyph glyph-name="Euro" unicode="&#x20ac;" 
d="M22 237v96h66s-2 16 -2 26c0 6 1 22 1 22h-65v96h82c46 147 182 250 347 250c54 0 105 -14 105 -14l-43 -158s-33 10 -67 10c-69 0 -124 -32 -154 -88h206l-20 -96h-209s-1 -13 -1 -19c0 -10 3 -29 3 -29h197l-20 -96h-145c32 -53 89 -84 151 -84c53 0 100 17 100 17
l30 -160s-57 -22 -133 -22c-172 0 -299 101 -345 249h-84z" />
    <glyph glyph-name="trademark" unicode="&#x2122;" horiz-adv-x="1039" 
d="M464 268v109h20c5 0 8 2 8 7l27 331h118l73 -175c6 -15 13 -44 13 -44h2s7 29 13 44l73 175h118l27 -331c0 -5 3 -7 8 -7h21v-109h-100c-36 0 -50 6 -52 44l-8 130c-1 15 1 32 1 32h-2l-51 -125h-98l-51 125h-2s2 -17 1 -32l-8 -130c-2 -38 -16 -44 -52 -44h-99zM199 268
v338h-30c-4 0 -6 -2 -6 -6v-29h-106v100c0 34 10 44 48 44h313c37 0 47 -10 47 -44v-100h-102v29c0 4 -2 6 -6 6h-32v-338h-126z" />
    <glyph glyph-name="minus" unicode="&#x2212;" 
d="M27 222v130h546v-130h-546z" />
    <glyph glyph-name="infinity" unicode="&#x221e;" horiz-adv-x="493" 
d="M247 143c-113 0 -206 93 -206 206c0 114 93 205 206 205c114 0 205 -91 205 -205c0 -113 -91 -206 -205 -206z" />
    <glyph glyph-name="approxequal" unicode="&#x2248;" 
d="M98 322l-63 99c41 41 100 81 165 81c94 0 127 -70 198 -70c38 0 77 25 102 54l63 -99c-40 -40 -99 -81 -165 -81c-94 0 -127 70 -198 70c-39 0 -76 -26 -102 -54zM98 93l-63 99c41 41 100 81 165 81c94 0 127 -70 198 -70c38 0 77 25 102 54l63 -99
c-40 -40 -99 -81 -165 -81c-94 0 -127 70 -198 70c-39 0 -76 -26 -102 -54z" />
    <glyph glyph-name="notequal" unicode="&#x2260;" 
d="M97 47l38 60h-88v130h171l64 100h-235v130h319l69 108l76 -49l-38 -59h80v-130h-163l-64 -100h227v-130h-310l-68 -107z" />
    <glyph glyph-name="lessequal" unicode="&#x2264;" 
d="M41 234v107l504 223v-145l-330 -131v-2l330 -130v-145zM44 -70h501v-130h-501v130z" />
    <glyph glyph-name="greaterequal" unicode="&#x2265;" 
d="M55 11v145l330 130v2l-330 131v145l504 -223v-107zM56 -70h501v-130h-501v130z" />
    <glyph glyph-name="commaaccent" unicode="&#xf6c3;" horiz-adv-x="335" 
d="M115 -49h122c5 -19 7 -36 7 -53c0 -33 -9 -62 -28 -98h-109c12 33 20 60 20 88c0 19 -3 39 -12 63z" />
    <glyph glyph-name="apple" unicode="&#xf8ff;" horiz-adv-x="1130" 
d="M42 128v278l126 71v151l265 142l134 -71l132 71l265 -142v-151l124 -71v-278l-124 -72v-152l-265 -141l-132 71l-134 -71l-265 141v152zM94 142l114 -64v-139l238 -126l121 66l118 -66l238 126v139l114 64v249l-114 66v136l-238 126l-118 -64l-121 64l-238 -126v-136
l-114 -66v-249zM143 154v225l99 58v123l215 114l110 -59l107 59l214 -114v-123l100 -58v-225l-100 -60v-121l-214 -114l-107 58l-110 -58l-215 114v121zM426 0h129v171h176v108h-176v128h85c15 0 16 -7 16 -21v-21h115v102c0 33 -10 48 -47 48h-346v-108h48v-407z" />
    <glyph glyph-name="zero.tnum" 
d="M300 -12c-203 0 -269 166 -269 371s66 368 269 368s269 -163 269 -368s-66 -371 -269 -371zM300 148c69 0 89 94 89 211c0 116 -20 208 -89 208s-89 -92 -89 -208c0 -117 20 -211 89 -211z" />
    <glyph glyph-name="one.tnum" 
d="M77 0v150h150v298c0 27 1 55 1 55h-2s-9 -20 -28 -38l-43 -39l-101 108l193 181h159v-565h151v-150h-480z" />
    <glyph glyph-name="two.tnum" 
d="M30 113c0 255 327 247 327 392c0 40 -31 60 -71 60c-45 0 -67 -23 -67 -41v-29h-160v84c0 99 128 148 234 148c117 0 244 -70 244 -219c0 -235 -320 -264 -320 -343c0 -12 8 -15 30 -15h139c14 0 22 8 22 22v39h160v-138c0 -51 -22 -73 -73 -73h-384
c-74 0 -81 33 -81 113z" />
    <glyph glyph-name="three.tnum" 
d="M34 89l84 135s67 -71 167 -71c59 0 92 31 92 71c0 38 -40 69 -105 69h-51l-35 85l79 123c29 46 56 67 56 67v2s-23 -5 -68 -5h-15c-14 0 -22 -8 -22 -22v-39h-160v138c0 51 13 73 64 73h410v-109l-129 -173c102 -23 157 -111 157 -206c0 -117 -88 -239 -270 -239
c-166 0 -254 101 -254 101z" />
    <glyph glyph-name="four.tnum" 
d="M7 168v111l256 436h217v-397h106v-150h-106v-168h-179v168h-294zM189 315c0 0 29 3 65 3h50v125c0 39 6 85 6 85h-2s-18 -44 -35 -74l-50 -89c-17 -30 -34 -48 -34 -48v-2z" />
    <glyph glyph-name="five.tnum" 
d="M36 84l82 138s69 -69 167 -69c62 0 95 40 95 83c0 65 -64 87 -131 87c-76 0 -132 -27 -132 -27l-54 30l22 316c4 51 22 73 73 73h286c51 0 73 -22 73 -73v-138h-160v39c0 14 -8 22 -22 22h-70c-14 0 -21 -8 -22 -22l-3 -49c-1 -14 -3 -28 -3 -28h2s25 4 51 4
c179 0 271 -105 271 -237c0 -123 -91 -246 -276 -246c-158 0 -249 97 -249 97z" />
    <glyph glyph-name="six.tnum" 
d="M327 -12c-144 0 -290 107 -290 337c0 196 119 402 341 402c100 0 158 -31 158 -31l-47 -150s-47 21 -98 21c-82 0 -130 -52 -152 -118h2c17 12 62 25 96 25c149 0 234 -122 234 -245c0 -121 -89 -241 -244 -241zM219 290c0 -85 58 -142 108 -142c44 0 72 38 72 80
c0 51 -31 105 -108 105c-38 0 -72 -10 -72 -43z" />
    <glyph glyph-name="seven.tnum" 
d="M55 0l283 501c27 48 46 65 46 65v2s-10 -3 -46 -3h-107c-14 0 -22 -8 -22 -22v-39h-160v138c0 51 13 73 64 73h466v-122l-330 -593h-194z" />
    <glyph glyph-name="eight.tnum" 
d="M33 211c0 101 95 169 95 169v2s-64 48 -64 139c0 105 84 206 239 206c143 0 239 -90 239 -205c0 -93 -64 -151 -64 -151v-2c59 -41 87 -102 87 -163c0 -109 -97 -218 -267 -218c-156 0 -265 99 -265 223zM300 451c8 -4 26 -12 35 -12c20 0 37 34 37 70s-28 58 -69 58
c-43 0 -68 -24 -68 -50c0 -29 27 -49 65 -66zM211 223c0 -44 34 -75 87 -75c52 0 87 28 87 67c0 32 -33 52 -77 72c-30 14 -41 20 -50 20c-21 0 -47 -42 -47 -84z" />
    <glyph glyph-name="nine.tnum" 
d="M64 19l47 150s47 -21 98 -21c82 0 130 52 152 118h-2c-16 -12 -62 -25 -96 -25c-149 0 -234 122 -234 245c0 121 89 241 244 241c144 0 290 -107 290 -337c0 -196 -119 -402 -341 -402c-100 0 -158 31 -158 31zM309 382c38 0 72 10 72 43c0 85 -58 142 -108 142
c-44 0 -72 -38 -72 -80c0 -51 31 -105 108 -105z" />
    <glyph glyph-name="hyphen.case" horiz-adv-x="418" 
d="M52 272v150h314v-150h-314z" />
    <glyph glyph-name="parenleft.case" horiz-adv-x="323" 
d="M158 -65c-85 114 -125 264 -125 416c0 155 41 310 125 429h143c-78 -130 -115 -273 -115 -417c0 -147 39 -295 115 -428h-143z" />
    <glyph glyph-name="parenright.case" horiz-adv-x="323" 
d="M22 -65c76 133 115 281 115 428c0 144 -37 287 -115 417h143c84 -119 125 -274 125 -429c0 -152 -40 -302 -125 -416h-143z" />
    <glyph glyph-name="bracketleft.case" horiz-adv-x="340" 
d="M64 8v699c0 51 22 73 73 73h173v-120h-80c-14 0 -22 -8 -22 -22v-561c0 -14 8 -22 22 -22h80v-120h-173c-51 0 -73 22 -73 73z" />
    <glyph glyph-name="bracketright.case" horiz-adv-x="340" 
d="M30 55h80c14 0 22 8 22 22v561c0 14 -8 22 -22 22h-80v120h173c51 0 73 -22 73 -73v-699c0 -51 -22 -73 -73 -73h-173v120z" />
    <glyph glyph-name="braceleft.case" horiz-adv-x="380" 
d="M108 92v98c0 96 -85 96 -85 96v150s85 0 85 99v88c0 143 129 162 199 162c25 0 43 -2 43 -2v-124s-11 2 -25 2c-29 0 -73 -8 -73 -54v-117c0 -102 -84 -127 -84 -127v-2s84 -21 84 -126v-127c0 -46 44 -54 73 -54c14 0 25 2 25 2v-124s-18 -2 -43 -2
c-70 0 -199 19 -199 162z" />
    <glyph glyph-name="braceright.case" horiz-adv-x="380" 
d="M30 56c0 0 11 -2 25 -2c29 0 73 8 73 54v127c0 105 84 126 84 126v2s-84 25 -84 127v117c0 46 -44 54 -73 54c-14 0 -25 -2 -25 -2v124s18 2 43 2c70 0 199 -19 199 -162v-88c0 -99 85 -99 85 -99v-150s-85 0 -85 -96v-98c0 -143 -129 -162 -199 -162c-25 0 -43 2 -43 2
v124z" />
    <glyph glyph-name="at.case" horiz-adv-x="843" 
d="M43 355c0 211 168 376 393 376c221 0 298 -110 298 -240v-198h74v-119h-283c-150 0 -227 91 -227 182c0 88 74 176 227 176h49c0 43 -73 64 -135 64c-130 0 -227 -120 -227 -241c0 -127 88 -239 252 -239v-130c-262 0 -421 163 -421 369zM469 360c0 -37 22 -67 66 -67h39
v134h-37c-46 0 -68 -31 -68 -67z" />
    <glyph glyph-name="guillemotleft.case" horiz-adv-x="647" 
d="M454 137l-164 205l164 206h158l-164 -206l164 -205h-158zM194 137l-164 205l164 206h158l-164 -206l164 -205h-158z" />
    <glyph glyph-name="guillemotright.case" horiz-adv-x="647" 
d="M295 137l164 205l-164 206h158l164 -206l-164 -205h-158zM35 137l164 205l-164 206h158l164 -206l-164 -205h-158z" />
    <glyph glyph-name="guilsinglleft.case" horiz-adv-x="387" 
d="M194 137l-164 205l164 206h158l-164 -206l164 -205h-158z" />
    <glyph glyph-name="guilsinglright.case" horiz-adv-x="387" 
d="M35 137l164 205l-164 206h158l164 -206l-164 -205h-158z" />
    <glyph glyph-name="endash.case" horiz-adv-x="702" 
d="M53 282v130h596v-130h-596z" />
    <glyph glyph-name="emdash.case" horiz-adv-x="902" 
d="M53 282v130h796v-130h-796z" />
    <glyph glyph-name="periodcentered.case" horiz-adv-x="262" 
d="M52 263v164h158v-164h-158z" />
    <glyph glyph-name="questiondown.case" horiz-adv-x="510" 
d="M212 565v150h158v-150h-158zM37 184c0 164 171 188 171 277v33h166v-47c0 -135 -157 -159 -157 -243c0 -34 33 -59 71 -59c48 0 95 43 95 43l96 -117s-75 -83 -209 -83c-112 0 -233 67 -233 196z" />
    <glyph glyph-name="exclamdown.case" horiz-adv-x="306" 
d="M74 565v150h158v-150h-158zM63 0l16 494h148l16 -494h-180z" />
    <glyph glyph-name="bullet.case" horiz-adv-x="502" 
d="M251 170c-103 0 -186 83 -186 186s83 186 186 186s186 -83 186 -186s-83 -186 -186 -186z" />
    <glyph glyph-name="uni00A0" unicode="&#xa0;" horiz-adv-x="260" 
 />
    <glyph glyph-name="uni00AD" unicode="&#xad;" horiz-adv-x="418" 
d="M52 212v150h314v-150h-314z" />
    <glyph glyph-name="cyrbreve" unicode="&#xf6d4;" horiz-adv-x="390" 
d="M208 747c-102 0 -190 55 -190 153v11h128v-12c0 -41 32 -59 62 -59c29 0 62 18 62 59v12h127v-11c0 -98 -88 -153 -189 -153z" />
    <glyph glyph-name="uni0410" unicode="&#x410;" horiz-adv-x="690" 
d="M11 0v150h19c16 0 21 5 27 22l195 543h186l195 -543c6 -17 11 -22 27 -22h19v-150h-115c-50 0 -70 15 -84 58l-31 92h-208l-31 -92c-14 -43 -34 -58 -84 -58h-115zM279 295h132l-36 119c-14 45 -29 118 -29 118h-2s-15 -73 -29 -118z" />
    <glyph glyph-name="uni0411" unicode="&#x411;" horiz-adv-x="635" 
d="M88 73v492h-65v150h455c51 0 73 -22 73 -73v-138h-160v39c0 14 -8 22 -22 22h-102v-127h81c114 0 270 -31 270 -213c0 -168 -130 -225 -272 -225h-185c-51 0 -73 22 -73 73zM267 167c0 -14 8 -22 22 -22h74c48 0 71 35 71 75s-22 73 -70 73h-97v-126z" />
    <glyph glyph-name="uni0412" unicode="&#x412;" horiz-adv-x="650" 
d="M88 73v492h-65v150h327c143 0 243 -64 243 -187c0 -80 -46 -132 -83 -152v-2c82 -25 112 -98 112 -161c0 -156 -130 -213 -272 -213h-189c-51 0 -73 22 -73 73zM263 438h92c42 0 61 32 61 66c0 33 -19 61 -64 61h-89v-127zM263 172c0 -14 8 -22 22 -22h85
c48 0 71 35 71 75s-22 73 -70 73h-108v-126z" />
    <glyph glyph-name="uni0413" unicode="&#x413;" horiz-adv-x="558" 
d="M88 0v565h-65v150h450c51 0 73 -22 73 -73v-138h-160v39c0 14 -8 22 -22 22h-97v-565h-179z" />
    <glyph glyph-name="uni0414" unicode="&#x414;" horiz-adv-x="769" 
d="M11 81c0 51 18 69 69 69h10c73 127 87 267 87 396v19h-66v150h482c51 0 73 -22 73 -73v-492h12c51 0 69 -18 69 -69v-221h-160v118c0 13 -7 22 -19 22h-375c-14 0 -22 -8 -22 -22v-118h-160v221zM270 149h218v394c0 14 -8 22 -22 22h-119v-33c0 -114 -18 -273 -77 -383z
" />
    <glyph glyph-name="uni0415" unicode="&#x415;" horiz-adv-x="601" 
d="M88 73v492h-65v150h450c51 0 73 -22 73 -73v-138h-160v39c0 14 -8 22 -22 22h-97v-130h204v-150h-204v-113c0 -14 8 -22 22 -22h99c14 0 22 8 22 22v39h160v-138c0 -51 -22 -73 -73 -73h-336c-51 0 -73 22 -73 73z" />
    <glyph glyph-name="uni0416" unicode="&#x416;" horiz-adv-x="982" 
d="M1 0l159 303c26 50 57 62 57 62v2s-28 7 -53 57l-57 118c-10 21 -29 23 -49 23h-20v150h94c50 0 79 -8 101 -53l101 -206c11 -23 27 -23 50 -23h23v282h169v-282h18c22 0 43 0 54 23l101 206c22 45 51 53 101 53h94v-150h-20c-20 0 -39 -2 -49 -23l-57 -118
c-25 -50 -53 -57 -53 -57v-2s31 -12 57 -62l159 -303h-190l-138 273c-11 22 -25 22 -45 22h-32v-295h-169v295h-33c-20 0 -34 0 -45 -22l-138 -273h-190z" />
    <glyph glyph-name="uni0417" unicode="&#x417;" horiz-adv-x="564" 
d="M15 92l101 120c19 -17 74 -70 144 -70c45 0 93 23 93 74c0 44 -36 72 -84 72h-76v140h72c45 0 71 31 71 75c0 49 -32 69 -73 69c-45 0 -71 -24 -71 -50v-22h-160v72c0 105 128 155 249 155c150 0 233 -77 233 -192c0 -83 -43 -129 -91 -159v-2c77 -25 112 -95 112 -168
c0 -123 -101 -218 -269 -218c-143 0 -211 68 -251 104z" />
    <glyph glyph-name="uni0418" unicode="&#x418;" horiz-adv-x="784" 
d="M89 0v543c0 14 -8 22 -22 22h-43v150h171c51 0 73 -22 73 -73v-244c0 -45 -8 -119 -8 -119h2s39 73 66 119l187 317h180v-543c0 -14 8 -22 22 -22h43v-150h-171c-51 0 -73 22 -73 73v245c0 45 8 123 8 123h-2s-36 -76 -64 -123l-188 -318h-181z" />
    <glyph glyph-name="uni0419" unicode="&#x419;" horiz-adv-x="784" 
d="M403 747c-102 0 -190 55 -190 153v11h128v-12c0 -41 32 -59 62 -59c29 0 62 18 62 59v12h127v-11c0 -98 -88 -153 -189 -153zM89 0v543c0 14 -8 22 -22 22h-43v150h171c51 0 73 -22 73 -73v-244c0 -45 -8 -119 -8 -119h2s39 73 66 119l187 317h180v-543
c0 -14 8 -22 22 -22h43v-150h-171c-51 0 -73 22 -73 73v245c0 45 8 123 8 123h-2s-36 -76 -64 -123l-188 -318h-181z" />
    <glyph glyph-name="uni041A" unicode="&#x41a;" horiz-adv-x="676" 
d="M89 0v543c0 14 -8 22 -22 22h-43v150h171c51 0 73 -22 73 -73v-203h24c25 0 43 0 55 22l121 254h195l-143 -289c-24 -49 -53 -62 -53 -62v-2s30 -7 55 -57l65 -132c10 -21 29 -23 49 -23h19v-150h-105c-50 0 -79 8 -101 53l-107 214c-12 23 -33 23 -60 23h-14v-290h-179z
" />
    <glyph glyph-name="uni041B" unicode="&#x41b;" horiz-adv-x="726" 
d="M10 -8v159c85 11 143 73 143 329v85h-66v150h477c51 0 73 -22 73 -73v-470c0 -14 8 -22 22 -22h43v-150h-171c-51 0 -73 22 -73 73v470c0 14 -8 22 -22 22h-114v-87c0 -349 -111 -486 -312 -486z" />
    <glyph glyph-name="uni041C" unicode="&#x41c;" horiz-adv-x="902" 
d="M22 0v150h25c14 0 21 8 22 22l44 543h187l114 -282c18 -45 36 -103 36 -103h2s18 58 36 103l114 282h187l44 -543c1 -14 8 -22 22 -22h25v-150h-148c-51 0 -69 22 -73 73l-16 229c-4 54 0 120 0 120h-2s-21 -76 -40 -120l-80 -187h-140l-80 187c-19 44 -40 120 -40 120
h-2s4 -66 0 -120l-16 -229c-4 -51 -22 -73 -73 -73h-148z" />
    <glyph glyph-name="uni041D" unicode="&#x41d;" horiz-adv-x="778" 
d="M89 0v543c0 14 -8 22 -22 22h-43v150h171c51 0 73 -22 73 -73v-213h242v213c0 51 22 73 73 73h171v-150h-43c-14 0 -22 -8 -22 -22v-543h-179v280h-242v-280h-179z" />
    <glyph glyph-name="uni041E" unicode="&#x41e;" horiz-adv-x="796" 
d="M24 362c0 205 158 365 374 365s374 -160 374 -365c0 -210 -158 -374 -374 -374s-374 164 -374 374zM210 362c0 -119 84 -209 188 -209s188 90 188 209c0 114 -84 200 -188 200s-188 -86 -188 -200z" />
    <glyph glyph-name="uni041F" unicode="&#x41f;" horiz-adv-x="765" 
d="M88 0v565h-65v150h580c51 0 73 -22 73 -73v-470c0 -14 8 -22 22 -22h43v-150h-171c-51 0 -73 22 -73 73v470c0 14 -8 22 -22 22h-208v-565h-179z" />
    <glyph glyph-name="uni0420" unicode="&#x420;" horiz-adv-x="617" 
d="M88 0v565h-65v150h347c139 0 233 -102 233 -246s-94 -248 -233 -248h-103v-221h-179zM267 371h67c58 0 86 41 86 98s-28 96 -83 96h-70v-194z" />
    <glyph glyph-name="uni0421" unicode="&#x421;" horiz-adv-x="710" 
d="M25 365c0 205 157 362 370 362c85 0 274 -33 274 -167v-94h-160v39c0 41 -64 57 -110 57c-104 0 -188 -67 -188 -197c0 -117 87 -212 192 -212c125 0 204 91 204 91l91 -128s-108 -128 -298 -128c-226 0 -375 162 -375 377z" />
    <glyph glyph-name="uni0422" unicode="&#x422;" horiz-adv-x="673" 
d="M247 0v565h-58c-14 0 -22 -8 -22 -22v-39h-155v142c0 51 18 69 69 69h511c51 0 69 -18 69 -69v-142h-155v39c0 14 -8 22 -22 22h-58v-565h-179z" />
    <glyph glyph-name="uni0423" unicode="&#x423;" horiz-adv-x="661" 
d="M58 48l78 131c18 -16 40 -29 66 -29c28 0 45 10 54 38l-191 355c-9 16 -14 22 -30 22h-25v150h121c50 0 66 -18 84 -58l99 -218c17 -38 32 -83 32 -83h2s12 42 27 83l78 218c15 43 34 58 84 58h114v-150h-25c-16 0 -20 -5 -27 -22l-170 -403c-29 -69 -80 -152 -199 -152
c-68 0 -137 27 -172 60z" />
    <glyph glyph-name="uni0424" unicode="&#x424;" horiz-adv-x="860" 
d="M19 382c0 167 119 295 321 295v74h179v-74c202 0 321 -128 321 -295c0 -172 -119 -304 -321 -304v-90h-179v90c-202 0 -321 132 -321 304zM519 228c90 0 138 67 138 154c0 82 -48 145 -138 145v-299zM202 382c0 -87 48 -154 138 -154v299c-90 0 -138 -63 -138 -145z" />
    <glyph glyph-name="uni0425" unicode="&#x425;" horiz-adv-x="655" 
d="M2 0l216 355l-117 188c-13 20 -14 22 -36 22h-37v150h116c47 0 67 -11 87 -48l51 -93c25 -45 44 -90 44 -90h2s19 45 44 90l52 93c21 37 40 48 87 48h116v-150h-37c-22 0 -23 -2 -36 -22l-118 -188l217 -355h-199l-82 144c-25 45 -44 87 -44 87h-2s-19 -42 -44 -87
l-82 -144h-198z" />
    <glyph glyph-name="uni0426" unicode="&#x426;" horiz-adv-x="796" 
d="M88 73v470c0 14 -8 22 -22 22h-43v150h171c51 0 73 -22 73 -73v-470c0 -14 8 -22 22 -22h221v565h179v-565h19c51 0 69 -18 69 -69v-221h-155v118c0 13 -7 21 -19 22h-442c-51 0 -73 22 -73 73z" />
    <glyph glyph-name="uni0427" unicode="&#x427;" horiz-adv-x="710" 
d="M309 253c-155 0 -233 86 -233 224v66c0 14 -7 22 -22 22h-43v150h171c52 0 73 -22 73 -73v-124c0 -69 33 -106 108 -106c48 0 81 15 104 34v269h179v-715h-179v259c0 14 2 33 2 33h-2c-36 -19 -83 -39 -158 -39z" />
    <glyph glyph-name="uni0428" unicode="&#x428;" horiz-adv-x="1060" 
d="M88 73v470c0 14 -8 22 -22 22h-43v150h171c51 0 73 -22 73 -73v-470c0 -14 8 -22 22 -22h152v565h179v-565h152c14 0 22 8 22 22v470c0 51 22 73 73 73h171v-150h-43c-14 0 -22 -8 -22 -22v-470c0 -51 -22 -73 -73 -73h-739c-51 0 -73 22 -73 73z" />
    <glyph glyph-name="uni0429" unicode="&#x429;" horiz-adv-x="1087" 
d="M88 73v470c0 14 -8 22 -22 22h-43v150h171c51 0 73 -22 73 -73v-470c0 -14 8 -22 22 -22h152v565h179v-565h174v565h179v-565h29c51 0 69 -18 69 -69v-222h-155v119c0 13 -7 22 -18 22h-737c-51 0 -73 22 -73 73z" />
    <glyph glyph-name="uni042A" unicode="&#x42a;" horiz-adv-x="793" 
d="M237 73v492h-48c-14 0 -22 -8 -22 -22v-39h-155v142c0 51 18 69 69 69h400v-150h-65v-82h121c122 0 243 -57 243 -238c0 -177 -132 -245 -282 -245h-188c-51 0 -73 22 -73 73zM416 172c0 -14 8 -22 22 -22h77c48 0 81 36 81 92c0 58 -32 91 -80 91h-100v-161z" />
    <glyph glyph-name="uni042B" unicode="&#x42b;" horiz-adv-x="953" 
d="M685 73v642h179v-543c0 -14 8 -22 22 -22h43v-150h-171c-51 0 -73 22 -73 73zM88 73v470c0 14 -8 22 -22 22h-43v150h171c51 0 73 -22 73 -73v-149h100c121 0 243 -59 243 -237c0 -185 -131 -256 -282 -256h-167c-51 0 -73 22 -73 73zM267 172c0 -14 8 -22 22 -22h56
c48 0 81 40 81 100s-32 93 -80 93h-79v-171z" />
    <glyph glyph-name="uni042C" unicode="&#x42c;" horiz-adv-x="634" 
d="M88 73v470c0 14 -8 22 -22 22h-43v150h171c51 0 73 -22 73 -73v-149h110c122 0 243 -58 243 -235c0 -189 -132 -258 -282 -258h-177c-51 0 -73 22 -73 73zM267 172c0 -14 8 -22 22 -22h66c48 0 81 40 81 105c0 55 -32 88 -80 88h-89v-171z" />
    <glyph glyph-name="uni042D" unicode="&#x42d;" horiz-adv-x="704" 
d="M15 100l86 126s80 -81 201 -81c100 0 170 55 186 138h-284v140h284c-12 87 -71 147 -173 147c-49 0 -120 -14 -120 -55v-39h-160v84c0 88 108 167 275 167c235 0 369 -158 369 -356c0 -207 -147 -383 -376 -383c-182 0 -288 112 -288 112z" />
    <glyph glyph-name="uni042E" unicode="&#x42e;" horiz-adv-x="1114" 
d="M89 0v543c0 14 -8 22 -22 22h-43v150h171c51 0 73 -22 73 -73v-213h95c25 172 167 298 357 298c214 0 370 -160 370 -365c0 -210 -156 -374 -370 -374c-185 0 -324 123 -354 292h-98v-280h-179zM536 362c0 -119 82 -209 184 -209s184 90 184 209c0 114 -82 200 -184 200
s-184 -86 -184 -200z" />
    <glyph glyph-name="uni042F" unicode="&#x42f;" horiz-adv-x="658" 
d="M21 0v150h11c20 0 37 3 49 23l46 78c19 33 54 43 54 43v2s-131 47 -131 190c0 144 107 229 252 229h334v-150h-65v-565h-179v233h-21c-37 0 -52 -5 -69 -36l-83 -144c-25 -43 -51 -53 -101 -53h-97zM330 383h62v182h-65c-56 0 -94 -33 -94 -90c0 -56 37 -92 97 -92z" />
    <glyph glyph-name="uni0430" unicode="&#x430;" horiz-adv-x="569" 
d="M20 144c0 163 220 177 299 177h7v9c0 49 -23 67 -66 67c-22 0 -45 -5 -45 -25v-23h-160v57c0 114 146 121 199 121c186 0 245 -88 245 -210v-150c0 -14 8 -22 22 -22h38v-145h-150c-50 0 -68 31 -68 54v9h-2s-44 -75 -150 -75c-97 0 -169 63 -169 156zM191 162
c0 -23 17 -45 49 -45c49 0 88 49 88 91v14h-19c-55 0 -118 -17 -118 -60z" />
    <glyph glyph-name="uni0431" unicode="&#x431;" 
d="M296 -12c-211 0 -267 163 -267 337c0 190 67 273 194 329l79 35c46 20 58 29 58 49v12h165v-61c0 -89 -55 -104 -137 -135l-92 -35c-41 -16 -98 -38 -98 -102h2c52 46 107 54 146 54c138 0 227 -99 227 -235c0 -157 -119 -248 -277 -248zM203 233c0 -65 44 -103 97 -103
s97 38 97 103s-44 101 -97 101s-97 -36 -97 -101z" />
    <glyph glyph-name="uni0432" unicode="&#x432;" horiz-adv-x="578" 
d="M77 53v317h-60v145h339c104 0 175 -46 175 -134c0 -58 -32 -96 -59 -110v-2c58 -18 80 -70 80 -116c0 -112 -93 -153 -196 -153h-226c-37 0 -53 16 -53 53zM250 313h63c30 0 46 22 46 46c0 26 -16 45 -48 45h-61v-91zM250 127c0 -10 6 -16 16 -16h58c34 0 53 21 53 53
c0 29 -18 49 -53 49h-74v-86z" />
    <glyph glyph-name="uni0433" unicode="&#x433;" horiz-adv-x="477" 
d="M78 0v370h-60v145h369c51 0 73 -22 73 -73v-115h-140v21c0 14 -8 22 -22 22h-47v-370h-173z" />
    <glyph glyph-name="uni0434" unicode="&#x434;" horiz-adv-x="646" 
d="M10 67c0 50 18 73 66 73h9c46 54 55 126 55 220v10h-56v145h405c51 0 73 -22 73 -73v-302h8c48 0 66 -23 66 -73v-187h-155v98c0 13 -7 22 -19 22h-278c-12 0 -19 -9 -19 -22v-98h-155v187zM248 140h141v208c0 14 -8 22 -22 22h-64v-9c0 -63 -2 -161 -55 -221z" />
    <glyph glyph-name="uni0435" unicode="&#x435;" horiz-adv-x="556" 
d="M23 258c0 151 102 269 268 269c152 0 238 -106 238 -249c0 -18 -2 -36 -4 -54h-325c13 -63 65 -92 120 -92c51 0 100 24 142 52l64 -121c-56 -48 -141 -75 -220 -75c-184 0 -283 133 -283 270zM204 323h154c0 42 -27 77 -71 77c-50 0 -74 -36 -83 -77z" />
    <glyph glyph-name="uni0436" unicode="&#x436;" horiz-adv-x="849" 
d="M11 0l104 203c23 44 59 56 59 56v2s-22 7 -39 43l-23 49c-7 14 -18 17 -38 17h-40v145h121c37 0 57 -6 74 -39l64 -127c9 -17 28 -17 41 -17h8v183h165v-183h8c13 0 32 0 41 17l64 127c17 33 37 39 74 39h121v-145h-40c-20 0 -31 -3 -38 -17l-23 -49
c-17 -36 -39 -43 -39 -43v-2s36 -12 59 -56l104 -203h-196l-79 160c-12 20 -23 29 -42 29h-14v-189h-165v189h-14c-19 0 -30 -9 -42 -29l-79 -160h-196z" />
    <glyph glyph-name="uni0437" unicode="&#x437;" horiz-adv-x="475" 
d="M17 65l72 107c9 -7 62 -53 129 -53c45 0 62 20 62 48c0 27 -15 41 -54 41h-69v107h46c40 0 62 18 62 50c0 31 -22 43 -50 43c-22 0 -53 -8 -53 -36v-20h-135v58c0 81 93 117 201 117c131 0 207 -53 207 -144c0 -63 -37 -101 -66 -112v-2c39 -12 80 -48 80 -118
c0 -105 -94 -163 -218 -163c-122 0 -187 56 -214 77z" />
    <glyph glyph-name="uni0438" unicode="&#x438;" horiz-adv-x="659" 
d="M78 0v348c0 14 -8 22 -22 22h-38v145h147c51 0 73 -22 73 -73v-159c0 -18 -1 -38 -2 -51h2c9 21 19 36 28 51l142 232h173v-348c0 -14 8 -22 22 -22h38v-145h-147c-51 0 -73 22 -73 73v157c0 12 0 32 2 52h-2c-9 -21 -20 -37 -28 -51l-142 -231h-173z" />
    <glyph glyph-name="uni0439" unicode="&#x439;" horiz-adv-x="659" 
d="M78 0v348c0 14 -8 22 -22 22h-38v145h147c51 0 73 -22 73 -73v-159c0 -18 -1 -38 -2 -51h2c9 21 19 36 28 51l142 232h173v-348c0 -14 8 -22 22 -22h38v-145h-147c-51 0 -73 22 -73 73v157c0 12 0 32 2 52h-2c-9 -21 -20 -37 -28 -51l-142 -231h-173zM330 551
c-102 0 -190 55 -190 153v11h128v-12c0 -41 32 -59 62 -59c29 0 62 18 62 59v12h127v-11c0 -98 -88 -153 -189 -153z" />
    <glyph glyph-name="uni043A" unicode="&#x43a;" horiz-adv-x="611" 
d="M78 0v348c0 14 -8 22 -22 22h-38v145h160c51 0 73 -22 73 -73v-107h21c15 0 33 1 42 17l89 163h188l-123 -208c-19 -33 -38 -43 -38 -43v-2s28 -9 48 -43l33 -57c8 -14 18 -17 38 -17h37v-145h-131c-37 0 -57 6 -74 39l-68 134c-9 17 -25 17 -38 17h-24v-190h-173z" />
    <glyph glyph-name="uni043B" unicode="&#x43b;" horiz-adv-x="605" 
d="M16 -2v151c49 5 89 28 89 181v40h-60v145h409c51 0 73 -22 73 -73v-275c0 -14 8 -22 22 -22h38v-145h-160c-51 0 -73 22 -73 73v274c0 14 -8 23 -22 23h-64v-42c0 -194 -49 -333 -252 -330z" />
    <glyph glyph-name="uni043C" unicode="&#x43c;" horiz-adv-x="766" 
d="M19 0v145h18c10 0 15 6 16 16l35 354h198l78 -226c9 -26 18 -60 18 -60h1s10 34 19 60l78 226h198l35 -354c1 -10 6 -16 16 -16h18v-145h-125c-38 0 -52 16 -54 53l-13 174c-2 40 -2 91 -2 91h-2s-15 -47 -28 -79l-67 -170h-156l-59 170c-12 33 -26 79 -26 79h-2
s0 -51 -2 -91l-13 -174c-2 -37 -16 -53 -54 -53h-125z" />
    <glyph glyph-name="uni043D" unicode="&#x43d;" horiz-adv-x="659" 
d="M78 0v348c0 14 -8 22 -22 22h-38v145h160c51 0 73 -22 73 -73v-112h157v185h173v-348c0 -14 8 -22 22 -22h38v-145h-160c-51 0 -73 22 -73 73v117h-157v-190h-173z" />
    <glyph glyph-name="uni043E" unicode="&#x43e;" horiz-adv-x="628" 
d="M23 256c0 162 129 271 290 271c163 0 292 -109 292 -271c0 -161 -129 -268 -291 -268s-291 107 -291 268zM197 256c0 -77 54 -124 117 -124s117 47 117 124c0 78 -54 127 -117 127s-117 -49 -117 -127z" />
    <glyph glyph-name="uni043F" unicode="&#x43f;" horiz-adv-x="652" 
d="M78 0v370h-60v145h483c51 0 73 -22 73 -73v-275c0 -14 8 -22 22 -22h38v-145h-160c-51 0 -73 22 -73 73v275c0 14 -8 22 -22 22h-128v-370h-173z" />
    <glyph glyph-name="uni0440" unicode="&#x440;" horiz-adv-x="646" 
d="M78 -200v548c0 14 -8 22 -22 22h-38v145h149c50 0 67 -23 67 -45v-9h2s45 66 154 66c140 0 232 -110 232 -270c0 -163 -103 -269 -240 -269c-84 0 -131 44 -131 44h-2s2 -18 2 -44v-188h-173zM246 254c0 -62 33 -123 101 -123c54 0 101 44 101 123c0 77 -41 127 -101 127
c-52 0 -101 -38 -101 -127z" />
    <glyph glyph-name="uni0441" unicode="&#x441;" horiz-adv-x="546" 
d="M23 258c0 136 96 269 291 269c72 0 190 -28 190 -121v-71h-150v27c0 16 -19 22 -40 22c-73 0 -117 -55 -117 -124c0 -88 66 -123 130 -123c74 0 142 67 142 67l69 -116s-81 -100 -228 -100c-184 0 -287 128 -287 270z" />
    <glyph glyph-name="uni0442" unicode="&#x442;" horiz-adv-x="580" 
d="M203 0v370h-24c-14 0 -22 -8 -22 -22v-21h-140v115c0 51 22 73 73 73h399c51 0 73 -22 73 -73v-115h-140v21c0 14 -8 22 -22 22h-24v-370h-173z" />
    <glyph glyph-name="uni0443" unicode="&#x443;" horiz-adv-x="571" 
d="M61 -33c0 0 30 -33 71 -33c28 0 60 8 77 51l6 15l-163 354c-6 13 -10 16 -22 16h-19v145h126c29 0 50 -15 60 -42l76 -208c10 -28 19 -80 19 -80h2s9 52 17 80l57 208c7 27 34 42 61 42h129v-145h-19c-12 0 -19 -3 -24 -16l-156 -409c-44 -114 -133 -155 -215 -155
c-89 0 -145 55 -145 55z" />
    <glyph glyph-name="uni0444" unicode="&#x444;" horiz-adv-x="795" 
d="M24 256c0 159 124 257 287 259v33c0 14 -8 22 -22 22h-38v145h160c51 0 73 -22 73 -73v-127c163 -2 287 -100 287 -259c0 -158 -124 -253 -287 -256v-200h-173v200c-163 3 -287 98 -287 256zM484 134c63 0 113 49 113 122c0 74 -50 124 -113 124v-246zM198 256
c0 -73 48 -122 113 -122v246c-65 0 -113 -50 -113 -124z" />
    <glyph glyph-name="uni0445" unicode="&#x445;" horiz-adv-x="561" 
d="M16 0l159 255l-65 100c-9 13 -12 15 -33 15h-49v145h129c36 0 57 -9 74 -42l33 -63c7 -13 15 -34 15 -34h2s9 21 16 34l33 63c17 33 38 42 74 42h129v-145h-49c-21 0 -24 -2 -33 -15l-65 -100l159 -255h-190l-62 106c-5 9 -12 26 -12 26h-2s-7 -17 -12 -26l-61 -106h-190
z" />
    <glyph glyph-name="uni0446" unicode="&#x446;" horiz-adv-x="653" 
d="M77 71v277c0 14 -8 22 -22 22h-38v145h160c51 0 73 -22 73 -73v-280c0 -14 8 -22 22 -22h122v375h173v-375h9c48 0 66 -23 66 -73v-187h-155v98c0 13 -7 21 -19 22h-318c-51 0 -73 20 -73 71z" />
    <glyph glyph-name="uni0447" unicode="&#x447;" horiz-adv-x="592" 
d="M229 157c-85 0 -165 46 -165 148v42c0 17 -6 23 -23 23h-27v145h150c60 0 70 -37 70 -74v-73c0 -44 15 -69 66 -69c35 0 55 13 71 25v191h173v-515h-173v163c0 12 1 24 1 24h-1c-29 -15 -69 -30 -142 -30z" />
    <glyph glyph-name="uni0448" unicode="&#x448;" horiz-adv-x="891" 
d="M77 73v275c0 14 -8 22 -22 22h-38v145h160c51 0 73 -22 73 -73v-280c0 -14 8 -22 22 -22h85v375h173v-375h89c14 0 22 8 22 22v280c0 51 22 73 73 73h160v-145h-38c-14 0 -22 -8 -22 -22v-275c0 -51 -22 -73 -73 -73h-591c-51 0 -73 22 -73 73z" />
    <glyph glyph-name="uni0449" unicode="&#x449;" horiz-adv-x="899" 
d="M77 73v275c0 14 -8 22 -22 22h-38v145h160c51 0 73 -22 73 -73v-285c0 -14 8 -22 22 -22h85v380h173v-380h111v380h173v-380h9c48 0 66 -23 66 -73v-182h-155v98c0 14 -8 22 -22 22h-562c-51 0 -73 22 -73 73z" />
    <glyph glyph-name="uni044A" unicode="&#x44a;" horiz-adv-x="677" 
d="M202 53v305c0 16 -3 22 -17 22h-15c-14 0 -18 -5 -18 -22v-31h-135v115c0 51 22 73 73 73h212c51 0 73 -22 73 -73v-88h83c143 0 206 -79 206 -177c0 -121 -96 -177 -206 -177h-203c-37 0 -53 16 -53 53zM375 130c0 -10 6 -16 16 -16h38c36 0 63 26 63 64s-26 62 -63 62
h-54v-110z" />
    <glyph glyph-name="uni044B" unicode="&#x44b;" horiz-adv-x="842" 
d="M591 73v442h173v-348c0 -14 8 -22 22 -22h38v-145h-160c-51 0 -73 22 -73 73zM77 53v295c0 14 -8 22 -22 22h-38v145h161c47 0 72 -23 72 -58v-104h78c143 0 204 -78 204 -176c0 -122 -96 -177 -204 -177h-198c-37 0 -53 16 -53 53zM250 130c0 -10 6 -16 16 -16h33
c36 0 61 26 61 64s-24 61 -61 61h-49v-109z" />
    <glyph glyph-name="uni044C" unicode="&#x44c;" horiz-adv-x="545" 
d="M77 53v295c0 14 -8 22 -22 22h-38v145h161c47 0 70 -23 72 -58v-104h78c143 0 204 -78 204 -176c0 -122 -96 -177 -204 -177h-198c-37 0 -53 16 -53 53zM250 130c0 -10 6 -16 16 -16h33c36 0 61 26 61 64s-24 61 -61 61h-49v-109z" />
    <glyph glyph-name="uni044D" unicode="&#x44d;" horiz-adv-x="544" 
d="M16 62l60 116c41 -34 90 -58 147 -58c70 0 115 36 132 81h-189v109h190c-17 63 -59 85 -121 85c-40 0 -68 -9 -68 -28v-18h-140v47c0 76 85 131 212 131c196 0 282 -132 282 -266c0 -146 -103 -273 -287 -273c-78 0 -157 23 -218 74z" />
    <glyph glyph-name="uni044E" unicode="&#x44e;" horiz-adv-x="900" 
d="M78 0v348c0 14 -8 22 -22 22h-38v145h160c51 0 73 -22 73 -73v-115h76c25 122 128 200 264 200c163 0 286 -109 286 -271c0 -161 -123 -268 -285 -268c-142 0 -247 82 -268 211h-73v-199h-173zM481 256c0 -77 48 -124 111 -124s111 47 111 124c0 78 -48 127 -111 127
s-111 -49 -111 -127z" />
    <glyph glyph-name="uni044F" unicode="&#x44f;" horiz-adv-x="571" 
d="M26 0v145h20c19 0 27 4 36 15l22 27c10 12 17 19 29 23v2c-50 19 -96 63 -96 140c0 97 74 163 180 163h336v-145h-60v-370h-173v159h-19c-14 0 -23 -10 -35 -26l-71 -93c-30 -39 -41 -40 -78 -40h-91zM280 273h40v134h-38c-45 0 -73 -26 -73 -67s28 -67 71 -67z" />
    <glyph glyph-name="uni0409" unicode="&#x409;" horiz-adv-x="982" 
d="M10 -5v159c87 4 135 54 135 282v129h-66v150h468c51 0 73 -22 73 -73v-194h88c99 0 262 -26 262 -218c0 -172 -130 -230 -272 -230h-184c-51 0 -73 22 -73 73v470c0 14 -8 22 -22 22h-96v-129c0 -278 -62 -436 -313 -441zM620 167c0 -14 8 -22 22 -22h73
c48 0 71 37 71 80s-22 78 -70 78h-96v-136z" />
    <glyph glyph-name="uni040A" unicode="&#x40a;" horiz-adv-x="1041" 
d="M89 0v543c0 14 -8 22 -22 22h-43v150h171c52 0 73 -22 73 -73v-199h237v272h179v-272h89c100 0 257 -29 257 -213c0 -168 -131 -230 -272 -230h-180c-51 0 -73 22 -73 73v225h-237v-298h-179zM684 167c0 -14 8 -22 22 -22h69c48 0 71 42 71 80c0 36 -22 73 -70 73h-92
v-131z" />
    <glyph glyph-name="uni040B" unicode="&#x40b;" horiz-adv-x="845" 
d="M227 0v575h-53c-14 0 -22 -8 -22 -22v-49h-140v142c0 51 18 69 69 69h537v-140h-212v-123c0 -14 -2 -32 -2 -32h2c37 17 86 38 156 38c143 0 213 -86 213 -224v-71c0 -11 6 -13 22 -13h43v-150h-171c-51 0 -73 22 -73 73v120c0 70 -26 106 -88 106
c-48 0 -84 -21 -102 -33v-266h-179z" />
    <glyph glyph-name="uni04BA" unicode="&#x4ba;" horiz-adv-x="715" 
d="M89 0v543c0 14 -8 22 -22 22h-43v150h171c51 0 73 -22 73 -73v-188c0 -14 -2 -33 -2 -33h2c35 17 82 35 151 35c150 0 220 -86 220 -224v-60c0 -14 6 -22 22 -22h43v-150h-171c-51 0 -73 22 -73 73v118c0 71 -27 106 -95 106c-37 0 -73 -10 -97 -28v-269h-179z" />
    <glyph glyph-name="uni048C" unicode="&#x48c;" horiz-adv-x="705" 
d="M159 73v474h-156v130h155v73h180v-73h204v-130h-204v-93h93c115 0 262 -43 262 -220c0 -175 -144 -234 -262 -234h-199c-51 0 -73 22 -73 73zM338 167c0 -14 8 -22 22 -22h68c48 0 81 40 81 83s-32 81 -80 81h-91v-142z" />
    <glyph glyph-name="uni0402" unicode="&#x402;" horiz-adv-x="793" 
d="M227 0v575h-53c-14 0 -22 -8 -22 -22v-49h-140v142c0 51 18 69 69 69h537v-140h-212v-121c0 -16 -2 -32 -2 -32h2s75 34 159 34c141 0 221 -94 221 -224c0 -125 -74 -244 -229 -244c-14 0 -30 1 -47 3v145c7 -1 14 -2 21 -2c30 0 79 18 79 84c0 53 -32 84 -94 84
c-57 0 -110 -26 -110 -26v-276h-179z" />
    <glyph glyph-name="uni0452" unicode="&#x452;" horiz-adv-x="610" 
d="M51 0v522h-59v115h59v78h173v-78h163v-115h-163v-100c0 -26 -2 -44 -2 -44h2c29 51 89 82 157 82c104 0 185 -48 185 -193v-280c0 -173 -162 -195 -242 -195c-28 0 -46 3 -46 3v144s9 -1 22 -1c34 0 93 8 93 66v231c0 48 -19 68 -57 68c-53 0 -88 -31 -103 -76
c-7 -20 -9 -42 -9 -66v-161h-173z" />
    <glyph glyph-name="uni04BB" unicode="&#x4bb;" horiz-adv-x="639" 
d="M51 0v548c0 14 -8 22 -22 22h-38v145h160c51 0 73 -22 73 -73v-153c0 -26 -2 -44 -2 -44h2c29 51 89 82 157 82c104 0 185 -48 185 -193v-167c0 -14 8 -22 22 -22h38v-145h-160c-51 0 -73 22 -73 73v229c0 48 -19 68 -57 68c-53 0 -88 -31 -103 -76c-7 -20 -9 -42 -9 -66
v-228h-173z" />
    <glyph glyph-name="uni045B" unicode="&#x45b;" horiz-adv-x="644" 
d="M51 0v522h-59v115h59v78h173v-78h163v-115h-163v-100c0 -26 -2 -44 -2 -44h2c29 51 89 82 157 82c104 0 185 -48 185 -193v-100c0 -14 8 -22 22 -22h38v-145h-160c-51 0 -73 22 -73 73v162c0 48 -19 68 -57 68c-53 0 -88 -31 -103 -76c-7 -20 -9 -42 -9 -66v-161h-173z
" />
    <glyph glyph-name="uni0459" unicode="&#x459;" horiz-adv-x="808" 
d="M11 -5v151c49 6 100 25 100 194v30h-60v145h388c47 0 72 -23 72 -58v-119h80c144 0 204 -71 204 -172c0 -100 -60 -166 -204 -166h-200c-37 0 -53 16 -53 53v303c0 14 -8 22 -22 22h-43v-31c0 -228 -59 -352 -262 -352zM511 130c0 -10 6 -17 16 -17h40c41 -1 63 22 63 53
c0 33 -22 58 -66 58h-53v-94z" />
    <glyph glyph-name="uni045A" unicode="&#x45a;" horiz-adv-x="887" 
d="M78 0v348c0 14 -8 22 -22 22h-38v145h160c51 0 73 -22 73 -73v-102h166v175h173v-175h88c141 0 196 -82 196 -167c0 -126 -89 -173 -196 -173h-208c-37 0 -53 16 -53 53v154h-166v-207h-173zM590 129c0 -10 6 -16 16 -16h48c34 0 53 20 53 55c0 32 -18 53 -53 53h-64v-92
z" />
    <glyph glyph-name="uni0463" unicode="&#x463;" horiz-adv-x="610" 
d="M132 53v403h-122v121h122v138h173v-138h160v-121h-160v-100h88c143 0 206 -81 206 -172c0 -133 -97 -184 -206 -184h-208c-37 0 -53 16 -53 53zM305 130c0 -10 6 -16 16 -16h43c36 0 63 26 63 65c0 40 -26 63 -63 63h-59v-112z" />
    <glyph glyph-name="uni048D" unicode="&#x48d;" horiz-adv-x="610" 
d="M132 53v403h-122v121h122v138h173v-138h160v-121h-160v-100h88c143 0 206 -81 206 -172c0 -133 -97 -184 -206 -184h-208c-37 0 -53 16 -53 53zM305 130c0 -10 6 -16 16 -16h43c36 0 63 26 63 65c0 40 -26 63 -63 63h-59v-112z" />
    <glyph glyph-name="uni04A4" unicode="&#x4a4;" horiz-adv-x="974" 
d="M89 0v543c0 14 -8 22 -22 22h-43v150h171c51 0 73 -22 73 -73v-213h256v136h-65v150h430c51 0 73 -22 73 -73v-138h-160v39c0 14 -8 22 -22 22h-77v-565h-179v280h-256v-280h-179z" />
    <glyph glyph-name="uni04A0" unicode="&#x4a0;" horiz-adv-x="830" 
d="M243 0v565h-49c-14 0 -22 -8 -22 -22v-39h-160v145c0 51 22 66 73 66h402v-150h-65v-126h24c25 0 43 0 55 22l121 254h195l-143 -289c-24 -49 -53 -62 -53 -62v-2s30 -7 55 -57l65 -132c10 -21 29 -23 49 -23h19v-150h-105c-50 0 -79 8 -101 53l-107 214
c-12 23 -33 23 -60 23h-14v-290h-179z" />
    <glyph glyph-name="uni04B4" unicode="&#x4b4;" horiz-adv-x="975" 
d="M233 73v492h-44c-14 0 -22 -8 -22 -22v-39h-155v142c0 51 18 69 69 69h473c51 0 69 -18 69 -69v-142h-145v39c0 14 -8 22 -22 22h-44v-393c0 -14 8 -22 22 -22h255v565h179v-565h19c51 0 69 -18 69 -69v-221h-155v118c0 13 -7 21 -19 22h-476c-51 0 -73 22 -73 73z" />
    <glyph glyph-name="uni0495" unicode="&#x495;" horiz-adv-x="557" 
d="M78 0v370h-60v145h389c51 0 73 -7 73 -58v-130h-140v26c0 11 -4 17 -14 17h-75v-127c21 8 54 16 94 16c131 0 201 -87 201 -204c0 -116 -69 -206 -170 -265l-81 117c39 19 86 58 86 126c0 45 -19 88 -83 88c-19 0 -33 -4 -47 -12v-109h-173z" />
    <glyph glyph-name="uni04C8" unicode="&#x4c8;" horiz-adv-x="661" 
d="M78 0v348c0 14 -8 22 -22 22h-38v145h160c51 0 73 -22 73 -73v-109h159v109c0 51 22 73 73 73h160v-145h-38c-14 0 -22 -8 -22 -22v-280c0 -139 -54 -208 -167 -278l-90 120c55 36 84 62 84 157v121h-159v-188h-173z" />
    <glyph glyph-name="uni04C4" unicode="&#x4c4;" horiz-adv-x="611" 
d="M78 0v348c0 14 -8 22 -22 22h-38v145h161c47 0 72 -23 72 -58v-123h30c17 0 26 6 38 27l84 154h188l-109 -185c-15 -25 -27 -35 -36 -40v-2c88 -37 134 -125 134 -220c0 -139 -91 -234 -171 -278l-80 117c35 17 88 58 88 160c0 57 -29 122 -122 122h-44v-189h-173z" />
    <glyph glyph-name="uni04A1" unicode="&#x4a1;" horiz-adv-x="736" 
d="M203 0v363c0 11 -4 17 -14 17h-22c-10 0 -14 -6 -14 -17v-36h-135v130c0 51 22 58 73 58h212c51 0 73 -7 73 -58v-122h21c15 0 33 1 42 17l89 163h188l-123 -208c-19 -33 -38 -43 -38 -43v-2s28 -9 48 -43l33 -57c8 -14 18 -17 38 -17h37v-145h-131c-37 0 -57 6 -74 39
l-68 134c-9 17 -25 17 -38 17h-24v-190h-173z" />
    <glyph glyph-name="uni04A5" unicode="&#x4a5;" horiz-adv-x="806" 
d="M78 0v348c0 14 -8 22 -22 22h-38v145h160c51 0 73 -22 73 -73v-130h157v68h-60v135h369c51 0 73 -7 73 -58v-120h-140v26c0 11 -4 17 -14 17h-55v-380h-173v172h-157v-172h-173z" />
    <glyph glyph-name="uni04B5" unicode="&#x4b5;" horiz-adv-x="826" 
d="M178 71v309h-38c-10 0 -14 -6 -14 -17v-26h-110v120c0 51 22 58 73 58h345c51 0 73 -7 73 -58v-120h-110v26c0 11 -4 17 -14 17h-32v-218c0 -14 8 -22 22 -22h182v375h173v-375h19c48 0 66 -23 66 -73v-187h-155v98c0 13 -7 22 -19 22h-388c-51 0 -73 20 -73 71z" />
    <glyph glyph-name="uni0401" unicode="&#x401;" horiz-adv-x="601" 
d="M88 73v492h-65v150h450c51 0 73 -22 73 -73v-138h-160v39c0 14 -8 22 -22 22h-97v-130h204v-150h-204v-113c0 -14 8 -22 22 -22h99c14 0 22 8 22 22v39h160v-138c0 -51 -22 -73 -73 -73h-336c-51 0 -73 22 -73 73zM350 771v140h112v-140h-112zM147 771v140h112v-140h-112
z" />
    <glyph glyph-name="uni0407" unicode="&#x407;" horiz-adv-x="399" 
d="M246 771v140h112v-140h-112zM43 771v140h112v-140h-112zM40 0v150h75v415h-75v150h319v-150h-75v-415h75v-150h-319z" />
    <glyph glyph-name="uni04D2" unicode="&#x4d2;" horiz-adv-x="690" 
d="M11 0v150h19c16 0 21 5 27 22l195 543h186l195 -543c6 -17 11 -22 27 -22h19v-150h-115c-50 0 -70 15 -84 58l-31 92h-208l-31 -92c-14 -43 -34 -58 -84 -58h-115zM279 295h132l-36 119c-14 45 -29 118 -29 118h-2s-15 -73 -29 -118zM391 771v140h112v-140h-112zM188 771
v140h112v-140h-112z" />
    <glyph glyph-name="uni04DA" unicode="&#x4da;" horiz-adv-x="707" 
d="M389 771v140h112v-140h-112zM186 771v140h112v-140h-112zM30 333c0 24 6 82 6 82h461c-16 91 -79 152 -183 152c-81 0 -160 -42 -195 -73l-81 132c21 18 121 101 300 101c213 0 344 -183 344 -370c0 -215 -141 -369 -337 -369c-207 0 -315 150 -315 345zM205 282
c0 -83 49 -141 140 -141c94 0 148 58 152 141h-292z" />
    <glyph glyph-name="uni04DC" unicode="&#x4dc;" horiz-adv-x="982" 
d="M1 0l159 303c26 50 57 62 57 62v2s-28 7 -53 57l-57 118c-10 21 -29 23 -49 23h-20v150h94c50 0 79 -8 101 -53l101 -206c11 -23 27 -23 50 -23h23v282h169v-282h18c22 0 43 0 54 23l101 206c22 45 51 53 101 53h94v-150h-20c-20 0 -39 -2 -49 -23l-57 -118
c-25 -50 -53 -57 -53 -57v-2s31 -12 57 -62l159 -303h-190l-138 273c-11 22 -25 22 -45 22h-32v-295h-169v295h-33c-20 0 -34 0 -45 -22l-138 -273h-190zM544 771v140h112v-140h-112zM341 771v140h112v-140h-112z" />
    <glyph glyph-name="uni04DE" unicode="&#x4de;" horiz-adv-x="564" 
d="M15 92l101 120c19 -17 74 -70 144 -70c45 0 93 23 93 74c0 44 -36 72 -84 72h-76v140h72c45 0 71 31 71 75c0 49 -32 69 -73 69c-45 0 -71 -24 -71 -50v-22h-160v72c0 105 128 155 249 155c150 0 233 -77 233 -192c0 -83 -43 -129 -91 -159v-2c77 -25 112 -95 112 -168
c0 -123 -101 -218 -269 -218c-143 0 -211 68 -251 104zM324 771v140h112v-140h-112zM121 771v140h112v-140h-112z" />
    <glyph glyph-name="uni04E4" unicode="&#x4e4;" horiz-adv-x="784" 
d="M89 0v543c0 14 -8 22 -22 22h-43v150h171c51 0 73 -22 73 -73v-244c0 -45 -8 -119 -8 -119h2s39 73 66 119l187 317h180v-543c0 -14 8 -22 22 -22h43v-150h-171c-51 0 -73 22 -73 73v245c0 45 8 123 8 123h-2s-36 -76 -64 -123l-188 -318h-181zM440 771v140h112v-140
h-112zM237 771v140h112v-140h-112z" />
    <glyph glyph-name="uni04E6" unicode="&#x4e6;" horiz-adv-x="796" 
d="M24 362c0 205 158 365 374 365s374 -160 374 -365c0 -210 -158 -374 -374 -374s-374 164 -374 374zM210 362c0 -119 84 -209 188 -209s188 90 188 209c0 114 -84 200 -188 200s-188 -86 -188 -200zM443 771v140h112v-140h-112zM240 771v140h112v-140h-112z" />
    <glyph glyph-name="uni04EA" unicode="&#x4ea;" horiz-adv-x="796" 
d="M24 362c0 205 158 365 374 365s374 -160 374 -365c0 -210 -158 -374 -374 -374s-374 164 -374 374zM397 570c-88 0 -162 -60 -186 -146h374c-24 86 -99 146 -188 146zM397 145c87 0 161 59 187 147h-371c26 -88 98 -147 184 -147zM442 771v140h112v-140h-112zM239 771
v140h112v-140h-112z" />
    <glyph glyph-name="uni04EC" unicode="&#x4ec;" horiz-adv-x="704" 
d="M15 100l86 126s80 -81 201 -81c100 0 170 55 186 138h-284v140h284c-12 87 -71 147 -173 147c-49 0 -120 -14 -120 -55v-39h-160v84c0 88 108 167 275 167c235 0 369 -158 369 -356c0 -207 -147 -383 -376 -383c-182 0 -288 112 -288 112zM371 771v140h112v-140h-112z
M168 771v140h112v-140h-112z" />
    <glyph glyph-name="uni04F0" unicode="&#x4f0;" horiz-adv-x="661" 
d="M58 48l78 131c18 -16 40 -29 66 -29c28 0 45 10 54 38l-191 355c-9 16 -14 22 -30 22h-25v150h121c50 0 66 -18 84 -58l99 -218c17 -38 32 -83 32 -83h2s12 42 27 83l78 218c15 43 34 58 84 58h114v-150h-25c-16 0 -20 -5 -27 -22l-170 -403c-29 -69 -80 -152 -199 -152
c-68 0 -137 27 -172 60zM386 771v140h112v-140h-112zM183 771v140h112v-140h-112z" />
    <glyph glyph-name="uni04F4" unicode="&#x4f4;" horiz-adv-x="710" 
d="M309 253c-155 0 -233 86 -233 224v66c0 14 -7 22 -22 22h-43v150h171c52 0 73 -22 73 -73v-124c0 -69 33 -106 108 -106c48 0 81 15 104 34v269h179v-715h-179v259c0 14 2 33 2 33h-2c-36 -19 -83 -39 -158 -39zM408 771v140h112v-140h-112zM205 771v140h112v-140h-112z
" />
    <glyph glyph-name="uni04F8" unicode="&#x4f8;" horiz-adv-x="953" 
d="M685 73v642h179v-543c0 -14 8 -22 22 -22h43v-150h-171c-51 0 -73 22 -73 73zM88 73v470c0 14 -8 22 -22 22h-43v150h171c51 0 73 -22 73 -73v-149h100c121 0 243 -59 243 -237c0 -185 -131 -256 -282 -256h-167c-51 0 -73 22 -73 73zM267 172c0 -14 8 -22 22 -22h56
c48 0 81 40 81 100s-32 93 -80 93h-79v-171zM524 771v140h112v-140h-112zM321 771v140h112v-140h-112z" />
    <glyph glyph-name="uni0451" unicode="&#x451;" horiz-adv-x="555" 
d="M22 258c0 151 102 269 268 269c152 0 238 -106 238 -249c0 -18 -2 -36 -4 -54h-325c13 -63 65 -92 120 -92c51 0 100 24 142 52l64 -121c-56 -48 -141 -75 -220 -75c-184 0 -283 133 -283 270zM203 323h154c0 42 -27 77 -71 77c-50 0 -74 -36 -83 -77zM333 575v140h112
v-140h-112zM130 575v140h112v-140h-112z" />
    <glyph glyph-name="uni0457" unicode="&#x457;" horiz-adv-x="329" 
d="M187 575v140h112v-140h-112zM9 575v140h112v-140h-112zM78 73v275c0 14 -8 22 -22 22h-38v145h160c51 0 73 -22 73 -73v-275c0 -14 8 -22 22 -22h38v-145h-160c-51 0 -73 22 -73 73z" />
    <glyph glyph-name="uni04D3" unicode="&#x4d3;" horiz-adv-x="569" 
d="M20 144c0 163 220 177 299 177h7v9c0 49 -23 67 -66 67c-22 0 -45 -5 -45 -25v-23h-160v57c0 114 146 121 199 121c186 0 245 -88 245 -210v-150c0 -14 8 -22 22 -22h38v-145h-150c-50 0 -68 31 -68 54v9h-2s-44 -75 -150 -75c-97 0 -169 63 -169 156zM114 575v140h112
v-140h-112zM317 575v140h112v-140h-112zM191 162c0 -23 17 -45 49 -45c49 0 88 49 88 91v14h-19c-55 0 -118 -17 -118 -60z" />
    <glyph glyph-name="uni04DB" unicode="&#x4db;" horiz-adv-x="556" 
d="M303 575v140h112v-140h-112zM100 575v140h112v-140h-112zM26 238c0 20 4 62 4 62h327c-13 66 -65 92 -120 92c-72 0 -142 -49 -142 -49l-60 117c37 25 110 67 227 67c178 0 272 -126 272 -270c0 -151 -102 -269 -268 -269c-154 0 -240 107 -240 250zM205 205
c0 -56 27 -87 65 -87c51 0 83 34 83 87h-148z" />
    <glyph glyph-name="uni04DD" unicode="&#x4dd;" horiz-adv-x="849" 
d="M11 0l104 203c23 44 59 56 59 56v2s-22 7 -39 43l-23 49c-7 14 -18 17 -38 17h-40v145h121c37 0 57 -6 74 -39l64 -127c9 -17 28 -17 41 -17h8v183h165v-183h8c13 0 32 0 41 17l64 127c17 33 37 39 74 39h121v-145h-40c-20 0 -31 -3 -38 -17l-23 -49
c-17 -36 -39 -43 -39 -43v-2s36 -12 59 -56l104 -203h-196l-79 160c-12 20 -23 29 -42 29h-14v-189h-165v189h-14c-19 0 -30 -9 -42 -29l-79 -160h-196zM471 575v140h112v-140h-112zM268 575v140h112v-140h-112z" />
    <glyph glyph-name="uni04DF" unicode="&#x4df;" horiz-adv-x="475" 
d="M17 65l72 107c9 -7 62 -53 129 -53c45 0 62 20 62 48c0 27 -15 41 -54 41h-69v107h46c40 0 62 18 62 50c0 31 -22 43 -50 43c-22 0 -53 -8 -53 -36v-20h-135v58c0 81 93 117 201 117c131 0 207 -53 207 -144c0 -63 -37 -101 -66 -112v-2c39 -12 80 -48 80 -118
c0 -105 -94 -163 -218 -163c-122 0 -187 56 -214 77zM273 575v140h112v-140h-112zM70 575v140h112v-140h-112z" />
    <glyph glyph-name="uni04E5" unicode="&#x4e5;" horiz-adv-x="659" 
d="M78 0v348c0 14 -8 22 -22 22h-38v145h147c51 0 73 -22 73 -73v-159c0 -18 -1 -38 -2 -51h2c9 21 19 36 28 51l142 232h173v-348c0 -14 8 -22 22 -22h38v-145h-147c-51 0 -73 22 -73 73v157c0 12 0 32 2 52h-2c-9 -21 -20 -37 -28 -51l-142 -231h-173zM377 575v140h112
v-140h-112zM174 575v140h112v-140h-112z" />
    <glyph glyph-name="uni04E7" unicode="&#x4e7;" horiz-adv-x="628" 
d="M23 256c0 162 129 271 290 271c163 0 292 -109 292 -271c0 -161 -129 -268 -291 -268s-291 107 -291 268zM197 256c0 -77 54 -124 117 -124s117 47 117 124c0 78 -54 127 -117 127s-117 -49 -117 -127zM360 574v140h112v-140h-112zM157 574v140h112v-140h-112z" />
    <glyph glyph-name="uni04EB" unicode="&#x4eb;" horiz-adv-x="628" 
d="M23 256c0 162 129 271 290 271c163 0 292 -109 292 -271c0 -161 -129 -268 -291 -268s-291 107 -291 268zM314 117c57 0 109 35 125 96h-251c17 -61 68 -96 126 -96zM314 398c-55 0 -104 -34 -123 -91h246c-19 57 -68 91 -123 91zM156 575v140h112v-140h-112zM359 575
v140h112v-140h-112z" />
    <glyph glyph-name="uni04ED" unicode="&#x4ed;" horiz-adv-x="544" 
d="M16 62l60 116c41 -34 90 -58 147 -58c70 0 115 36 132 81h-189v109h190c-17 63 -59 85 -121 85c-40 0 -68 -9 -68 -28v-18h-140v47c0 76 85 131 212 131c196 0 282 -132 282 -266c0 -146 -103 -273 -287 -273c-78 0 -157 23 -218 74zM303 575v140h112v-140h-112zM100 575
v140h112v-140h-112z" />
    <glyph glyph-name="uni04F1" unicode="&#x4f1;" horiz-adv-x="571" 
d="M61 -33c0 0 30 -33 71 -33c28 0 60 8 77 51l6 15l-163 354c-6 13 -10 16 -22 16h-19v145h126c29 0 50 -15 60 -42l76 -208c10 -28 19 -80 19 -80h2s9 52 17 80l57 208c7 27 34 42 61 42h129v-145h-19c-12 0 -19 -3 -24 -16l-156 -409c-44 -114 -133 -155 -215 -155
c-89 0 -145 55 -145 55zM334 575v140h112v-140h-112zM131 575v140h112v-140h-112z" />
    <glyph glyph-name="uni04F5" unicode="&#x4f5;" horiz-adv-x="592" 
d="M229 157c-85 0 -165 46 -165 148v42c0 17 -6 23 -23 23h-27v145h150c60 0 70 -37 70 -74v-73c0 -44 15 -69 66 -69c35 0 55 13 71 25v191h173v-515h-173v163c0 12 1 24 1 24h-1c-29 -15 -69 -30 -142 -30zM337 575v140h112v-140h-112zM134 575v140h112v-140h-112z" />
    <glyph glyph-name="uni04F9" unicode="&#x4f9;" horiz-adv-x="842" 
d="M591 73v442h173v-348c0 -14 8 -22 22 -22h38v-145h-160c-51 0 -73 22 -73 73zM77 53v295c0 14 -8 22 -22 22h-38v145h161c47 0 72 -23 72 -58v-104h78c143 0 204 -78 204 -176c0 -122 -96 -177 -204 -177h-198c-37 0 -53 16 -53 53zM250 130c0 -10 6 -16 16 -16h33
c36 0 61 26 61 64s-24 61 -61 61h-49v-109zM466 575v140h112v-140h-112zM263 575v140h112v-140h-112z" />
    <glyph glyph-name="uni0472" unicode="&#x472;" horiz-adv-x="796" 
d="M24 362c0 205 158 365 374 365s374 -160 374 -365c0 -210 -158 -374 -374 -374s-374 164 -374 374zM397 570c-88 0 -162 -60 -186 -146h374c-24 86 -99 146 -188 146zM397 145c87 0 161 59 187 147h-371c26 -88 98 -147 184 -147z" />
    <glyph glyph-name="uni04E8" unicode="&#x4e8;" horiz-adv-x="796" 
d="M24 362c0 205 158 365 374 365s374 -160 374 -365c0 -210 -158 -374 -374 -374s-374 164 -374 374zM397 570c-88 0 -162 -60 -186 -146h374c-24 86 -99 146 -188 146zM397 145c87 0 161 59 187 147h-371c26 -88 98 -147 184 -147z" />
    <glyph glyph-name="uni0473" unicode="&#x473;" horiz-adv-x="628" 
d="M23 256c0 162 129 271 290 271c163 0 292 -109 292 -271c0 -161 -129 -268 -291 -268s-291 107 -291 268zM314 117c57 0 109 35 125 96h-251c17 -61 68 -96 126 -96zM314 398c-55 0 -104 -34 -123 -91h246c-19 57 -68 91 -123 91z" />
    <glyph glyph-name="uni04E9" unicode="&#x4e9;" horiz-adv-x="628" 
d="M23 256c0 162 129 271 290 271c163 0 292 -109 292 -271c0 -161 -129 -268 -291 -268s-291 107 -291 268zM314 117c57 0 109 35 125 96h-251c17 -61 68 -96 126 -96zM314 398c-55 0 -104 -34 -123 -91h246c-19 57 -68 91 -123 91z" />
    <glyph glyph-name="uni0496" unicode="&#x496;" horiz-adv-x="1031" 
d="M1 0l159 303c26 50 57 62 57 62v2s-28 7 -53 57l-57 118c-10 21 -29 23 -49 23h-20v150h94c50 0 79 -8 101 -53l101 -206c11 -23 27 -23 50 -23h23v282h169v-282h18c22 0 43 0 54 23l101 206c22 45 51 53 101 53h94v-150h-20c-20 0 -39 -2 -49 -23l-57 -118
c-25 -50 -53 -57 -53 -57v-2s31 -12 57 -62l80 -153h50c51 0 69 -18 69 -69v-221h-155v118c0 12 -6 21 -16 22h-59l-138 273c-11 22 -25 22 -45 22h-32v-295h-169v295h-33c-20 0 -34 0 -45 -22l-138 -273h-190z" />
    <glyph glyph-name="uni049A" unicode="&#x49a;" horiz-adv-x="722" 
d="M89 0v543c0 14 -8 22 -22 22h-43v150h171c51 0 73 -22 73 -73v-203h24c25 0 43 0 55 22l121 254h195l-143 -289c-24 -49 -53 -62 -53 -62v-2s31 -7 56 -57l77 -155h43c51 0 69 -18 69 -69v-221h-155v118c0 13 -7 22 -19 22h-60l-135 267c-12 23 -34 23 -61 23h-14v-290
h-179z" />
    <glyph glyph-name="uni04B2" unicode="&#x4b2;" horiz-adv-x="690" 
d="M2 0l216 355l-117 188c-13 20 -14 22 -36 22h-37v150h116c47 0 67 -11 87 -48l51 -93c25 -45 44 -90 44 -90h2s19 45 44 90l52 93c21 37 40 48 87 48h116v-150h-37c-22 0 -23 -2 -36 -22l-118 -188l125 -205h54c51 0 69 -18 69 -69v-221h-155v118c0 13 -7 22 -19 22h-56
l-82 144c-25 45 -44 87 -44 87h-2s-19 -42 -44 -87l-82 -144h-198z" />
    <glyph glyph-name="uni04F6" unicode="&#x4f6;" horiz-adv-x="562" 
d="M88 0v565h-65v150h450c51 0 73 -22 73 -73v-138h-160v39c0 14 -8 22 -22 22h-97v-415h44c51 0 69 -18 69 -69v-221h-155v118c0 13 -7 22 -19 22h-118z" />
    <glyph glyph-name="uni04A2" unicode="&#x4a2;" horiz-adv-x="812" 
d="M89 0v543c0 14 -8 22 -22 22h-43v150h171c51 0 73 -22 73 -73v-213h242v213c0 51 22 73 73 73h171v-150h-43c-14 0 -22 -8 -22 -22v-393h44c51 0 69 -18 69 -69v-221h-155v118c0 12 -6 21 -16 22h-121v280h-242v-280h-179z" />
    <glyph glyph-name="uni04AC" unicode="&#x4ac;" horiz-adv-x="679" 
d="M247 0v565h-58c-14 0 -22 -8 -22 -22v-39h-155v142c0 51 18 69 69 69h511c51 0 69 -18 69 -69v-142h-155v39c0 14 -8 22 -22 22h-58v-415h44c51 0 69 -18 69 -69v-221h-155v118c0 13 -7 22 -19 22h-118z" />
    <glyph glyph-name="uni04B6" unicode="&#x4b6;" horiz-adv-x="772" 
d="M309 253c-155 0 -233 86 -233 224v66c0 14 -7 22 -22 22h-43v150h171c52 0 73 -22 73 -73v-124c0 -69 33 -106 108 -106c48 0 81 15 104 34v269h179v-565h45c51 0 69 -18 69 -69v-221h-155v118c0 12 -6 21 -16 22h-122v259c0 14 2 33 2 33h-2c-36 -19 -83 -39 -158 -39z
" />
    <glyph glyph-name="uni04CB" unicode="&#x4cb;" horiz-adv-x="709" 
d="M308 253c-155 0 -233 86 -233 224v66c0 14 -7 22 -22 22h-43v150h171c52 0 73 -22 73 -73v-124c0 -69 33 -106 108 -106c48 0 81 15 104 34v269h179v-715h-122c-10 -1 -16 -10 -16 -22v-118h-155v221c0 51 18 69 69 69h45v109c0 14 2 33 2 33h-2
c-36 -19 -83 -39 -158 -39z" />
    <glyph glyph-name="uni0497" unicode="&#x497;" horiz-adv-x="888" 
d="M11 0l104 203c23 44 59 56 59 56v2s-22 7 -39 43l-23 49c-7 14 -18 17 -38 17h-40v145h121c37 0 57 -6 74 -39l64 -127c9 -17 28 -17 41 -17h8v183h165v-183h8c13 0 32 0 41 17l64 127c17 33 37 39 74 39h121v-145h-40c-20 0 -31 -3 -38 -17l-23 -49
c-17 -36 -39 -43 -39 -43v-2s36 -12 59 -56l32 -63h44c48 0 66 -23 66 -73v-187h-155v98c0 13 -7 22 -19 22h-60l-79 160c-12 20 -23 29 -42 29h-14v-189h-165v189h-14c-19 0 -30 -9 -42 -29l-79 -160h-196z" />
    <glyph glyph-name="uni049B" unicode="&#x49b;" horiz-adv-x="629" 
d="M78 0v348c0 14 -8 22 -22 22h-38v145h160c51 0 73 -7 73 -58v-112h27c15 0 32 0 41 16l84 154h188l-117 -198c-19 -33 -38 -43 -38 -43v-2s22 -8 39 -43l44 -89h33c48 0 66 -23 66 -73v-187h-155v98c0 12 -6 22 -16 22h-46l-94 183c-9 17 -28 17 -41 17h-15v-200h-173z
" />
    <glyph glyph-name="uni04B3" unicode="&#x4b3;" horiz-adv-x="587" 
d="M16 0l159 255l-65 100c-9 13 -12 15 -33 15h-49v145h129c36 0 57 -9 74 -42l33 -63c7 -13 15 -34 15 -34h2s9 21 16 34l33 63c17 33 38 42 74 42h129v-145h-49c-21 0 -24 -2 -33 -15l-65 -100l71 -115h48c48 0 66 -23 66 -73v-187h-155v98c0 13 -7 21 -18 22h-43l-62 106
c-5 9 -12 26 -12 26h-2s-7 -17 -12 -26l-61 -106h-190z" />
    <glyph glyph-name="uni04F7" unicode="&#x4f7;" horiz-adv-x="480" 
d="M78 0v370h-60v145h369c51 0 73 -22 73 -73v-115h-140v21c0 14 -8 22 -22 22h-47v-230h32c48 0 66 -23 66 -73v-187h-155v98c0 13 -7 22 -19 22h-97z" />
    <glyph glyph-name="uni04A3" unicode="&#x4a3;" horiz-adv-x="689" 
d="M408 0v192h-157v-192h-173v348c0 14 -8 22 -22 22h-38v145h160c51 0 73 -22 73 -73v-110h157v183h173v-375h32c48 0 66 -23 66 -73v-187h-155v98c0 12 -6 21 -16 22h-100z" />
    <glyph glyph-name="uni04AD" unicode="&#x4ad;" horiz-adv-x="585" 
d="M204 0v370h-24c-14 0 -22 -8 -22 -22v-21h-140v115c0 51 22 73 73 73h399c51 0 73 -22 73 -73v-115h-140v21c0 14 -8 22 -22 22h-24v-230h33c48 0 66 -23 66 -73v-187h-155v98c0 12 -6 21 -16 22h-101z" />
    <glyph glyph-name="uni04B7" unicode="&#x4b7;" horiz-adv-x="652" 
d="M229 157c-85 0 -165 46 -165 148v42c0 17 -6 23 -23 23h-27v145h150c60 0 70 -37 70 -74v-73c0 -44 15 -69 66 -69c35 0 55 13 71 25v191h173v-375h32c48 0 66 -23 66 -73v-187h-155v98c0 13 -7 22 -19 22h-97v163c0 12 1 24 1 24h-1c-29 -15 -69 -30 -142 -30z" />
    <glyph glyph-name="uni04CC" unicode="&#x4cc;" horiz-adv-x="592" 
d="M273 44c0 50 18 73 66 73h32v66c0 12 1 24 1 24h-1c-29 -15 -69 -30 -142 -30c-85 0 -165 46 -165 148v22c0 17 -6 23 -23 23h-27v145h150c60 0 70 -37 70 -74v-53c0 -44 15 -69 66 -69c35 0 55 13 71 25v171h173v-515h-97c-12 0 -19 -9 -19 -22v-98h-155v164z" />
    <glyph glyph-name="uni048A" unicode="&#x48a;" horiz-adv-x="840" 
d="M89 0v543c0 14 -8 22 -22 22h-43v150h171c51 0 73 -22 73 -73v-244c0 -45 -8 -119 -8 -119h2s39 73 66 119l187 317h180v-543c0 -14 8 -22 22 -22h112v-91l-89 -199h-117l32 140h-66c-51 0 -73 22 -73 73v245c0 45 8 123 8 123h-2s-36 -76 -64 -123l-188 -318h-181z
M406 747c-102 0 -190 55 -190 153v11h128v-12c0 -41 32 -59 62 -59c29 0 62 18 62 59v12h127v-11c0 -98 -88 -153 -189 -153z" />
    <glyph glyph-name="uni04C5" unicode="&#x4c5;" horiz-adv-x="782" 
d="M10 -8v159c85 11 143 73 143 329v85h-66v150h477c51 0 73 -22 73 -73v-470c0 -14 8 -22 22 -22h112v-91l-89 -199h-117l32 140h-66c-51 0 -73 22 -73 73v470c0 14 -8 22 -22 22h-114v-87c0 -349 -111 -486 -312 -486z" />
    <glyph glyph-name="uni04C9" unicode="&#x4c9;" horiz-adv-x="836" 
d="M89 0v543c0 14 -8 22 -22 22h-43v150h171c51 0 73 -22 73 -73v-213h242v213c0 51 22 73 73 73h171v-150h-43c-14 0 -22 -8 -22 -22v-393h137v-91l-89 -199h-117l33 140h-143v280h-242v-280h-179z" />
    <glyph glyph-name="uni04CD" unicode="&#x4cd;" horiz-adv-x="956" 
d="M22 0v150h25c14 0 21 8 22 22l44 543h187l114 -282c18 -45 36 -103 36 -103h2s18 58 36 103l114 282h187l44 -543c1 -14 8 -22 22 -22h118v-91l-89 -199h-117l32 140h-67c-51 0 -69 22 -73 73l-16 229c-4 54 0 120 0 120h-2s-21 -76 -40 -120l-80 -187h-140l-80 187
c-19 44 -40 120 -40 120h-2s4 -66 0 -120l-16 -229c-4 -51 -22 -73 -73 -73h-148z" />
    <glyph glyph-name="uni048B" unicode="&#x48b;" horiz-adv-x="721" 
d="M78 0v348c0 14 -8 22 -22 22h-38v145h147c51 0 73 -22 73 -73v-159c0 -18 -1 -38 -2 -51h2c9 21 19 36 28 51l142 232h173v-348c0 -13 6 -21 18 -22h110v-86l-80 -179h-110l27 120h-52c-51 0 -73 22 -73 73v157c0 12 0 32 2 52h-2c-9 -21 -20 -37 -28 -51l-142 -231h-173
zM331 551c-102 0 -190 55 -190 153v11h128v-12c0 -41 32 -59 62 -59c29 0 62 18 62 59v12h127v-11c0 -98 -88 -153 -189 -153z" />
    <glyph glyph-name="uni04C6" unicode="&#x4c6;" horiz-adv-x="655" 
d="M16 -2v151c49 5 89 28 89 181v40h-60v145h409c51 0 73 -22 73 -73v-275c0 -13 6 -21 18 -22h97v-86l-80 -179h-110l27 120h-52c-51 0 -73 22 -73 73v274c0 14 -8 23 -22 23h-64v-42c0 -194 -49 -333 -252 -330z" />
    <glyph glyph-name="uni04CA" unicode="&#x4ca;" horiz-adv-x="689" 
d="M78 0v348c0 14 -8 22 -22 22h-38v145h160c51 0 73 -22 73 -73v-112h157v185h173v-348c0 -13 6 -21 18 -22h78v-86l-80 -179h-110l27 120h-33c-51 0 -73 22 -73 73v117h-157v-190h-173z" />
    <glyph glyph-name="uni04CE" unicode="&#x4ce;" horiz-adv-x="833" 
d="M19 0v145h18c10 0 15 6 16 16l35 354h198l78 -226c9 -26 18 -60 18 -60h1s10 34 19 60l78 226h198l35 -354c1 -10 6 -16 16 -16h110v-86l-80 -179h-110l27 120h-54c-38 0 -52 16 -54 53l-13 174c-2 40 -2 91 -2 91h-2s-15 -47 -28 -79l-67 -170h-156l-59 170
c-12 33 -26 79 -26 79h-2s0 -51 -2 -91l-13 -174c-2 -37 -16 -53 -54 -53h-125z" />
    <glyph glyph-name="uni0498" unicode="&#x498;" horiz-adv-x="564" 
d="M14 92l101 120c19 -17 74 -70 144 -70c45 0 93 23 93 74c0 44 -36 72 -84 72h-76v140h72c45 0 71 31 71 75c0 49 -32 69 -73 69c-45 0 -71 -24 -71 -50v-22h-160v72c0 105 128 155 249 155c150 0 233 -77 233 -192c0 -83 -43 -129 -91 -159v-2c77 -25 112 -95 112 -168
c0 -98 -64 -177 -173 -206v-140h-155v132c-104 15 -158 69 -192 100z" />
    <glyph glyph-name="uni04AA" unicode="&#x4aa;" horiz-adv-x="710" 
d="M25 365c0 205 157 362 370 362c85 0 274 -33 274 -167v-94h-160v39c0 41 -64 57 -110 57c-104 0 -188 -67 -188 -197c0 -117 87 -212 192 -212c125 0 204 91 204 91l91 -128s-87 -102 -240 -124v-132h-155v139c-171 39 -278 183 -278 366z" />
    <glyph glyph-name="uni04BE" unicode="&#x4be;" horiz-adv-x="901" 
d="M632 -140h-155v141c-137 38 -237 156 -255 310c-122 2 -209 64 -209 216c0 25 1 58 9 91l7 30h155l-8 -32c-5 -22 -8 -45 -8 -67c0 -49 7 -100 59 -106c33 190 179 284 329 284c207 0 315 -150 315 -345c0 -24 -6 -72 -6 -72h-461c17 -91 83 -162 193 -162
c77 0 152 42 185 73l81 -132c-18 -16 -90 -83 -231 -98v-131zM404 443h292c0 76 -49 131 -140 131c-94 0 -148 -78 -152 -131z" />
    <glyph glyph-name="uni0499" unicode="&#x499;" horiz-adv-x="477" 
d="M18 65l72 107c9 -7 62 -53 129 -53c45 0 62 20 62 48c0 27 -15 41 -54 41h-69v107h46c40 0 62 18 62 50c0 31 -22 43 -50 43c-22 0 -53 -8 -53 -36v-20h-135v58c0 81 93 117 201 117c131 0 207 -53 207 -144c0 -63 -37 -101 -66 -112v-2c39 -12 80 -48 80 -118
c0 -78 -52 -131 -130 -152v-119h-150v113c-83 14 -130 55 -152 72z" />
    <glyph glyph-name="uni04AB" unicode="&#x4ab;" horiz-adv-x="547" 
d="M23 258c0 136 96 269 291 269c72 0 190 -28 190 -121v-71h-150v27c0 16 -19 22 -40 22c-73 0 -117 -55 -117 -124c0 -88 66 -123 130 -123c74 0 142 67 142 67l69 -116s-59 -71 -163 -93v-115h-150v118c-131 33 -202 141 -202 260z" />
    <glyph glyph-name="uni04BF" unicode="&#x4bf;" horiz-adv-x="705" 
d="M521 -120h-150v119c-118 30 -186 125 -198 227c-111 5 -163 69 -163 182c0 23 3 45 8 68h133c-5 -20 -8 -39 -8 -59c0 -47 13 -73 38 -82c29 112 122 192 259 192c152 0 238 -106 238 -249c0 -17 -4 -54 -4 -54h-325c13 -65 65 -92 120 -92c74 0 137 54 137 54l69 -116
s-58 -56 -154 -75v-115zM354 323h150c0 37 -28 74 -64 74c-50 0 -78 -30 -86 -74z" />
    <glyph glyph-name="uni040F" unicode="&#x40f;" horiz-adv-x="775" 
d="M88 73v470c0 14 -8 22 -22 22h-43v150h171c51 0 73 -22 73 -73v-470c0 -14 8 -22 22 -22h197c14 0 22 8 22 22v470c0 51 22 73 73 73h171v-150h-43c-14 0 -22 -8 -22 -22v-470c0 -51 -22 -73 -73 -73h-149v-140h-155v140h-149c-51 0 -73 22 -73 73z" />
    <glyph glyph-name="uni045F" unicode="&#x45f;" horiz-adv-x="643" 
d="M77 71v277c0 14 -8 22 -22 22h-38v145h160c51 0 73 -22 73 -73v-280c0 -14 8 -22 22 -22h100c14 0 21 8 21 22v280c0 51 22 73 73 73h160v-145h-38c-14 0 -22 -8 -22 -22v-277c0 -51 -22 -71 -73 -71h-96v-120h-150v120h-97c-51 0 -73 20 -73 71z" />
    <glyph glyph-name="uni040E" unicode="&#x40e;" horiz-adv-x="661" 
d="M336 747c-102 0 -190 55 -190 153v11h128v-12c0 -41 32 -59 62 -59c29 0 62 18 62 59v12h127v-11c0 -98 -88 -153 -189 -153zM58 48l78 131c18 -16 40 -29 66 -29c28 0 45 10 54 38l-191 355c-9 16 -14 22 -30 22h-25v150h121c50 0 66 -18 84 -58l99 -218
c17 -38 32 -83 32 -83h2s12 42 27 83l78 218c15 43 34 58 84 58h114v-150h-25c-16 0 -20 -5 -27 -22l-170 -403c-29 -69 -80 -152 -199 -152c-68 0 -137 27 -172 60z" />
    <glyph glyph-name="uni04C1" unicode="&#x4c1;" horiz-adv-x="982" 
d="M1 0l159 303c26 50 57 62 57 62v2s-28 7 -53 57l-57 118c-10 21 -29 23 -49 23h-20v150h94c50 0 79 -8 101 -53l101 -206c11 -23 27 -23 50 -23h23v282h169v-282h18c22 0 43 0 54 23l101 206c22 45 51 53 101 53h94v-150h-20c-20 0 -39 -2 -49 -23l-57 -118
c-25 -50 -53 -57 -53 -57v-2s31 -12 57 -62l159 -303h-190l-138 273c-11 22 -25 22 -45 22h-32v-295h-169v295h-33c-20 0 -34 0 -45 -22l-138 -273h-190zM499 747c-102 0 -190 55 -190 153v11h128v-12c0 -41 32 -59 62 -59c29 0 62 18 62 59v12h127v-11
c0 -98 -88 -153 -189 -153z" />
    <glyph glyph-name="uni04D0" unicode="&#x4d0;" horiz-adv-x="690" 
d="M11 0v150h19c16 0 21 5 27 22l195 543h186l195 -543c6 -17 11 -22 27 -22h19v-150h-115c-50 0 -70 15 -84 58l-31 92h-208l-31 -92c-14 -43 -34 -58 -84 -58h-115zM279 295h132l-36 119c-14 45 -29 118 -29 118h-2s-15 -73 -29 -118zM345 747c-102 0 -190 55 -190 153v11
h128v-12c0 -41 32 -59 62 -59c29 0 62 18 62 59v12h127v-11c0 -98 -88 -153 -189 -153z" />
    <glyph glyph-name="uni04D6" unicode="&#x4d6;" horiz-adv-x="601" 
d="M88 73v492h-65v150h450c51 0 73 -22 73 -73v-138h-160v39c0 14 -8 22 -22 22h-97v-130h204v-150h-204v-113c0 -14 8 -22 22 -22h99c14 0 22 8 22 22v39h160v-138c0 -51 -22 -73 -73 -73h-336c-51 0 -73 22 -73 73zM318 747c-102 0 -190 55 -190 153v11h128v-12
c0 -41 32 -59 62 -59c29 0 62 18 62 59v12h127v-11c0 -98 -88 -153 -189 -153z" />
    <glyph glyph-name="uni045E" unicode="&#x45e;" horiz-adv-x="571" 
d="M61 -33c0 0 30 -33 71 -33c28 0 60 8 77 51l6 15l-163 354c-6 13 -10 16 -22 16h-19v145h126c29 0 50 -15 60 -42l76 -208c10 -28 19 -80 19 -80h2s9 52 17 80l57 208c7 27 34 42 61 42h129v-145h-19c-12 0 -19 -3 -24 -16l-156 -409c-44 -114 -133 -155 -215 -155
c-89 0 -145 55 -145 55zM291 551c-102 0 -190 55 -190 153v11h128v-12c0 -41 32 -59 62 -59c29 0 62 18 62 59v12h127v-11c0 -98 -88 -153 -189 -153z" />
    <glyph glyph-name="uni04C2" unicode="&#x4c2;" horiz-adv-x="849" 
d="M11 0l104 203c23 44 59 56 59 56v2s-22 7 -39 43l-23 49c-7 14 -18 17 -38 17h-40v145h121c37 0 57 -6 74 -39l64 -127c9 -17 28 -17 41 -17h8v183h165v-183h8c13 0 32 0 41 17l64 127c17 33 37 39 74 39h121v-145h-40c-20 0 -31 -3 -38 -17l-23 -49
c-17 -36 -39 -43 -39 -43v-2s36 -12 59 -56l104 -203h-196l-79 160c-12 20 -23 29 -42 29h-14v-189h-165v189h-14c-19 0 -30 -9 -42 -29l-79 -160h-196zM428 551c-102 0 -190 55 -190 153v11h128v-12c0 -41 32 -59 62 -59c29 0 62 18 62 59v12h127v-11
c0 -98 -88 -153 -189 -153z" />
    <glyph glyph-name="uni04D1" unicode="&#x4d1;" horiz-adv-x="569" 
d="M20 144c0 163 220 177 299 177h7v9c0 49 -23 67 -66 67c-22 0 -45 -5 -45 -25v-23h-160v57c0 114 146 121 199 121c186 0 245 -88 245 -210v-150c0 -14 8 -22 22 -22h38v-145h-150c-50 0 -68 31 -68 54v9h-2s-44 -75 -150 -75c-97 0 -169 63 -169 156zM286 551
c-102 0 -190 55 -190 153v11h128v-12c0 -41 32 -59 62 -59c29 0 62 18 62 59v12h127v-11c0 -98 -88 -153 -189 -153zM191 162c0 -23 17 -45 49 -45c49 0 88 49 88 91v14h-19c-55 0 -118 -17 -118 -60z" />
    <glyph glyph-name="uni04D7" unicode="&#x4d7;" horiz-adv-x="555" 
d="M22 258c0 151 102 269 268 269c152 0 238 -106 238 -249c0 -18 -2 -36 -4 -54h-325c13 -63 65 -92 120 -92c51 0 100 24 142 52l64 -121c-56 -48 -141 -75 -220 -75c-184 0 -283 133 -283 270zM203 323h154c0 42 -27 77 -71 77c-50 0 -74 -36 -83 -77zM285 551
c-102 0 -190 55 -190 153v11h128v-12c0 -41 32 -59 62 -59c29 0 62 18 62 59v12h127v-11c0 -98 -88 -153 -189 -153z" />
    <glyph glyph-name="uni0400" unicode="&#x400;" horiz-adv-x="601" 
d="M88 73v492h-65v150h450c51 0 73 -22 73 -73v-138h-160v39c0 14 -8 22 -22 22h-97v-130h204v-150h-204v-113c0 -14 8 -22 22 -22h99c14 0 22 8 22 22v39h160v-138c0 -51 -22 -73 -73 -73h-336c-51 0 -73 22 -73 73zM283 761l-118 150h157l81 -150h-120z" />
    <glyph glyph-name="uni040D" unicode="&#x40d;" horiz-adv-x="784" 
d="M89 0v543c0 14 -8 22 -22 22h-43v150h171c51 0 73 -22 73 -73v-244c0 -45 -8 -119 -8 -119h2s39 73 66 119l187 317h180v-543c0 -14 8 -22 22 -22h43v-150h-171c-51 0 -73 22 -73 73v245c0 45 8 123 8 123h-2s-36 -76 -64 -123l-188 -318h-181zM345 761l-118 150h157
l81 -150h-120z" />
    <glyph glyph-name="uni0450" unicode="&#x450;" horiz-adv-x="555" 
d="M22 258c0 151 102 269 268 269c152 0 238 -106 238 -249c0 -18 -2 -36 -4 -54h-325c13 -63 65 -92 120 -92c51 0 100 24 142 52l64 -121c-56 -48 -141 -75 -220 -75c-184 0 -283 133 -283 270zM203 323h154c0 42 -27 77 -71 77c-50 0 -74 -36 -83 -77zM245 565l-118 150
h157l81 -150h-120z" />
    <glyph glyph-name="uni045D" unicode="&#x45d;" horiz-adv-x="659" 
d="M78 0v348c0 14 -8 22 -22 22h-38v145h147c51 0 73 -22 73 -73v-159c0 -18 -1 -38 -2 -51h2c9 21 19 36 28 51l142 232h173v-348c0 -14 8 -22 22 -22h38v-145h-147c-51 0 -73 22 -73 73v157c0 12 0 32 2 52h-2c-9 -21 -20 -37 -28 -51l-142 -231h-173zM285 565l-118 150
h157l81 -150h-120z" />
    <glyph glyph-name="uni0403" unicode="&#x403;" horiz-adv-x="558" 
d="M88 0v565h-65v150h450c51 0 73 -22 73 -73v-138h-160v39c0 14 -8 22 -22 22h-97v-565h-179zM215 761l81 150h157l-118 -150h-120z" />
    <glyph glyph-name="uni040C" unicode="&#x40c;" horiz-adv-x="676" 
d="M302 761l81 150h157l-118 -150h-120zM89 0v543c0 14 -8 22 -22 22h-43v150h171c51 0 73 -22 73 -73v-203h24c25 0 43 0 55 22l121 254h195l-143 -289c-24 -49 -53 -62 -53 -62v-2s30 -7 55 -57l65 -132c10 -21 29 -23 49 -23h19v-150h-105c-50 0 -79 8 -101 53l-107 214
c-12 23 -33 23 -60 23h-14v-290h-179z" />
    <glyph glyph-name="uni04F2" unicode="&#x4f2;" horiz-adv-x="661" 
d="M58 48l78 131c18 -16 40 -29 66 -29c28 0 45 10 54 38l-191 355c-9 16 -14 22 -30 22h-25v150h121c50 0 66 -18 84 -58l99 -218c17 -38 32 -83 32 -83h2s12 42 27 83l78 218c15 43 34 58 84 58h114v-150h-25c-16 0 -20 -5 -27 -22l-170 -403c-29 -69 -80 -152 -199 -152
c-68 0 -137 27 -172 60zM373 761l81 150h157l-118 -150h-120zM170 761l77 150h133l-79 -150h-131z" />
    <glyph glyph-name="uni04E2" unicode="&#x4e2;" horiz-adv-x="784" 
d="M89 0v543c0 14 -8 22 -22 22h-43v150h171c51 0 73 -22 73 -73v-244c0 -45 -8 -119 -8 -119h2s39 73 66 119l187 317h180v-543c0 -14 8 -22 22 -22h43v-150h-171c-51 0 -73 22 -73 73v245c0 45 8 123 8 123h-2s-36 -76 -64 -123l-188 -318h-181zM269 785v107h275v-107
h-275z" />
    <glyph glyph-name="uni04EE" unicode="&#x4ee;" horiz-adv-x="661" 
d="M201 785v107h275v-107h-275zM58 48l78 131c18 -16 40 -29 66 -29c28 0 45 10 54 38l-191 355c-9 16 -14 22 -30 22h-25v150h121c50 0 66 -18 84 -58l99 -218c17 -38 32 -83 32 -83h2s12 42 27 83l78 218c15 43 34 58 84 58h114v-150h-25c-16 0 -20 -5 -27 -22l-170 -403
c-29 -69 -80 -152 -199 -152c-68 0 -137 27 -172 60z" />
    <glyph glyph-name="uni0453" unicode="&#x453;" horiz-adv-x="477" 
d="M78 0v370h-60v145h369c51 0 73 -22 73 -73v-115h-140v21c0 14 -8 22 -22 22h-47v-370h-173zM177 565l81 150h157l-118 -150h-120z" />
    <glyph glyph-name="uni045C" unicode="&#x45c;" horiz-adv-x="611" 
d="M78 0v348c0 14 -8 22 -22 22h-38v145h160c51 0 73 -22 73 -73v-107h21c15 0 33 1 42 17l89 163h188l-123 -208c-19 -33 -38 -43 -38 -43v-2s28 -9 48 -43l33 -57c8 -14 18 -17 38 -17h37v-145h-131c-37 0 -57 6 -74 39l-68 134c-9 17 -25 17 -38 17h-24v-190h-173z
M251 565l81 150h157l-118 -150h-120z" />
    <glyph glyph-name="uni04F3" unicode="&#x4f3;" horiz-adv-x="571" 
d="M326 565l81 150h157l-118 -150h-120zM123 565l77 150h133l-79 -150h-131zM61 -33c0 0 30 -33 71 -33c28 0 60 8 77 51l6 15l-163 354c-6 13 -10 16 -22 16h-19v145h126c29 0 50 -15 60 -42l76 -208c10 -28 19 -80 19 -80h2s9 52 17 80l57 208c7 27 34 42 61 42h129v-145
h-19c-12 0 -19 -3 -24 -16l-156 -409c-44 -114 -133 -155 -215 -155c-89 0 -145 55 -145 55z" />
    <glyph glyph-name="uni04E3" unicode="&#x4e3;" horiz-adv-x="659" 
d="M78 0v348c0 14 -8 22 -22 22h-38v145h147c51 0 73 -22 73 -73v-159c0 -18 -1 -38 -2 -51h2c9 21 19 36 28 51l142 232h173v-348c0 -14 8 -22 22 -22h38v-145h-147c-51 0 -73 22 -73 73v157c0 12 0 32 2 52h-2c-9 -21 -20 -37 -28 -51l-142 -231h-173zM198 589v107h275
v-107h-275z" />
    <glyph glyph-name="uni04EF" unicode="&#x4ef;" horiz-adv-x="571" 
d="M61 -33c0 0 30 -33 71 -33c28 0 60 8 77 51l6 15l-163 354c-6 13 -10 16 -22 16h-19v145h126c29 0 50 -15 60 -42l76 -208c10 -28 19 -80 19 -80h2s9 52 17 80l57 208c7 27 34 42 61 42h129v-145h-19c-12 0 -19 -3 -24 -16l-156 -409c-44 -114 -133 -155 -215 -155
c-89 0 -145 55 -145 55zM154 589v107h275v-107h-275z" />
    <glyph glyph-name="uni0405" unicode="&#x405;" horiz-adv-x="564" 
d="M22 106l99 125s74 -84 164 -84c36 0 72 13 72 53c0 79 -324 88 -324 312c0 129 113 215 255 215c95 0 228 -46 228 -155v-78h-160v31c0 26 -37 42 -70 42c-36 0 -73 -15 -73 -48c0 -87 324 -75 324 -310c0 -119 -93 -221 -254 -221c-168 0 -261 118 -261 118z" />
    <glyph glyph-name="uni0406" unicode="&#x406;" horiz-adv-x="399" 
d="M40 0v150h75v415h-75v150h319v-150h-75v-415h75v-150h-319z" />
    <glyph glyph-name="uni0408" unicode="&#x408;" horiz-adv-x="552" 
d="M7 220v52h179v-33c0 -66 31 -86 66 -86c37 0 63 24 63 76v314c0 14 -8 22 -22 22h-170v150h298c51 0 73 -22 73 -73v-422c0 -157 -122 -232 -244 -232s-243 77 -243 232z" />
    <glyph glyph-name="uni04C0" unicode="&#x4c0;" horiz-adv-x="399" 
d="M40 0v150h75v415h-75v150h319v-150h-75v-415h75v-150h-319z" />
    <glyph glyph-name="uni04D4" unicode="&#x4d4;" horiz-adv-x="957" 
d="M10 0v150h19c16 0 20 5 27 22l235 543h538c51 0 73 -22 73 -73v-138h-160v39c0 14 -8 22 -22 22h-97v-130h204v-150h-204v-113c0 -14 8 -22 22 -22h99c14 0 22 8 22 22v39h160v-138c0 -51 -22 -73 -73 -73h-337c-51 0 -73 22 -73 73v212h-159l-85 -227
c-16 -42 -34 -58 -84 -58h-105zM341 435h102v130h-53z" />
    <glyph glyph-name="uni0455" unicode="&#x455;" horiz-adv-x="488" 
d="M23 82l77 111s72 -74 151 -74c25 0 39 7 39 25c0 43 -258 57 -258 224c0 111 103 159 212 159c84 0 200 -24 200 -117v-61h-150v25c0 14 -22 24 -47 24c-24 0 -46 -8 -46 -24c0 -53 261 -46 261 -219c0 -104 -91 -167 -211 -167c-148 0 -228 94 -228 94z" />
    <glyph glyph-name="uni0456" unicode="&#x456;" horiz-adv-x="329" 
d="M91 575v140h145v-140h-145zM78 73v275c0 14 -8 22 -22 22h-38v145h160c51 0 73 -22 73 -73v-275c0 -14 8 -22 22 -22h38v-145h-160c-51 0 -73 22 -73 73z" />
    <glyph glyph-name="uni0458" unicode="&#x458;" horiz-adv-x="299" 
d="M89 575v140h145v-140h-145zM78 4v344c0 14 -8 22 -22 22h-38v145h160c51 0 73 -22 73 -73v-455c0 -173 -162 -195 -242 -195c-28 0 -46 3 -46 3v144s9 -1 22 -1c34 0 93 8 93 66z" />
    <glyph glyph-name="uni04CF" unicode="&#x4cf;" horiz-adv-x="399" 
d="M40 0v145h75v425h-75v145h319v-145h-75v-425h75v-145h-319z" />
    <glyph glyph-name="uni04D5" unicode="&#x4d5;" horiz-adv-x="846" 
d="M19 153c0 149 210 170 293 170h14v11c0 49 -29 63 -67 63c-22 0 -45 -5 -45 -25v-23h-160v57c0 103 118 121 205 121c80 0 131 -19 167 -51h2c39 32 88 51 154 51c143 0 238 -108 238 -254c0 -15 -4 -49 -4 -49h-325c13 -69 65 -92 120 -92c74 0 137 54 137 54l69 -116
s-83 -82 -220 -82c-99 0 -162 35 -207 90h-2c-13 -23 -71 -89 -193 -89c-96 0 -176 63 -176 164zM496 323h147c0 34 -23 74 -61 74c-50 0 -75 -33 -86 -74zM193 163c0 -24 16 -43 52 -43c47 0 84 50 84 92v12h-17c-55 0 -119 -16 -119 -61z" />
    <glyph glyph-name="uni0474" unicode="&#x474;" horiz-adv-x="717" 
d="M267 0l-262 715h202l126 -392c15 -45 27 -115 27 -115h2s12 70 27 115l107 334c14 43 34 58 84 58h125v-150h-25c-16 0 -21 -5 -27 -22l-198 -543h-188z" />
    <glyph glyph-name="uni0475" unicode="&#x475;" horiz-adv-x="626" 
d="M202 0l-193 515h191l92 -274c11 -33 19 -83 19 -83h2s8 50 19 83l57 173c25 75 56 101 133 101h94v-145h-32c-31 0 -45 -9 -59 -48l-120 -322h-203z" />
    <glyph glyph-name="uni04AF" unicode="&#x4af;" horiz-adv-x="577" 
d="M203 0l-156 354c-5 11 -10 16 -22 16h-13v145h110c37 0 61 -15 70 -42l78 -232c11 -33 19 -69 19 -69h2s8 36 19 69l75 232c9 26 33 42 70 42h110v-145h-13c-12 0 -17 -5 -22 -16l-154 -354v-200h-173v200z" />
    <glyph glyph-name="uni04AE" unicode="&#x4ae;" horiz-adv-x="633" 
d="M227 0v313l-152 230c-13 20 -14 22 -36 22h-29v150h98c44 0 68 -7 92 -48l73 -123c27 -46 43 -80 43 -80h2s16 34 43 80l72 123c24 41 48 48 92 48h98v-150h-29c-22 0 -23 -2 -36 -22l-152 -230v-313h-179z" />
    <glyph glyph-name="uni04B1" unicode="&#x4b1;" horiz-adv-x="577" 
d="M83 0v112h71l-106 242c-5 11 -10 16 -22 16h-13v145h110c37 0 61 -15 70 -42l78 -232c11 -33 19 -69 19 -69h2s8 36 19 69l75 232c9 26 33 42 70 42h110v-145h-13c-12 0 -17 -5 -22 -16l-106 -242h72v-112h-120v-200h-173v200h-121z" />
    <glyph glyph-name="uni0492" unicode="&#x492;" horiz-adv-x="543" 
d="M89 0v265h-65v126h65v174h-65v150h430c51 0 73 -22 73 -73v-138h-160v39c0 14 -8 22 -22 22h-77v-174h142v-126h-142v-265h-179z" />
    <glyph glyph-name="uni04B0" unicode="&#x4b0;" horiz-adv-x="633" 
d="M124 187v126h103l-152 230c-13 20 -14 22 -36 22h-29v150h98c44 0 68 -7 92 -48l73 -123c27 -46 43 -80 43 -80h2s16 34 43 80l72 123c24 41 48 48 92 48h98v-150h-29c-22 0 -23 -2 -36 -22l-152 -230h104v-126h-104v-187h-179v187h-103z" />
    <glyph glyph-name="uni048E" unicode="&#x48e;" horiz-adv-x="649" 
d="M88 0v565h-65v150h366c139 0 233 -102 233 -246c0 -74 -25 -138 -68 -182l54 -64l-77 -66l-64 76c-24 -8 -50 -12 -78 -12h-122v-221h-179zM313 416l77 66l64 -76c5 14 7 30 7 48c0 66 -32 111 -96 111h-98v-216h95h7z" />
    <glyph glyph-name="uni049C" unicode="&#x49c;" horiz-adv-x="812" 
d="M319 181v109h-51v-290h-179v543c0 14 -8 22 -22 22h-43v150h171c51 0 73 -22 73 -73v-203h51v106h120v-106c22 0 40 0 50 22l113 254h195l-135 -289c-23 -49 -53 -62 -53 -62v-2s30 -7 55 -57l57 -132c9 -21 29 -23 49 -23h19v-150h-105c-50 0 -80 8 -101 53l-99 214
c-9 19 -25 22 -45 23v-109h-120z" />
    <glyph glyph-name="uni049E" unicode="&#x49e;" horiz-adv-x="673" 
d="M27 515v122h49v78h179v-78h69v-122h-69v-76h34c25 0 43 0 55 22l121 254h195l-143 -289c-24 -49 -53 -62 -53 -62v-2s30 -7 55 -57l65 -132c10 -21 29 -23 49 -23h19v-150h-105c-50 0 -79 8 -101 53l-107 214c-12 23 -33 23 -60 23h-24v-290h-179v515h-49z" />
    <glyph glyph-name="uni04B8" unicode="&#x4b8;" horiz-adv-x="753" 
d="M320 166v92h-16c-154 0 -229 81 -229 219v66c0 14 -7 22 -22 22h-43v150h171c52 0 73 -22 73 -73v-117c0 -61 20 -97 66 -108v128h120v-125c33 7 52 17 70 27v268h179v-715h-179v263c0 14 2 32 2 32h-2c-18 -7 -41 -16 -70 -23v-106h-120z" />
    <glyph glyph-name="uni048F" unicode="&#x48f;" horiz-adv-x="653" 
d="M78 -200v548c0 14 -8 22 -22 22h-38v145h149c50 0 67 -23 67 -45v-9h2s45 66 154 66c140 0 232 -110 232 -270c0 -80 -25 -145 -66 -192l52 -61l-77 -63l-55 65c-29 -11 -61 -18 -94 -18c-84 0 -131 44 -131 44h-2s2 -18 2 -44v-188h-173zM316 198l77 63l59 -71
c7 17 11 37 11 61c0 79 -52 130 -113 130c-54 0 -104 -39 -104 -130c0 -69 34 -130 104 -130c9 0 18 1 27 3z" />
    <glyph glyph-name="uni049D" unicode="&#x49d;" horiz-adv-x="710" 
d="M285 94v106h-34v-200h-173v348c0 14 -8 22 -22 22h-38v145h160c51 0 73 -7 73 -58v-112h34v82h100v-82c15 0 32 0 41 16l76 154h188l-109 -198c-19 -33 -38 -43 -38 -43v-2s25 -12 40 -49l24 -61c6 -15 18 -17 38 -17h40v-145h-131c-37 0 -57 6 -74 39l-66 144
c-7 12 -18 16 -29 17v-106h-100z" />
    <glyph glyph-name="uni049F" unicode="&#x49f;" horiz-adv-x="597" 
d="M-17 526v112h81v77h173v-77h90v-112h-90v-181h27c15 0 32 0 41 16l84 154h188l-117 -198c-19 -33 -38 -43 -38 -43v-2s21 -8 39 -43l33 -67c7 -14 18 -17 38 -17h40v-145h-131c-37 0 -57 6 -74 39l-74 144c-9 17 -28 17 -41 17h-15v-200h-173v526h-81z" />
    <glyph glyph-name="uni04B9" unicode="&#x4b9;" horiz-adv-x="658" 
d="M285 85v78c-12 -1 -24 -1 -37 -1c-94 0 -185 59 -185 161v24c0 17 -5 23 -23 23h-27v145h150c59 0 70 -37 70 -74v-55c0 -44 12 -73 52 -83v114h100v-111c21 5 39 11 52 18v191h173v-515h-173v171c0 12 1 24 1 24h-1c-14 -5 -32 -11 -52 -16v-94h-100z" />
    <glyph glyph-name="uni0493" unicode="&#x493;" horiz-adv-x="481" 
d="M19 150v112h60v108h-60v145h369c51 0 73 -22 73 -73v-115h-140v21c0 14 -8 22 -22 22h-47v-108h121v-112h-121v-150h-173v150h-60z" />
    <glyph glyph-name="uni04E1" unicode="&#x4e1;" horiz-adv-x="497" 
d="M65 -15c32 -27 90 -51 136 -51c67 0 108 32 108 80c0 37 -24 56 -73 61c-16 2 -46 2 -140 2v110l142 152c20 20 40 32 40 32v2s-34 -3 -66 -3h-30c-14 0 -22 -8 -22 -22v-21h-145v115c0 51 22 73 73 73h363v-147l-135 -138c-16 -15 -30 -24 -30 -24v-2
c24 -2 45 -6 64 -12c106 -28 128 -114 128 -176c0 -155 -128 -226 -266 -226c-82 0 -161 29 -213 67z" />
    <glyph glyph-name="uni04E0" unicode="&#x4e0;" horiz-adv-x="526" 
d="M86 185c32 -27 90 -51 136 -51c67 0 108 32 108 80c0 37 -24 56 -73 61c-16 2 -46 2 -140 2v110l142 152c20 20 40 32 40 32v2s-34 -3 -66 -3h-30c-14 0 -22 -8 -22 -22v-21h-145v115c0 51 22 73 73 73h363v-147l-135 -138c-16 -15 -30 -24 -30 -24v-2
c24 -2 45 -6 64 -12c106 -28 128 -114 128 -176c0 -155 -128 -226 -266 -226c-82 0 -161 29 -213 67z" />
    <glyph glyph-name="uni0490" unicode="&#x490;" horiz-adv-x="538" 
d="M88 0v565h-65v150h321c14 0 22 8 22 22v38h160v-138c0 -51 -22 -73 -73 -73h-186v-564h-179z" />
    <glyph glyph-name="uni0491" unicode="&#x491;" horiz-adv-x="474" 
d="M78 0v370h-60v145h280c14 0 22 8 22 22v41h140v-135c0 -51 -22 -73 -73 -73h-136v-370h-173z" />
    <glyph glyph-name="uni0524" unicode="&#x524;" horiz-adv-x="803" 
d="M88 0v565h-65v150h600c51 0 73 -22 73 -73v-492h41c51 0 69 -18 69 -69v-221h-155v118c0 13 -7 22 -18 22h-116v543c0 14 -8 22 -22 22h-228v-565h-179z" />
    <glyph glyph-name="uni0525" unicode="&#x525;" horiz-adv-x="670" 
d="M78 0v370h-60v145h483c51 0 73 -22 73 -73v-302h33c48 0 66 -23 66 -73v-187h-155v98c0 13 -7 22 -18 22h-99v348c0 14 -8 22 -22 22h-128v-370h-173z" />
    <glyph glyph-name="uni0404" unicode="&#x404;" horiz-adv-x="703" 
d="M216 278c24 -81 90 -133 186 -133c119 0 200 81 200 81l85 -120s-102 -118 -290 -118c-224 0 -373 166 -373 371c0 211 157 368 363 368c95 0 281 -33 281 -167v-84h-160v39c0 41 -63 55 -111 55c-98 0 -162 -57 -184 -152h298v-140h-295z" />
    <glyph glyph-name="uni0454" unicode="&#x454;" horiz-adv-x="545" 
d="M23 258c0 136 96 269 291 269c72 0 190 -28 190 -121v-57h-140v21c0 16 -20 28 -60 28c-59 0 -102 -31 -117 -89h199v-107h-198c16 -51 67 -83 129 -83c90 0 159 60 159 60l62 -111s-81 -80 -228 -80c-184 0 -287 128 -287 270z" />
    <glyph glyph-name="uni0462" unicode="&#x462;" horiz-adv-x="720" 
d="M171 73v431h-160v150h159v61h180v-61h178v-150h-178v-70h96c123 0 262 -41 262 -210c0 -168 -136 -224 -262 -224h-202c-51 0 -73 22 -73 73zM350 167c0 -14 8 -22 22 -22h71c48 0 81 27 81 73s-32 71 -80 71h-94v-122z" />
    <glyph glyph-name="uni04A8" unicode="&#x4a8;" horiz-adv-x="923" 
d="M25 373c0 207 131 312 212 355l81 -158c-53 -34 -117 -99 -117 -205c0 -103 60 -217 216 -217c13 0 27 1 40 2c-65 67 -109 155 -109 265c0 166 101 300 271 300c175 0 267 -141 267 -283c0 -101 -46 -206 -123 -288c19 -3 38 -4 58 -4h57v-140h-60
c-60 0 -128 13 -193 40c-64 -33 -136 -52 -213 -52c-215 0 -387 148 -387 385zM529 418c0 -87 30 -154 78 -200c62 55 98 134 98 211c0 62 -23 127 -88 127c-55 0 -88 -47 -88 -138z" />
    <glyph glyph-name="uni04BC" unicode="&#x4bc;" horiz-adv-x="899" 
d="M572 -12c-185 0 -330 134 -351 323c-122 2 -209 64 -209 216c0 25 1 58 9 91l7 30h155l-8 -32c-5 -22 -8 -45 -8 -67c0 -49 7 -100 59 -106c33 190 179 284 329 284c207 0 315 -150 315 -345c0 -24 -6 -72 -6 -72h-461c17 -91 83 -162 193 -162c77 0 152 42 185 73
l81 -132c-20 -18 -109 -101 -290 -101zM403 443h292c0 76 -49 131 -140 131c-94 0 -148 -78 -152 -131z" />
    <glyph glyph-name="uni04D8" unicode="&#x4d8;" horiz-adv-x="707" 
d="M30 333c0 24 6 82 6 82h461c-16 91 -79 152 -183 152c-81 0 -160 -42 -195 -73l-81 132c21 18 121 101 300 101c213 0 344 -183 344 -370c0 -215 -141 -369 -337 -369c-207 0 -315 150 -315 345zM205 282c0 -83 49 -141 140 -141c94 0 148 58 152 141h-292z" />
    <glyph glyph-name="uni0494" unicode="&#x494;" horiz-adv-x="658" 
d="M87 0v575h-65v140h471c51 0 69 -18 69 -69v-119h-140v26c0 14 -8 22 -22 22h-134v-174c31 12 76 16 116 16c183 0 260 -132 260 -293c0 -211 -98 -314 -294 -314v140c67 0 109 33 109 174c0 86 -28 143 -121 143c-24 0 -46 -4 -70 -12v-255h-179z" />
    <glyph glyph-name="uni04A6" unicode="&#x4a6;" horiz-adv-x="1016" 
d="M88 0v565h-65v150h532c51 0 73 -22 73 -73v-221c31 10 76 16 116 16c183 0 260 -137 260 -303c0 -218 -90 -324 -294 -324v140c67 0 109 35 109 184c0 98 -28 163 -121 163c-24 0 -46 -6 -70 -12v-285h-179v543c0 14 -8 22 -22 22h-160v-565h-179z" />
    <glyph glyph-name="uni04C3" unicode="&#x4c3;" horiz-adv-x="696" 
d="M89 0v543c0 14 -8 22 -22 22h-43v150h171c51 0 73 -22 73 -73v-203h24c25 0 45 2 55 22l131 254h195l-127 -246c-25 -48 -53 -62 -53 -62v-2c154 -63 172 -211 172 -290c0 -165 -86 -305 -272 -305v145c44 0 87 39 87 161c0 96 -25 174 -154 174h-58v-290h-179z" />
    <glyph glyph-name="uni04C7" unicode="&#x4c7;" horiz-adv-x="791" 
d="M89 0v543c0 14 -8 22 -22 22h-43v150h171c51 0 73 -22 73 -73v-213h257v213c0 51 22 73 73 73h171v-150h-43c-14 0 -22 -8 -22 -22v-443c0 -252 -127 -292 -268 -291v147c49 0 89 19 89 145v179h-257v-280h-179z" />
    <glyph glyph-name="uni04A9" unicode="&#x4a9;" horiz-adv-x="807" 
d="M23 269c0 147 100 227 178 258l62 -137c-51 -26 -82 -74 -82 -125c0 -62 46 -144 159 -144c10 0 22 0 33 2c-46 45 -76 104 -76 178c0 127 91 226 240 226c148 0 228 -98 228 -199c0 -67 -36 -140 -95 -201c12 -1 25 -1 38 -1h71v-126h-61c-59 0 -124 10 -186 31
c-58 -27 -123 -43 -193 -43c-184 0 -316 112 -316 281zM457 305c0 -53 23 -97 63 -127c49 33 85 80 85 138c0 44 -21 82 -73 82c-55 0 -75 -43 -75 -93z" />
    <glyph glyph-name="uni04BD" unicode="&#x4bd;" horiz-adv-x="703" 
d="M454 -12c-170 0 -268 113 -282 238c-111 5 -163 69 -163 182c0 23 3 45 8 68h133c-5 -20 -8 -39 -8 -59c0 -47 13 -73 38 -82c29 112 122 192 259 192c152 0 238 -106 238 -249c0 -17 -4 -54 -4 -54h-325c13 -65 65 -92 120 -92c74 0 137 54 137 54l69 -116
s-83 -82 -220 -82zM353 323h150c0 37 -28 74 -64 74c-50 0 -78 -30 -86 -74z" />
    <glyph glyph-name="uni04D9" unicode="&#x4d9;" horiz-adv-x="557" 
d="M26 238c0 20 4 62 4 62h327c-13 66 -65 92 -120 92c-72 0 -142 -49 -142 -49l-60 117c37 25 110 67 227 67c178 0 272 -126 272 -270c0 -151 -102 -269 -268 -269c-154 0 -240 107 -240 250zM205 205c0 -56 27 -87 65 -87c51 0 83 34 83 87h-148z" />
    <glyph glyph-name="uni04A7" unicode="&#x4a7;" horiz-adv-x="874" 
d="M78 0v370h-60v145h594v-145h-60v-83c21 8 56 16 91 16c146 0 222 -95 222 -244c0 -105 -64 -206 -170 -269l-81 117c36 21 86 63 86 152c0 48 -20 99 -104 99c-17 0 -34 -5 -44 -9v-149h-173v370h-128v-370h-173z" />
    <glyph glyph-name="uni0433.BUL" horiz-adv-x="482" 
d="M23 144c0 172 261 162 261 225c0 16 -18 24 -45 24c-30 0 -48 -10 -48 -24v-20h-150v61c0 93 116 117 201 117c108 0 211 -39 211 -147c0 -170 -258 -172 -258 -236c0 -12 9 -20 38 -20c80 0 152 61 152 61l77 -111s-79 -86 -229 -86c-117 0 -210 53 -210 156z" />
    <glyph glyph-name="uni0434.BUL" horiz-adv-x="636" 
d="M124 -29c0 0 63 -33 144 -33c62 0 119 23 119 99v8c0 6 1 19 1 19h-2c-30 -33 -69 -49 -129 -49c-155 0 -232 127 -232 259c0 131 75 253 231 253c105 0 149 -60 149 -60h2v7c0 14 16 41 55 41h156v-145h-36c-13 0 -22 -7 -22 -19v-304c0 -188 -150 -257 -291 -257
c-69 0 -145 20 -195 46zM298 159c45 0 93 23 93 113c0 91 -48 111 -100 111c-61 0 -92 -44 -92 -103c0 -64 30 -121 99 -121z" />
    <glyph glyph-name="uni0436.BUL" horiz-adv-x="849" 
d="M11 0l104 203c23 44 59 56 59 56v2s-22 7 -39 43l-23 49c-7 14 -18 17 -38 17h-40v145h121c37 0 57 -6 74 -39l64 -127c9 -17 28 -17 41 -17h8v383h165v-383h8c13 0 32 0 41 17l64 127c17 33 37 39 74 39h121v-145h-40c-20 0 -31 -3 -38 -17l-23 -49
c-17 -36 -39 -43 -39 -43v-2s36 -12 59 -56l104 -203h-196l-79 160c-12 24 -23 32 -42 32h-14v-192h-165v192h-14c-19 0 -30 -8 -42 -32l-79 -160h-196z" />
    <glyph glyph-name="uni0438.BUL" horiz-adv-x="660" 
d="M72 181v167c0 14 -8 22 -22 22h-38v145h160c51 0 73 -22 73 -73v-229c0 -48 19 -68 55 -68c74 0 109 65 109 142v228h173v-348c0 -14 8 -22 22 -22h38v-145h-153c-47 0 -73 23 -73 58v7c0 5 1 12 1 12h-2c-28 -55 -91 -89 -160 -89c-102 0 -183 48 -183 193z" />
    <glyph glyph-name="uni0439.BUL" horiz-adv-x="661" 
d="M73 181v167c0 14 -8 22 -22 22h-38v145h160c51 0 73 -22 73 -73v-229c0 -48 19 -68 55 -68c74 0 109 65 109 142v228h173v-348c0 -14 8 -22 22 -22h38v-145h-153c-47 0 -73 23 -73 58v7c0 5 1 12 1 12h-2c-28 -55 -91 -89 -160 -89c-102 0 -183 48 -183 193zM327 551
c-102 0 -190 55 -190 153v11h128v-12c0 -41 32 -59 62 -59c29 0 62 18 62 59v12h127v-11c0 -98 -88 -153 -189 -153z" />
    <glyph glyph-name="uni043A.BUL" horiz-adv-x="584" 
d="M51 0v548c0 14 -8 22 -22 22h-38v145h160c51 0 73 -7 73 -58v-312h27c15 0 32 0 41 16l84 154h188l-117 -198c-19 -33 -38 -43 -38 -43v-2s21 -8 39 -43l33 -67c7 -14 18 -17 38 -17h40v-145h-131c-37 0 -57 6 -74 39l-74 144c-9 17 -28 17 -41 17h-15v-200h-173z" />
    <glyph glyph-name="uni043B.BUL" horiz-adv-x="567" 
d="M15 0v145h13c12 0 18 5 22 16l123 354h221l121 -354c4 -11 12 -16 24 -16h13v-145h-113c-36 0 -63 15 -71 42l-69 232c-10 33 -19 83 -19 83h-2s-9 -50 -19 -83l-70 -232c-8 -27 -33 -42 -70 -42h-104z" />
    <glyph glyph-name="uni043F.BUL" horiz-adv-x="666" 
d="M78 0v348c0 14 -8 22 -22 22h-38v145h154c47 0 72 -23 72 -58v-7c0 -5 -1 -12 -1 -12h2c24 40 72 89 163 89c104 0 185 -48 185 -193v-167c0 -14 8 -22 22 -22h38v-145h-160c-51 0 -73 22 -73 73v229c0 48 -19 68 -57 68c-54 0 -87 -30 -102 -74c-7 -20 -10 -43 -10 -68
v-228h-173z" />
    <glyph glyph-name="uni0442.BUL" horiz-adv-x="948" 
d="M78 0v348c0 14 -8 22 -22 22h-38v145h155c47 0 72 -23 72 -58v-7c0 -5 -1 -12 -1 -12h2c24 36 70 89 151 89c65 0 117 -29 144 -87h2c27 43 88 87 165 87c94 0 167 -51 167 -193v-167c0 -14 8 -22 22 -22h38v-145h-160c-51 0 -73 22 -73 73v232c0 38 -7 65 -40 65
c-52 0 -82 -42 -93 -99c-4 -18 -6 -37 -6 -58v-213h-173v305c0 38 -7 65 -40 65c-51 0 -80 -40 -92 -95c-4 -19 -7 -40 -7 -62v-213h-173z" />
    <glyph glyph-name="uni0446.BUL" horiz-adv-x="687" 
d="M73 181v167c0 14 -8 22 -22 22h-38v145h160c51 0 73 -22 73 -73v-229c0 -48 19 -68 55 -68c74 0 109 65 109 142v228h173v-348c0 -14 7 -22 21 -22h70v-265h-155v120h-29c-47 0 -73 23 -73 58v7c0 5 1 12 1 12h-2c-28 -55 -91 -89 -160 -89c-102 0 -183 48 -183 193z" />
    <glyph glyph-name="uni0448.BUL" horiz-adv-x="948" 
d="M870 515v-348c0 -14 8 -22 22 -22h38v-145h-155c-47 0 -72 23 -72 58v7c0 5 1 12 1 12h-2c-24 -36 -70 -89 -151 -89c-65 0 -117 29 -144 87h-2c-27 -43 -88 -87 -165 -87c-94 0 -167 51 -167 193v167c0 14 -8 22 -22 22h-38v145h160c51 0 73 -22 73 -73v-232
c0 -38 7 -65 40 -65c52 0 82 42 93 99c4 18 6 37 6 58v213h173v-305c0 -38 7 -65 40 -65c51 0 80 40 92 95c4 19 7 40 7 62v213h173z" />
    <glyph glyph-name="uni0449.BUL" horiz-adv-x="977" 
d="M870 515v-348c0 -14 8 -22 22 -22h73v-265h-155v120h-35c-47 0 -72 23 -72 58v7c0 5 1 12 1 12h-2c-24 -36 -70 -89 -151 -89c-65 0 -117 29 -144 87h-2c-27 -43 -88 -87 -165 -87c-94 0 -167 51 -167 193v167c0 14 -8 22 -22 22h-38v145h160c51 0 73 -22 73 -73v-232
c0 -38 7 -65 40 -65c52 0 82 42 93 99c4 18 6 37 6 58v213h173v-305c0 -38 7 -65 40 -65c51 0 80 40 92 95c4 19 7 40 7 62v213h173z" />
    <glyph glyph-name="uni044A.BUL" horiz-adv-x="687" 
d="M202 194v164c0 13 -7 22 -19 22h-19c-14 0 -22 -8 -22 -22v-31h-125v115c0 51 22 73 73 73h212c51 0 73 -22 73 -73v-51c0 -18 -1 -21 -2 -35h2c30 20 61 29 113 29c110 0 185 -81 185 -195c0 -139 -105 -202 -243 -202c-158 0 -228 77 -228 206zM374 189
c0 -40 19 -75 61 -75c32 0 66 14 66 70s-32 69 -70 69s-57 -27 -57 -64z" />
    <glyph glyph-name="uni044C.BUL" horiz-adv-x="558" 
d="M73 194v154c0 13 -7 22 -19 22h-41v145h160c51 0 73 -22 73 -73v-51c0 -18 -1 -21 -2 -35h2c30 20 61 29 113 29c110 0 185 -81 185 -195c0 -139 -105 -202 -243 -202c-158 0 -228 77 -228 206zM245 189c0 -40 19 -75 61 -75c32 0 66 14 66 70s-32 69 -70 69
s-57 -27 -57 -64z" />
    <glyph glyph-name="uni044E.BUL" horiz-adv-x="875" 
d="M51 0v548c0 14 -8 22 -22 22h-38v145h160c51 0 73 -22 73 -73v-315h72c29 122 134 200 270 200c163 0 286 -109 286 -271c0 -161 -123 -268 -285 -268c-142 0 -249 82 -274 211h-69v-199h-173zM456 256c0 -77 48 -124 111 -124s111 47 111 124c0 78 -48 127 -111 127
s-111 -49 -111 -127z" />
    <glyph glyph-name="uni0432.BUL" horiz-adv-x="603" 
d="M36 250v186c0 178 110 291 276 291c156 0 210 -92 210 -160c0 -58 -31 -104 -94 -144v-2c84 -14 153 -82 153 -187c0 -156 -123 -246 -276 -246c-217 0 -269 172 -269 262zM209 427h2c13 15 32 28 52 39l25 14c41 19 63 41 63 74c0 22 -14 53 -61 53
c-31 0 -81 -18 -81 -101v-79zM206 229c0 -71 44 -102 97 -102c56 0 102 31 102 102c0 70 -46 94 -102 94c-43 0 -97 -24 -97 -94z" />
    <glyph glyph-name="uni0437.BUL" horiz-adv-x="483" 
d="M65 -19c0 0 58 -43 132 -43c60 0 85 46 85 90c0 46 -21 78 -104 78h-61v135h54c58 0 104 25 104 85c0 37 -20 72 -77 72c-22 0 -42 -10 -42 -24v-25h-150v61c0 93 113 117 195 117c156 0 249 -74 246 -188c-2 -80 -58 -133 -107 -157v-2c83 -34 115 -98 115 -160
c0 -150 -116 -230 -244 -230c-133 0 -207 63 -207 63z" />
    <glyph glyph-name="currency" unicode="&#xa4;" horiz-adv-x="640" 
d="M109 0v142h-65v111h65v57h-65v134h65v136h-65v135h347c138 0 233 -74 233 -202c0 -127 -93 -204 -233 -204h-103v-56h244v-111h-244v-142h-179zM288 444h67c64 0 86 37 86 70c0 34 -23 66 -83 66h-70v-136z" />
    <glyph glyph-name="numero" unicode="&#x2116;" horiz-adv-x="1157" 
d="M39 0v150h43c14 0 22 8 22 22v543h161l198 -307c30 -46 60 -107 60 -107h2s-8 62 -8 107v234c0 51 22 73 73 73h171v-150h-43c-14 0 -22 -8 -22 -22v-543h-160l-199 306c-30 45 -60 107 -60 107h-2s8 -62 8 -107v-233c0 -51 -22 -73 -73 -73h-171zM780 457
c0 91 73 167 171 167c96 0 170 -76 170 -167c0 -93 -74 -166 -170 -166c-98 0 -171 73 -171 166zM902 458c0 -29 20 -51 49 -51s49 22 49 51c0 27 -20 50 -49 50s-49 -23 -49 -50zM788 133v114h319v-114h-319z" />
    <glyph glyph-name="uni0414.ALT" horiz-adv-x="743" 
d="M10 81c0 51 18 69 69 69h10l189 565h188l188 -565h10c51 0 69 -18 69 -69v-221h-155v118c0 13 -7 21 -19 22h-372c-14 0 -22 -8 -22 -22v-118h-155v221zM270 150h199l-76 267c-12 46 -24 115 -24 115h-2s-12 -69 -24 -115z" />
    <glyph glyph-name="uni041B.ALT" horiz-adv-x="671" 
d="M11 0v150h21c16 0 21 5 27 22l177 543h199l176 -543c6 -17 11 -22 27 -22h21v-150h-118c-50 0 -71 14 -84 58l-98 329c-13 46 -27 130 -27 130h-2s-14 -84 -27 -130l-98 -329c-13 -44 -31 -58 -81 -58h-113z" />
    <glyph glyph-name="uni0434.ALT" horiz-adv-x="655" 
d="M10 67c0 50 27 73 76 73l137 375h221l130 -375c45 0 71 -23 71 -73v-187h-155v98c0 14 -8 22 -22 22h-281c-14 0 -22 -8 -22 -22v-98h-155v187zM258 140h145l-49 157c-11 34 -22 83 -22 83h-2s-12 -49 -21 -83z" />
    <glyph glyph-name="uni043B.ALT" horiz-adv-x="567" 
d="M15 0v145h13c12 0 18 5 22 16l123 354h221l121 -354c4 -11 12 -16 24 -16h13v-145h-113c-36 0 -63 15 -71 42l-69 232c-10 33 -19 83 -19 83h-2s-9 -50 -19 -83l-70 -232c-8 -27 -33 -42 -70 -42h-104z" />
    <glyph glyph-name="uni0409.ALT" horiz-adv-x="946" 
d="M10 0v150h19c13 0 20 3 27 22l185 543h269c51 0 73 -22 73 -73v-189h89c98 0 262 -25 262 -220c0 -174 -131 -233 -272 -233h-185c-51 0 -73 22 -73 73v470c0 14 -8 22 -22 22h-17l-165 -507c-15 -46 -39 -58 -84 -58h-106zM583 167c0 -14 8 -22 22 -22h74
c48 0 71 38 71 83c0 44 -22 80 -70 80h-97v-141z" />
    <glyph glyph-name="uni0459.ALT" horiz-adv-x="816" 
d="M10 0v145h13c12 0 27 8 35 27l137 343h251c47 0 72 -23 72 -58v-119h80c144 0 204 -63 204 -164c0 -100 -60 -174 -204 -174h-200c-37 0 -53 16 -53 53v312c0 14 -8 22 -22 22h-15l-133 -345c-10 -27 -33 -42 -70 -42h-95zM518 130c0 -10 6 -17 16 -17h40
c41 -1 61 26 61 57c0 33 -20 56 -64 56h-53v-96z" />
    <glyph glyph-name="uni04C5.ALT" horiz-adv-x="791" 
d="M12 0v150h21c16 0 21 5 27 22l177 543h199l176 -543c6 -17 11 -22 27 -22h145v-91l-89 -199h-117l32 140h-68c-50 0 -71 14 -84 58l-98 329c-13 46 -27 130 -27 130h-2s-14 -84 -27 -130l-98 -329c-13 -44 -31 -58 -81 -58h-113z" />
    <glyph glyph-name="uni04C6.ALT" horiz-adv-x="672" 
d="M15 0v145h13c12 0 18 5 22 16l123 354h221l121 -354c4 -11 12 -16 24 -16h123v-86l-80 -179h-110l27 120h-60c-36 0 -63 15 -71 42l-69 232c-10 33 -19 83 -19 83h-2s-9 -50 -19 -83l-70 -232c-8 -27 -33 -42 -70 -42h-104z" />
    </font>
</defs>
</svg>
